<?xml version="1.0" encoding="UTF-8" standalone="no"?>
<!DOCTYPE svg PUBLIC "-//W3C//DTD SVG 1.1//EN"
 "http://www.w3.org/Graphics/SVG/1.1/DTD/svg11.dtd">
<!-- Generated by graphviz version 2.44.1 (20200629.0846)
 -->
<!-- Title: structure Pages: 1 -->
<svg width="1721pt" height="740pt"
 viewBox="0.00 0.00 1720.58 740.00" xmlns="http://www.w3.org/2000/svg" xmlns:xlink="http://www.w3.org/1999/xlink">
<g id="graph0" class="graph" transform="scale(1 1) rotate(0) translate(4 736)">
<title>structure</title>
<polygon fill="white" stroke="transparent" points="-4,4 -4,-736 1716.58,-736 1716.58,4 -4,4"/>
<!-- node0x607000000560 -->
<g id="node1" class="node">
<title>node0x607000000560</title>
<polygon fill="#c1ffc1" stroke="black" points="422.33,-708.44 464.98,-696 507.64,-708.44 507.6,-728.56 422.37,-728.56 422.33,-708.44"/>
<text text-anchor="middle" x="464.98" y="-710.3" font-family="Times,serif" font-size="14.00">Linker</text>
</g>
<!-- node0x6070000004f0 -->
<g id="node2" class="node">
<title>node0x6070000004f0</title>
<polygon fill="#c1ffc1" stroke="black" points="81.65,-621.44 275.98,-609 470.32,-621.44 470.13,-641.56 81.83,-641.56 81.65,-621.44"/>
<text text-anchor="middle" x="275.98" y="-623.3" font-family="Times,serif" font-size="14.00">FuncDecl&lt;Identifier&lt;giveYouUp&gt;&gt;:0:13</text>
</g>
<!-- node0x607000000560&#45;&gt;node0x6070000004f0 -->
<g id="edge1" class="edge">
<title>node0x607000000560&#45;&gt;node0x6070000004f0</title>
<path fill="none" stroke="green" d="M441.81,-702.58C410.37,-688.44 353.74,-662.97 315.51,-645.78"/>
<polygon fill="green" stroke="green" points="316.77,-642.51 306.22,-641.6 313.9,-648.89 316.77,-642.51"/>
<text text-anchor="middle" x="386.48" y="-666.8" font-family="Times,serif" font-size="14.00">L</text>
</g>
<!-- node0x607000000f70 -->
<g id="node12" class="node">
<title>node0x607000000f70</title>
<polygon fill="#c1ffc1" stroke="black" points="574.33,-708.44 616.98,-696 659.64,-708.44 659.6,-728.56 574.37,-728.56 574.33,-708.44"/>
<text text-anchor="middle" x="616.98" y="-710.3" font-family="Times,serif" font-size="14.00">Linker</text>
</g>
<!-- node0x607000000560&#45;&gt;node0x607000000f70 -->
<g id="edge11" class="edge">
<title>node0x607000000560&#45;&gt;node0x607000000f70</title>
<path fill="none" stroke="red" d="M507.73,-714C525.29,-714 545.8,-714 564.27,-714"/>
<polygon fill="red" stroke="red" points="564.3,-717.5 574.3,-714 564.3,-710.5 564.3,-717.5"/>
<text text-anchor="middle" x="540.98" y="-720.8" font-family="Times,serif" font-size="14.00">R</text>
</g>
<!-- node0x607000000100 -->
<g id="node3" class="node">
<title>node0x607000000100</title>
<polygon fill="#c1ffc1" stroke="black" points="34.42,-534.44 124.98,-522 215.55,-534.44 215.46,-554.56 34.51,-554.56 34.42,-534.44"/>
<text text-anchor="middle" x="124.98" y="-536.3" font-family="Times,serif" font-size="14.00">None&lt;None&gt;:0:0</text>
</g>
<!-- node0x6070000004f0&#45;&gt;node0x607000000100 -->
<g id="edge2" class="edge">
<title>node0x6070000004f0&#45;&gt;node0x607000000100</title>
<path fill="none" stroke="green" d="M248.64,-610.61C223.14,-596.25 185.05,-574.81 157.89,-559.53"/>
<polygon fill="green" stroke="green" points="159.57,-556.45 149.14,-554.6 156.13,-562.55 159.57,-556.45"/>
<text text-anchor="middle" x="214.48" y="-579.8" font-family="Times,serif" font-size="14.00">L</text>
</g>
<!-- node0x607000000250 -->
<g id="node4" class="node">
<title>node0x607000000250</title>
<polygon fill="#c1ffc1" stroke="black" points="233.33,-534.44 275.98,-522 318.64,-534.44 318.6,-554.56 233.37,-554.56 233.33,-534.44"/>
<text text-anchor="middle" x="275.98" y="-536.3" font-family="Times,serif" font-size="14.00">Linker</text>
</g>
<!-- node0x6070000004f0&#45;&gt;node0x607000000250 -->
<g id="edge3" class="edge">
<title>node0x6070000004f0&#45;&gt;node0x607000000250</title>
<path fill="none" stroke="red" d="M275.98,-608.8C275.98,-596.24 275.98,-579.06 275.98,-565.13"/>
<polygon fill="red" stroke="red" points="279.48,-564.81 275.98,-554.81 272.48,-564.81 279.48,-564.81"/>
<text text-anchor="middle" x="280.98" y="-579.8" font-family="Times,serif" font-size="14.00">R</text>
</g>
<!-- node0x607000000170 -->
<g id="node5" class="node">
<title>node0x607000000170</title>
<polygon fill="#c1ffc1" stroke="black" points="0.02,-447.44 138.98,-435 277.95,-447.44 277.82,-467.56 0.15,-467.56 0.02,-447.44"/>
<text text-anchor="middle" x="138.98" y="-449.3" font-family="Times,serif" font-size="14.00">VarDef&lt;Identifier&lt;x&gt;&gt;:1:15</text>
</g>
<!-- node0x607000000250&#45;&gt;node0x607000000170 -->
<g id="edge4" class="edge">
<title>node0x607000000250&#45;&gt;node0x607000000170</title>
<path fill="none" stroke="green" d="M257.22,-527.36C234.7,-513.39 196.63,-489.77 169.78,-473.11"/>
<polygon fill="green" stroke="green" points="171.49,-470.05 161.14,-467.75 167.8,-476 171.49,-470.05"/>
<text text-anchor="middle" x="220.48" y="-492.8" font-family="Times,serif" font-size="14.00">L</text>
</g>
<!-- node0x607000000480 -->
<g id="node7" class="node">
<title>node0x607000000480</title>
<polygon fill="#c1ffc1" stroke="black" points="354.33,-534.44 396.98,-522 439.64,-534.44 439.6,-554.56 354.37,-554.56 354.33,-534.44"/>
<text text-anchor="middle" x="396.98" y="-536.3" font-family="Times,serif" font-size="14.00">Linker</text>
</g>
<!-- node0x607000000250&#45;&gt;node0x607000000480 -->
<g id="edge6" class="edge">
<title>node0x607000000250&#45;&gt;node0x607000000480</title>
<path fill="none" stroke="red" d="M318.64,-540C326.87,-540 335.57,-540 344.08,-540"/>
<polygon fill="red" stroke="red" points="344.3,-543.5 354.3,-540 344.3,-536.5 344.3,-543.5"/>
<text text-anchor="middle" x="336.48" y="-546.8" font-family="Times,serif" font-size="14.00">R</text>
</g>
<!-- node0x6070000001e0 -->
<g id="node6" class="node">
<title>node0x6070000001e0</title>
<polygon fill="#c1ffc1" stroke="black" points="31.39,-360.44 125.98,-348 220.58,-360.44 220.49,-380.56 31.48,-380.56 31.39,-360.44"/>
<text text-anchor="middle" x="125.98" y="-362.3" font-family="Times,serif" font-size="14.00">Input&lt;Input&gt;:1:19</text>
</g>
<!-- node0x607000000170&#45;&gt;node0x6070000001e0 -->
<g id="edge5" class="edge">
<title>node0x607000000170&#45;&gt;node0x6070000001e0</title>
<path fill="none" stroke="green" d="M136.42,-435.21C134.47,-422.48 131.77,-404.84 129.61,-390.68"/>
<polygon fill="green" stroke="green" points="133.05,-390.03 128.08,-380.68 126.13,-391.09 133.05,-390.03"/>
<text text-anchor="middle" x="138.48" y="-405.8" font-family="Times,serif" font-size="14.00">L</text>
</g>
<!-- node0x607000000410 -->
<g id="node8" class="node">
<title>node0x607000000410</title>
<polygon fill="#c1ffc1" stroke="black" points="308.74,-447.44 396.98,-435 485.23,-447.44 485.14,-467.56 308.82,-467.56 308.74,-447.44"/>
<text text-anchor="middle" x="396.98" y="-449.3" font-family="Times,serif" font-size="14.00">Print&lt;None&gt;:0:0</text>
</g>
<!-- node0x607000000480&#45;&gt;node0x607000000410 -->
<g id="edge7" class="edge">
<title>node0x607000000480&#45;&gt;node0x607000000410</title>
<path fill="none" stroke="green" d="M396.98,-521.8C396.98,-509.24 396.98,-492.06 396.98,-478.13"/>
<polygon fill="green" stroke="green" points="400.48,-477.81 396.98,-467.81 393.48,-477.81 400.48,-477.81"/>
<text text-anchor="middle" x="401.48" y="-492.8" font-family="Times,serif" font-size="14.00">L</text>
</g>
<!-- node0x6070000003a0 -->
<g id="node9" class="node">
<title>node0x6070000003a0</title>
<polygon fill="#c1ffc1" stroke="black" points="238.95,-360.44 396.98,-348 555.01,-360.44 554.87,-380.56 239.1,-380.56 238.95,-360.44"/>
<text text-anchor="middle" x="396.98" y="-362.3" font-family="Times,serif" font-size="14.00">FuncCall&lt;Identifier&lt;fact&gt;&gt;:2:14</text>
</g>
<!-- node0x607000000410&#45;&gt;node0x6070000003a0 -->
<g id="edge8" class="edge">
<title>node0x607000000410&#45;&gt;node0x6070000003a0</title>
<path fill="none" stroke="green" d="M396.98,-434.8C396.98,-422.24 396.98,-405.06 396.98,-391.13"/>
<polygon fill="green" stroke="green" points="400.48,-390.81 396.98,-380.81 393.48,-390.81 400.48,-390.81"/>
<text text-anchor="middle" x="401.48" y="-405.8" font-family="Times,serif" font-size="14.00">L</text>
</g>
<!-- node0x607000000330 -->
<g id="node10" class="node">
<title>node0x607000000330</title>
<polygon fill="#c1ffc1" stroke="black" points="354.33,-273.44 396.98,-261 439.64,-273.44 439.6,-293.56 354.37,-293.56 354.33,-273.44"/>
<text text-anchor="middle" x="396.98" y="-275.3" font-family="Times,serif" font-size="14.00">Linker</text>
</g>
<!-- node0x6070000003a0&#45;&gt;node0x607000000330 -->
<g id="edge9" class="edge">
<title>node0x6070000003a0&#45;&gt;node0x607000000330</title>
<path fill="none" stroke="green" d="M396.98,-347.8C396.98,-335.24 396.98,-318.06 396.98,-304.13"/>
<polygon fill="green" stroke="green" points="400.48,-303.81 396.98,-293.81 393.48,-303.81 400.48,-303.81"/>
<text text-anchor="middle" x="401.48" y="-318.8" font-family="Times,serif" font-size="14.00">L</text>
</g>
<!-- node0x6070000002c0 -->
<g id="node11" class="node">
<title>node0x6070000002c0</title>
<ellipse fill="aquamarine" stroke="black" cx="396.98" cy="-192" rx="53.09" ry="18"/>
<text text-anchor="middle" x="396.98" y="-188.3" font-family="Times,serif" font-size="14.00">ID&lt;x&gt;:2:19</text>
</g>
<!-- node0x607000000330&#45;&gt;node0x6070000002c0 -->
<g id="edge10" class="edge">
<title>node0x607000000330&#45;&gt;node0x6070000002c0</title>
<path fill="none" stroke="green" d="M396.98,-260.8C396.98,-249.16 396.98,-233.55 396.98,-220.24"/>
<polygon fill="green" stroke="green" points="400.48,-220.18 396.98,-210.18 393.48,-220.18 400.48,-220.18"/>
<text text-anchor="middle" x="401.48" y="-231.8" font-family="Times,serif" font-size="14.00">L</text>
</g>
<!-- node0x607000000f00 -->
<g id="node13" class="node">
<title>node0x607000000f00</title>
<polygon fill="#c1ffc1" stroke="black" points="497.13,-621.44 657.98,-609 818.83,-621.44 818.68,-641.56 497.28,-641.56 497.13,-621.44"/>
<text text-anchor="middle" x="657.98" y="-623.3" font-family="Times,serif" font-size="14.00">FuncDecl&lt;Identifier&lt;fact&gt;&gt;:5:14</text>
</g>
<!-- node0x607000000f70&#45;&gt;node0x607000000f00 -->
<g id="edge12" class="edge">
<title>node0x607000000f70&#45;&gt;node0x607000000f00</title>
<path fill="none" stroke="green" d="M624.31,-697.8C630.62,-684.72 639.82,-665.65 647.01,-650.75"/>
<polygon fill="green" stroke="green" points="650.2,-652.19 651.39,-641.66 643.9,-649.15 650.2,-652.19"/>
<text text-anchor="middle" x="644.48" y="-666.8" font-family="Times,serif" font-size="14.00">L</text>
</g>
<!-- node0x6070000005d0 -->
<g id="node14" class="node">
<title>node0x6070000005d0</title>
<polygon fill="#c1ffc1" stroke="black" points="615.33,-534.44 657.98,-522 700.64,-534.44 700.6,-554.56 615.37,-554.56 615.33,-534.44"/>
<text text-anchor="middle" x="657.98" y="-536.3" font-family="Times,serif" font-size="14.00">Linker</text>
</g>
<!-- node0x607000000f00&#45;&gt;node0x6070000005d0 -->
<g id="edge13" class="edge">
<title>node0x607000000f00&#45;&gt;node0x6070000005d0</title>
<path fill="none" stroke="green" d="M657.98,-608.8C657.98,-596.24 657.98,-579.06 657.98,-565.13"/>
<polygon fill="green" stroke="green" points="661.48,-564.81 657.98,-554.81 654.48,-564.81 661.48,-564.81"/>
<text text-anchor="middle" x="662.48" y="-579.8" font-family="Times,serif" font-size="14.00">L</text>
</g>
<!-- node0x607000000aa0 -->
<g id="node16" class="node">
<title>node0x607000000aa0</title>
<polygon fill="#c1ffc1" stroke="black" points="815.33,-534.44 857.98,-522 900.64,-534.44 900.6,-554.56 815.37,-554.56 815.33,-534.44"/>
<text text-anchor="middle" x="857.98" y="-536.3" font-family="Times,serif" font-size="14.00">Linker</text>
</g>
<!-- node0x607000000f00&#45;&gt;node0x607000000aa0 -->
<g id="edge15" class="edge">
<title>node0x607000000f00&#45;&gt;node0x607000000aa0</title>
<path fill="none" stroke="red" d="M691.91,-611.58C726.29,-596.97 779.51,-574.35 816.4,-558.67"/>
<polygon fill="red" stroke="red" points="818.04,-561.78 825.88,-554.64 815.31,-555.34 818.04,-561.78"/>
<text text-anchor="middle" x="774.98" y="-579.8" font-family="Times,serif" font-size="14.00">R</text>
</g>
<!-- node0x607000000640 -->
<g id="node15" class="node">
<title>node0x607000000640</title>
<ellipse fill="aquamarine" stroke="black" cx="657.98" cy="-453" rx="67.69" ry="18"/>
<text text-anchor="middle" x="657.98" y="-449.3" font-family="Times,serif" font-size="14.00">ID&lt;value&gt;:5:19</text>
</g>
<!-- node0x6070000005d0&#45;&gt;node0x607000000640 -->
<g id="edge14" class="edge">
<title>node0x6070000005d0&#45;&gt;node0x607000000640</title>
<path fill="none" stroke="green" d="M657.98,-521.8C657.98,-510.16 657.98,-494.55 657.98,-481.24"/>
<polygon fill="green" stroke="green" points="661.48,-481.18 657.98,-471.18 654.48,-481.18 661.48,-481.18"/>
<text text-anchor="middle" x="662.48" y="-492.8" font-family="Times,serif" font-size="14.00">L</text>
</g>
<!-- node0x607000000a30 -->
<g id="node17" class="node">
<title>node0x607000000a30</title>
<polygon fill="#c1ffc1" stroke="black" points="779.02,-447.44 857.98,-435 936.95,-447.44 936.87,-467.56 779.1,-467.56 779.02,-447.44"/>
<text text-anchor="middle" x="857.98" y="-449.3" font-family="Times,serif" font-size="14.00">IfStmt&lt;If&gt;:6:6</text>
</g>
<!-- node0x607000000aa0&#45;&gt;node0x607000000a30 -->
<g id="edge16" class="edge">
<title>node0x607000000aa0&#45;&gt;node0x607000000a30</title>
<path fill="none" stroke="green" d="M857.98,-521.8C857.98,-509.24 857.98,-492.06 857.98,-478.13"/>
<polygon fill="green" stroke="green" points="861.48,-477.81 857.98,-467.81 854.48,-477.81 861.48,-477.81"/>
<text text-anchor="middle" x="862.48" y="-492.8" font-family="Times,serif" font-size="14.00">L</text>
</g>
<!-- node0x607000000e90 -->
<g id="node26" class="node">
<title>node0x607000000e90</title>
<polygon fill="#c1ffc1" stroke="black" points="1067.33,-534.44 1109.98,-522 1152.64,-534.44 1152.6,-554.56 1067.37,-554.56 1067.33,-534.44"/>
<text text-anchor="middle" x="1109.98" y="-536.3" font-family="Times,serif" font-size="14.00">Linker</text>
</g>
<!-- node0x607000000aa0&#45;&gt;node0x607000000e90 -->
<g id="edge25" class="edge">
<title>node0x607000000aa0&#45;&gt;node0x607000000e90</title>
<path fill="none" stroke="red" d="M900.73,-540C943.81,-540 1010.4,-540 1056.85,-540"/>
<polygon fill="red" stroke="red" points="1057.03,-543.5 1067.03,-540 1057.03,-536.5 1057.03,-543.5"/>
<text text-anchor="middle" x="983.98" y="-546.8" font-family="Times,serif" font-size="14.00">R</text>
</g>
<!-- node0x607000000790 -->
<g id="node18" class="node">
<title>node0x607000000790</title>
<polygon fill="#c1ffc1" stroke="black" points="572.72,-360.44 698.98,-348 825.24,-360.44 825.12,-380.56 572.84,-380.56 572.72,-360.44"/>
<text text-anchor="middle" x="698.98" y="-362.3" font-family="Times,serif" font-size="14.00">CmpOperator&lt;Leq&gt;:6:32</text>
</g>
<!-- node0x607000000a30&#45;&gt;node0x607000000790 -->
<g id="edge17" class="edge">
<title>node0x607000000a30&#45;&gt;node0x607000000790</title>
<path fill="none" stroke="green" d="M833.14,-438.72C806.31,-424.37 763.37,-401.42 733.32,-385.36"/>
<polygon fill="green" stroke="green" points="734.91,-382.24 724.44,-380.61 731.61,-388.41 734.91,-382.24"/>
<text text-anchor="middle" x="793.48" y="-405.8" font-family="Times,serif" font-size="14.00">L</text>
</g>
<!-- node0x6070000009c0 -->
<g id="node21" class="node">
<title>node0x6070000009c0</title>
<polygon fill="#c1ffc1" stroke="black" points="843.33,-360.44 885.98,-348 928.64,-360.44 928.6,-380.56 843.37,-380.56 843.33,-360.44"/>
<text text-anchor="middle" x="885.98" y="-362.3" font-family="Times,serif" font-size="14.00">Linker</text>
</g>
<!-- node0x607000000a30&#45;&gt;node0x6070000009c0 -->
<g id="edge20" class="edge">
<title>node0x607000000a30&#45;&gt;node0x6070000009c0</title>
<path fill="none" stroke="red" d="M863.38,-435.61C867.6,-422.8 873.52,-404.82 878.25,-390.48"/>
<polygon fill="red" stroke="red" points="881.63,-391.4 881.43,-380.81 874.98,-389.21 881.63,-391.4"/>
<text text-anchor="middle" x="878.98" y="-405.8" font-family="Times,serif" font-size="14.00">R</text>
</g>
<!-- node0x6070000006b0 -->
<g id="node19" class="node">
<title>node0x6070000006b0</title>
<ellipse fill="aquamarine" stroke="black" cx="539.98" cy="-279" rx="67.69" ry="18"/>
<text text-anchor="middle" x="539.98" y="-275.3" font-family="Times,serif" font-size="14.00">ID&lt;value&gt;:6:26</text>
</g>
<!-- node0x607000000790&#45;&gt;node0x6070000006b0 -->
<g id="edge18" class="edge">
<title>node0x607000000790&#45;&gt;node0x6070000006b0</title>
<path fill="none" stroke="green" d="M672.01,-350.58C646.11,-336.73 606.74,-315.69 577.73,-300.18"/>
<polygon fill="green" stroke="green" points="579.17,-296.98 568.7,-295.35 575.87,-303.15 579.17,-296.98"/>
<text text-anchor="middle" x="634.48" y="-318.8" font-family="Times,serif" font-size="14.00">L</text>
</g>
<!-- node0x607000000720 -->
<g id="node20" class="node">
<title>node0x607000000720</title>
<ellipse fill="pink" stroke="black" cx="698.98" cy="-279" rx="73.39" ry="18"/>
<text text-anchor="middle" x="698.98" y="-275.3" font-family="Times,serif" font-size="14.00">Number&lt;1&gt;:6:35</text>
</g>
<!-- node0x607000000790&#45;&gt;node0x607000000720 -->
<g id="edge19" class="edge">
<title>node0x607000000790&#45;&gt;node0x607000000720</title>
<path fill="none" stroke="red" d="M698.98,-347.8C698.98,-336.16 698.98,-320.55 698.98,-307.24"/>
<polygon fill="red" stroke="red" points="702.48,-307.18 698.98,-297.18 695.48,-307.18 702.48,-307.18"/>
<text text-anchor="middle" x="703.98" y="-318.8" font-family="Times,serif" font-size="14.00">R</text>
</g>
<!-- node0x6070000008e0 -->
<g id="node22" class="node">
<title>node0x6070000008e0</title>
<polygon fill="#c1ffc1" stroke="black" points="989.33,-360.44 1031.98,-348 1074.64,-360.44 1074.6,-380.56 989.37,-380.56 989.33,-360.44"/>
<text text-anchor="middle" x="1031.98" y="-362.3" font-family="Times,serif" font-size="14.00">Linker</text>
</g>
<!-- node0x6070000009c0&#45;&gt;node0x6070000008e0 -->
<g id="edge21" class="edge">
<title>node0x6070000009c0&#45;&gt;node0x6070000008e0</title>
<path fill="none" stroke="green" d="M928.61,-366C944.43,-366 962.57,-366 979.19,-366"/>
<polygon fill="green" stroke="green" points="979.31,-369.5 989.31,-366 979.31,-362.5 979.31,-369.5"/>
<text text-anchor="middle" x="958.98" y="-372.8" font-family="Times,serif" font-size="14.00">L</text>
</g>
<!-- node0x607000000950 -->
<g id="node25" class="node">
<title>node0x607000000950</title>
<polygon fill="#c1ffc1" stroke="black" points="790.42,-273.44 880.98,-261 971.55,-273.44 971.46,-293.56 790.51,-293.56 790.42,-273.44"/>
<text text-anchor="middle" x="880.98" y="-275.3" font-family="Times,serif" font-size="14.00">None&lt;None&gt;:0:0</text>
</g>
<!-- node0x6070000009c0&#45;&gt;node0x607000000950 -->
<g id="edge24" class="edge">
<title>node0x6070000009c0&#45;&gt;node0x607000000950</title>
<path fill="none" stroke="red" d="M885,-348.21C884.25,-335.48 883.21,-317.84 882.38,-303.68"/>
<polygon fill="red" stroke="red" points="885.87,-303.45 881.79,-293.68 878.88,-303.86 885.87,-303.45"/>
<text text-anchor="middle" x="888.98" y="-318.8" font-family="Times,serif" font-size="14.00">R</text>
</g>
<!-- node0x607000000870 -->
<g id="node23" class="node">
<title>node0x607000000870</title>
<polygon fill="#c1ffc1" stroke="black" points="989.9,-273.44 1106.98,-261 1224.07,-273.44 1223.96,-293.56 990.01,-293.56 989.9,-273.44"/>
<text text-anchor="middle" x="1106.98" y="-275.3" font-family="Times,serif" font-size="14.00">ReturnStmt&lt;None&gt;:0:0</text>
</g>
<!-- node0x6070000008e0&#45;&gt;node0x607000000870 -->
<g id="edge22" class="edge">
<title>node0x6070000008e0&#45;&gt;node0x607000000870</title>
<path fill="none" stroke="green" d="M1044.03,-351.34C1055.95,-337.84 1074.36,-316.97 1088.2,-301.29"/>
<polygon fill="green" stroke="green" points="1090.97,-303.44 1094.96,-293.62 1085.72,-298.81 1090.97,-303.44"/>
<text text-anchor="middle" x="1078.48" y="-318.8" font-family="Times,serif" font-size="14.00">L</text>
</g>
<!-- node0x607000000800 -->
<g id="node24" class="node">
<title>node0x607000000800</title>
<ellipse fill="pink" stroke="black" cx="1106.98" cy="-192" rx="73.39" ry="18"/>
<text text-anchor="middle" x="1106.98" y="-188.3" font-family="Times,serif" font-size="14.00">Number&lt;1&gt;:7:39</text>
</g>
<!-- node0x607000000870&#45;&gt;node0x607000000800 -->
<g id="edge23" class="edge">
<title>node0x607000000870&#45;&gt;node0x607000000800</title>
<path fill="none" stroke="green" d="M1106.98,-260.8C1106.98,-249.16 1106.98,-233.55 1106.98,-220.24"/>
<polygon fill="green" stroke="green" points="1110.48,-220.18 1106.98,-210.18 1103.48,-220.18 1110.48,-220.18"/>
<text text-anchor="middle" x="1111.48" y="-231.8" font-family="Times,serif" font-size="14.00">L</text>
</g>
<!-- node0x607000000e20 -->
<g id="node27" class="node">
<title>node0x607000000e20</title>
<polygon fill="#c1ffc1" stroke="black" points="1123.9,-447.44 1240.98,-435 1358.07,-447.44 1357.96,-467.56 1124.01,-467.56 1123.9,-447.44"/>
<text text-anchor="middle" x="1240.98" y="-449.3" font-family="Times,serif" font-size="14.00">ReturnStmt&lt;None&gt;:0:0</text>
</g>
<!-- node0x607000000e90&#45;&gt;node0x607000000e20 -->
<g id="edge26" class="edge">
<title>node0x607000000e90&#45;&gt;node0x607000000e20</title>
<path fill="none" stroke="green" d="M1128.2,-527.18C1149.71,-513.23 1185.78,-489.82 1211.33,-473.24"/>
<polygon fill="green" stroke="green" points="1213.41,-476.07 1219.89,-467.69 1209.6,-470.19 1213.41,-476.07"/>
<text text-anchor="middle" x="1188.48" y="-492.8" font-family="Times,serif" font-size="14.00">L</text>
</g>
<!-- node0x607000000db0 -->
<g id="node28" class="node">
<title>node0x607000000db0</title>
<polygon fill="#c1ffc1" stroke="black" points="1279.86,-360.44 1400.98,-348 1522.1,-360.44 1521.99,-380.56 1279.98,-380.56 1279.86,-360.44"/>
<text text-anchor="middle" x="1400.98" y="-362.3" font-family="Times,serif" font-size="14.00">MaOperator&lt;Mul&gt;:9:51</text>
</g>
<!-- node0x607000000e20&#45;&gt;node0x607000000db0 -->
<g id="edge27" class="edge">
<title>node0x607000000e20&#45;&gt;node0x607000000db0</title>
<path fill="none" stroke="green" d="M1267.76,-437.77C1294.82,-423.4 1336.73,-401.14 1366.3,-385.42"/>
<polygon fill="green" stroke="green" points="1368.25,-388.35 1375.44,-380.57 1364.97,-382.17 1368.25,-388.35"/>
<text text-anchor="middle" x="1335.48" y="-405.8" font-family="Times,serif" font-size="14.00">L</text>
</g>
<!-- node0x607000000cd0 -->
<g id="node29" class="node">
<title>node0x607000000cd0</title>
<polygon fill="#c1ffc1" stroke="black" points="1242.95,-273.44 1400.98,-261 1559.01,-273.44 1558.87,-293.56 1243.1,-293.56 1242.95,-273.44"/>
<text text-anchor="middle" x="1400.98" y="-275.3" font-family="Times,serif" font-size="14.00">FuncCall&lt;Identifier&lt;fact&gt;&gt;:9:35</text>
</g>
<!-- node0x607000000db0&#45;&gt;node0x607000000cd0 -->
<g id="edge28" class="edge">
<title>node0x607000000db0&#45;&gt;node0x607000000cd0</title>
<path fill="none" stroke="green" d="M1400.98,-347.8C1400.98,-335.24 1400.98,-318.06 1400.98,-304.13"/>
<polygon fill="green" stroke="green" points="1404.48,-303.81 1400.98,-293.81 1397.48,-303.81 1404.48,-303.81"/>
<text text-anchor="middle" x="1405.48" y="-318.8" font-family="Times,serif" font-size="14.00">L</text>
</g>
<!-- node0x607000000d40 -->
<g id="node34" class="node">
<title>node0x607000000d40</title>
<ellipse fill="aquamarine" stroke="black" cx="1644.98" cy="-279" rx="67.69" ry="18"/>
<text text-anchor="middle" x="1644.98" y="-275.3" font-family="Times,serif" font-size="14.00">ID&lt;value&gt;:9:53</text>
</g>
<!-- node0x607000000db0&#45;&gt;node0x607000000d40 -->
<g id="edge33" class="edge">
<title>node0x607000000db0&#45;&gt;node0x607000000d40</title>
<path fill="none" stroke="red" d="M1438.84,-351.81C1481.08,-337.1 1549.56,-313.24 1595.88,-297.1"/>
<polygon fill="red" stroke="red" points="1597.13,-300.38 1605.42,-293.78 1594.82,-293.77 1597.13,-300.38"/>
<text text-anchor="middle" x="1542.98" y="-318.8" font-family="Times,serif" font-size="14.00">R</text>
</g>
<!-- node0x607000000c60 -->
<g id="node30" class="node">
<title>node0x607000000c60</title>
<polygon fill="#c1ffc1" stroke="black" points="1358.33,-186.44 1400.98,-174 1443.64,-186.44 1443.6,-206.56 1358.37,-206.56 1358.33,-186.44"/>
<text text-anchor="middle" x="1400.98" y="-188.3" font-family="Times,serif" font-size="14.00">Linker</text>
</g>
<!-- node0x607000000cd0&#45;&gt;node0x607000000c60 -->
<g id="edge29" class="edge">
<title>node0x607000000cd0&#45;&gt;node0x607000000c60</title>
<path fill="none" stroke="green" d="M1400.98,-260.8C1400.98,-248.24 1400.98,-231.06 1400.98,-217.13"/>
<polygon fill="green" stroke="green" points="1404.48,-216.81 1400.98,-206.81 1397.48,-216.81 1404.48,-216.81"/>
<text text-anchor="middle" x="1405.48" y="-231.8" font-family="Times,serif" font-size="14.00">L</text>
</g>
<!-- node0x607000000bf0 -->
<g id="node31" class="node">
<title>node0x607000000bf0</title>
<polygon fill="#c1ffc1" stroke="black" points="1270.08,-99.44 1400.98,-87 1531.88,-99.44 1531.76,-119.56 1270.21,-119.56 1270.08,-99.44"/>
<text text-anchor="middle" x="1400.98" y="-101.3" font-family="Times,serif" font-size="14.00">MaOperator&lt;Minus&gt;:9:46</text>
</g>
<!-- node0x607000000c60&#45;&gt;node0x607000000bf0 -->
<g id="edge30" class="edge">
<title>node0x607000000c60&#45;&gt;node0x607000000bf0</title>
<path fill="none" stroke="green" d="M1400.98,-173.8C1400.98,-161.24 1400.98,-144.06 1400.98,-130.13"/>
<polygon fill="green" stroke="green" points="1404.48,-129.81 1400.98,-119.81 1397.48,-129.81 1404.48,-129.81"/>
<text text-anchor="middle" x="1405.48" y="-144.8" font-family="Times,serif" font-size="14.00">L</text>
</g>
<!-- node0x607000000b10 -->
<g id="node32" class="node">
<title>node0x607000000b10</title>
<ellipse fill="aquamarine" stroke="black" cx="1321.98" cy="-18" rx="67.69" ry="18"/>
<text text-anchor="middle" x="1321.98" y="-14.3" font-family="Times,serif" font-size="14.00">ID&lt;value&gt;:9:40</text>
</g>
<!-- node0x607000000bf0&#45;&gt;node0x607000000b10 -->
<g id="edge31" class="edge">
<title>node0x607000000bf0&#45;&gt;node0x607000000b10</title>
<path fill="none" stroke="green" d="M1386.12,-88.01C1374.43,-75.43 1357.95,-57.7 1344.62,-43.35"/>
<polygon fill="green" stroke="green" points="1346.96,-40.73 1337.59,-35.79 1341.83,-45.5 1346.96,-40.73"/>
<text text-anchor="middle" x="1371.48" y="-57.8" font-family="Times,serif" font-size="14.00">L</text>
</g>
<!-- node0x607000000b80 -->
<g id="node33" class="node">
<title>node0x607000000b80</title>
<ellipse fill="pink" stroke="black" cx="1480.98" cy="-18" rx="73.39" ry="18"/>
<text text-anchor="middle" x="1480.98" y="-14.3" font-family="Times,serif" font-size="14.00">Number&lt;1&gt;:9:48</text>
</g>
<!-- node0x607000000bf0&#45;&gt;node0x607000000b80 -->
<g id="edge32" class="edge">
<title>node0x607000000bf0&#45;&gt;node0x607000000b80</title>
<path fill="none" stroke="red" d="M1416.03,-88.01C1427.87,-75.43 1444.56,-57.7 1458.06,-43.35"/>
<polygon fill="red" stroke="red" points="1460.88,-45.47 1465.18,-35.79 1455.78,-40.67 1460.88,-45.47"/>
<text text-anchor="middle" x="1450.98" y="-57.8" font-family="Times,serif" font-size="14.00">R</text>
</g>
</g>
</svg>
