<?xml version="1.0" encoding="UTF-8" standalone="no"?>
<!DOCTYPE svg PUBLIC "-//W3C//DTD SVG 1.1//EN"
 "http://www.w3.org/Graphics/SVG/1.1/DTD/svg11.dtd">
<!-- Generated by graphviz version 2.44.1 (20200629.0846)
 -->
<!-- Title: structure Pages: 1 -->
<svg width="389pt" height="476pt"
 viewBox="0.00 0.00 388.94 476.00" xmlns="http://www.w3.org/2000/svg" xmlns:xlink="http://www.w3.org/1999/xlink">
<g id="graph0" class="graph" transform="scale(1 1) rotate(0) translate(4 472)">
<title>structure</title>
<polygon fill="white" stroke="transparent" points="-4,4 -4,-472 384.94,-472 384.94,4 -4,4"/>
<!-- node0x7fe425c05e00 -->
<g id="node1" class="node">
<title>node0x7fe425c05e00</title>
<polygon fill="#c1ffc1" stroke="black" points="197.04,-444.44 239.69,-432 282.35,-444.44 282.31,-464.56 197.08,-464.56 197.04,-444.44"/>
<text text-anchor="middle" x="239.69" y="-446.3" font-family="Times,serif" font-size="14.00">Linker</text>
</g>
<!-- node0x7fe425c05db0 -->
<g id="node2" class="node">
<title>node0x7fe425c05db0</title>
<polygon fill="#c1ffc1" stroke="black" points="145.71,-372.44 239.69,-360 333.68,-372.44 333.6,-392.56 145.79,-392.56 145.71,-372.44"/>
<text text-anchor="middle" x="239.69" y="-374.3" font-family="Times,serif" font-size="14.00">Statement&lt;None&gt;</text>
</g>
<!-- node0x7fe425c05e00&#45;&gt;node0x7fe425c05db0 -->
<g id="edge1" class="edge">
<title>node0x7fe425c05e00&#45;&gt;node0x7fe425c05db0</title>
<path fill="none" stroke="black" d="M239.69,-431.7C239.69,-422.99 239.69,-412.3 239.69,-402.83"/>
<polygon fill="black" stroke="black" points="243.19,-402.82 239.69,-392.82 236.19,-402.82 243.19,-402.82"/>
</g>
<!-- node0x7fe425c05b30 -->
<g id="node3" class="node">
<title>node0x7fe425c05b30</title>
<polygon fill="#c1ffc1" stroke="black" points="123.22,-300.44 239.69,-288 356.17,-300.44 356.06,-320.56 123.32,-320.56 123.22,-300.44"/>
<text text-anchor="middle" x="239.69" y="-302.3" font-family="Times,serif" font-size="14.00">VarDef&lt;Identifier&lt;y&gt;&gt;</text>
</g>
<!-- node0x7fe425c05db0&#45;&gt;node0x7fe425c05b30 -->
<g id="edge2" class="edge">
<title>node0x7fe425c05db0&#45;&gt;node0x7fe425c05b30</title>
<path fill="none" stroke="black" d="M239.69,-359.7C239.69,-350.99 239.69,-340.3 239.69,-330.83"/>
<polygon fill="black" stroke="black" points="243.19,-330.82 239.69,-320.82 236.19,-330.82 243.19,-330.82"/>
</g>
<!-- node0x7fe425c05d60 -->
<g id="node4" class="node">
<title>node0x7fe425c05d60</title>
<polygon fill="#c1ffc1" stroke="black" points="131.28,-228.44 239.69,-216 348.11,-228.44 348,-248.56 131.38,-248.56 131.28,-228.44"/>
<text text-anchor="middle" x="239.69" y="-230.3" font-family="Times,serif" font-size="14.00">MaOperator&lt;Minus&gt;</text>
</g>
<!-- node0x7fe425c05b30&#45;&gt;node0x7fe425c05d60 -->
<g id="edge3" class="edge">
<title>node0x7fe425c05b30&#45;&gt;node0x7fe425c05d60</title>
<path fill="none" stroke="black" d="M239.69,-287.7C239.69,-278.99 239.69,-268.3 239.69,-258.83"/>
<polygon fill="black" stroke="black" points="243.19,-258.82 239.69,-248.82 236.19,-258.82 243.19,-258.82"/>
</g>
<!-- node0x7fe425c05cc0 -->
<g id="node5" class="node">
<title>node0x7fe425c05cc0</title>
<polygon fill="#c1ffc1" stroke="black" points="55.06,-156.44 153.69,-144 252.32,-156.44 252.23,-176.56 55.16,-176.56 55.06,-156.44"/>
<text text-anchor="middle" x="153.69" y="-158.3" font-family="Times,serif" font-size="14.00">MaOperator&lt;Plus&gt;</text>
</g>
<!-- node0x7fe425c05d60&#45;&gt;node0x7fe425c05cc0 -->
<g id="edge4" class="edge">
<title>node0x7fe425c05d60&#45;&gt;node0x7fe425c05cc0</title>
<path fill="none" stroke="black" d="M221.03,-217.81C208.6,-207.69 192.11,-194.27 178.56,-183.24"/>
<polygon fill="black" stroke="black" points="180.53,-180.33 170.57,-176.74 176.12,-185.76 180.53,-180.33"/>
</g>
<!-- node0x7fe425c05d10 -->
<g id="node10" class="node">
<title>node0x7fe425c05d10</title>
<ellipse fill="pink" stroke="black" cx="325.69" cy="-162" rx="55.49" ry="18"/>
<text text-anchor="middle" x="325.69" y="-158.3" font-family="Times,serif" font-size="14.00">Number&lt;6&gt;</text>
</g>
<!-- node0x7fe425c05d60&#45;&gt;node0x7fe425c05d10 -->
<g id="edge9" class="edge">
<title>node0x7fe425c05d60&#45;&gt;node0x7fe425c05d10</title>
<path fill="none" stroke="black" d="M258.36,-217.81C270.06,-208.29 285.34,-195.85 298.39,-185.22"/>
<polygon fill="black" stroke="black" points="300.63,-187.92 306.17,-178.89 296.21,-182.49 300.63,-187.92"/>
</g>
<!-- node0x7fe425c05b80 -->
<g id="node6" class="node">
<title>node0x7fe425c05b80</title>
<ellipse fill="pink" stroke="black" cx="63.69" cy="-90" rx="63.89" ry="18"/>
<text text-anchor="middle" x="63.69" y="-86.3" font-family="Times,serif" font-size="14.00">Number&lt;123&gt;</text>
</g>
<!-- node0x7fe425c05cc0&#45;&gt;node0x7fe425c05b80 -->
<g id="edge5" class="edge">
<title>node0x7fe425c05cc0&#45;&gt;node0x7fe425c05b80</title>
<path fill="none" stroke="black" d="M134.61,-146.15C122.39,-136.65 106.3,-124.14 92.53,-113.43"/>
<polygon fill="black" stroke="black" points="94.36,-110.42 84.32,-107.04 90.07,-115.95 94.36,-110.42"/>
</g>
<!-- node0x7fe425c05c70 -->
<g id="node7" class="node">
<title>node0x7fe425c05c70</title>
<polygon fill="#c1ffc1" stroke="black" points="146.06,-84.44 244.69,-72 343.32,-84.44 343.23,-104.56 146.16,-104.56 146.06,-84.44"/>
<text text-anchor="middle" x="244.69" y="-86.3" font-family="Times,serif" font-size="14.00">MaOperator&lt;Mul&gt;</text>
</g>
<!-- node0x7fe425c05cc0&#45;&gt;node0x7fe425c05c70 -->
<g id="edge6" class="edge">
<title>node0x7fe425c05cc0&#45;&gt;node0x7fe425c05c70</title>
<path fill="none" stroke="black" d="M172.99,-146.15C186.34,-135.89 204.25,-122.11 218.83,-110.9"/>
<polygon fill="black" stroke="black" points="221.17,-113.51 226.97,-104.64 216.91,-107.96 221.17,-113.51"/>
</g>
<!-- node0x7fe425c05bd0 -->
<g id="node8" class="node">
<title>node0x7fe425c05bd0</title>
<ellipse fill="pink" stroke="black" cx="175.69" cy="-18" rx="59.59" ry="18"/>
<text text-anchor="middle" x="175.69" y="-14.3" font-family="Times,serif" font-size="14.00">Number&lt;23&gt;</text>
</g>
<!-- node0x7fe425c05c70&#45;&gt;node0x7fe425c05bd0 -->
<g id="edge7" class="edge">
<title>node0x7fe425c05c70&#45;&gt;node0x7fe425c05bd0</title>
<path fill="none" stroke="black" d="M229.72,-73.81C220.79,-64.75 209.26,-53.05 199.14,-42.79"/>
<polygon fill="black" stroke="black" points="201.6,-40.29 192.08,-35.63 196.61,-45.21 201.6,-40.29"/>
</g>
<!-- node0x7fe425c05c20 -->
<g id="node9" class="node">
<title>node0x7fe425c05c20</title>
<ellipse fill="pink" stroke="black" cx="313.69" cy="-18" rx="59.59" ry="18"/>
<text text-anchor="middle" x="313.69" y="-14.3" font-family="Times,serif" font-size="14.00">Number&lt;12&gt;</text>
</g>
<!-- node0x7fe425c05c70&#45;&gt;node0x7fe425c05c20 -->
<g id="edge8" class="edge">
<title>node0x7fe425c05c70&#45;&gt;node0x7fe425c05c20</title>
<path fill="none" stroke="black" d="M259.67,-73.81C268.6,-64.75 280.13,-53.05 290.25,-42.79"/>
<polygon fill="black" stroke="black" points="292.78,-45.21 297.3,-35.63 287.79,-40.29 292.78,-45.21"/>
</g>
</g>
</svg>
