<?xml version="1.0" encoding="UTF-8" standalone="no"?>
<!DOCTYPE svg PUBLIC "-//W3C//DTD SVG 1.1//EN"
 "http://www.w3.org/Graphics/SVG/1.1/DTD/svg11.dtd">
<!-- Generated by graphviz version 2.44.1 (20200629.0846)
 -->
<!-- Title: structure Pages: 1 -->
<svg width="1088pt" height="1088pt"
 viewBox="0.00 0.00 1087.78 1088.00" xmlns="http://www.w3.org/2000/svg" xmlns:xlink="http://www.w3.org/1999/xlink">
<g id="graph0" class="graph" transform="scale(1 1) rotate(0) translate(4 1084)">
<title>structure</title>
<polygon fill="white" stroke="transparent" points="-4,4 -4,-1084 1083.78,-1084 1083.78,4 -4,4"/>
<!-- node0x7fa807a04a40 -->
<g id="node1" class="node">
<title>node0x7fa807a04a40</title>
<polygon fill="#c1ffc1" stroke="black" points="340.12,-1056.44 382.78,-1044 425.44,-1056.44 425.4,-1076.56 340.16,-1076.56 340.12,-1056.44"/>
<text text-anchor="middle" x="382.78" y="-1058.3" font-family="Times,serif" font-size="14.00">Linker</text>
</g>
<!-- node0x7fa807a049f0 -->
<g id="node2" class="node">
<title>node0x7fa807a049f0</title>
<polygon fill="#c1ffc1" stroke="black" points="61.45,-969.44 255.78,-957 450.11,-969.44 449.93,-989.56 61.63,-989.56 61.45,-969.44"/>
<text text-anchor="middle" x="255.78" y="-971.3" font-family="Times,serif" font-size="14.00">FuncDecl&lt;Identifier&lt;giveYouUp&gt;&gt;:0:13</text>
</g>
<!-- node0x7fa807a04a40&#45;&gt;node0x7fa807a049f0 -->
<g id="edge1" class="edge">
<title>node0x7fa807a04a40&#45;&gt;node0x7fa807a049f0</title>
<path fill="none" stroke="green" d="M364.85,-1049C344.03,-1035.06 309.38,-1011.87 284.72,-995.37"/>
<polygon fill="green" stroke="green" points="286.39,-992.28 276.14,-989.62 282.5,-998.09 286.39,-992.28"/>
<text text-anchor="middle" x="332.28" y="-1014.8" font-family="Times,serif" font-size="14.00">L</text>
</g>
<!-- node0x7fa807a05120 -->
<g id="node9" class="node">
<title>node0x7fa807a05120</title>
<polygon fill="#c1ffc1" stroke="black" points="468.12,-969.44 510.78,-957 553.44,-969.44 553.4,-989.56 468.16,-989.56 468.12,-969.44"/>
<text text-anchor="middle" x="510.78" y="-971.3" font-family="Times,serif" font-size="14.00">Linker</text>
</g>
<!-- node0x7fa807a04a40&#45;&gt;node0x7fa807a05120 -->
<g id="edge8" class="edge">
<title>node0x7fa807a04a40&#45;&gt;node0x7fa807a05120</title>
<path fill="none" stroke="red" d="M400.58,-1049.18C421.59,-1035.23 456.84,-1011.82 481.81,-995.24"/>
<polygon fill="red" stroke="red" points="483.78,-998.13 490.17,-989.69 479.9,-992.3 483.78,-998.13"/>
<text text-anchor="middle" x="459.78" y="-1014.8" font-family="Times,serif" font-size="14.00">R</text>
</g>
<!-- node0x7fa807a04380 -->
<g id="node3" class="node">
<title>node0x7fa807a04380</title>
<polygon fill="#c1ffc1" stroke="black" points="0.22,-882.44 90.78,-870 181.34,-882.44 181.26,-902.56 0.3,-902.56 0.22,-882.44"/>
<text text-anchor="middle" x="90.78" y="-884.3" font-family="Times,serif" font-size="14.00">None&lt;None&gt;:0:0</text>
</g>
<!-- node0x7fa807a049f0&#45;&gt;node0x7fa807a04380 -->
<g id="edge2" class="edge">
<title>node0x7fa807a049f0&#45;&gt;node0x7fa807a04380</title>
<path fill="none" stroke="green" d="M226.28,-958.8C198.35,-944.41 156.35,-922.78 126.52,-907.41"/>
<polygon fill="green" stroke="green" points="127.79,-904.13 117.3,-902.66 124.59,-910.35 127.79,-904.13"/>
<text text-anchor="middle" x="188.28" y="-927.8" font-family="Times,serif" font-size="14.00">L</text>
</g>
<!-- node0x7fa807a049a0 -->
<g id="node4" class="node">
<title>node0x7fa807a049a0</title>
<polygon fill="yellow" stroke="black" points="199.38,-882.44 258.78,-870 318.18,-882.44 318.12,-902.56 199.44,-902.56 199.38,-882.44"/>
<text text-anchor="middle" x="258.78" y="-884.3" font-family="Times,serif" font-size="14.00">Linker(ns)</text>
</g>
<!-- node0x7fa807a049f0&#45;&gt;node0x7fa807a049a0 -->
<g id="edge3" class="edge">
<title>node0x7fa807a049f0&#45;&gt;node0x7fa807a049a0</title>
<path fill="none" stroke="red" d="M256.39,-956.8C256.83,-944.24 257.44,-927.06 257.93,-913.13"/>
<polygon fill="red" stroke="red" points="261.44,-912.93 258.29,-902.81 254.44,-912.68 261.44,-912.93"/>
<text text-anchor="middle" x="262.78" y="-927.8" font-family="Times,serif" font-size="14.00">R</text>
</g>
<!-- node0x7fa807a04950 -->
<g id="node5" class="node">
<title>node0x7fa807a04950</title>
<polygon fill="#c1ffc1" stroke="black" points="170.54,-795.44 258.78,-783 347.02,-795.44 346.94,-815.56 170.62,-815.56 170.54,-795.44"/>
<text text-anchor="middle" x="258.78" y="-797.3" font-family="Times,serif" font-size="14.00">Print&lt;None&gt;:0:0</text>
</g>
<!-- node0x7fa807a049a0&#45;&gt;node0x7fa807a04950 -->
<g id="edge4" class="edge">
<title>node0x7fa807a049a0&#45;&gt;node0x7fa807a04950</title>
<path fill="none" stroke="green" d="M258.78,-869.8C258.78,-857.24 258.78,-840.06 258.78,-826.13"/>
<polygon fill="green" stroke="green" points="262.28,-825.81 258.78,-815.81 255.28,-825.81 262.28,-825.81"/>
<text text-anchor="middle" x="263.28" y="-840.8" font-family="Times,serif" font-size="14.00">L</text>
</g>
<!-- node0x7fa807a04900 -->
<g id="node6" class="node">
<title>node0x7fa807a04900</title>
<polygon fill="#c1ffc1" stroke="black" points="100.75,-708.44 258.78,-696 416.81,-708.44 416.66,-728.56 100.9,-728.56 100.75,-708.44"/>
<text text-anchor="middle" x="258.78" y="-710.3" font-family="Times,serif" font-size="14.00">FuncCall&lt;Identifier&lt;fact&gt;&gt;:1:14</text>
</g>
<!-- node0x7fa807a04950&#45;&gt;node0x7fa807a04900 -->
<g id="edge5" class="edge">
<title>node0x7fa807a04950&#45;&gt;node0x7fa807a04900</title>
<path fill="none" stroke="green" d="M258.78,-782.8C258.78,-770.24 258.78,-753.06 258.78,-739.13"/>
<polygon fill="green" stroke="green" points="262.28,-738.81 258.78,-728.81 255.28,-738.81 262.28,-738.81"/>
<text text-anchor="middle" x="263.28" y="-753.8" font-family="Times,serif" font-size="14.00">L</text>
</g>
<!-- node0x7fa807a048b0 -->
<g id="node7" class="node">
<title>node0x7fa807a048b0</title>
<polygon fill="#c1ffc1" stroke="black" points="216.12,-621.44 258.78,-609 301.44,-621.44 301.4,-641.56 216.16,-641.56 216.12,-621.44"/>
<text text-anchor="middle" x="258.78" y="-623.3" font-family="Times,serif" font-size="14.00">Linker</text>
</g>
<!-- node0x7fa807a04900&#45;&gt;node0x7fa807a048b0 -->
<g id="edge6" class="edge">
<title>node0x7fa807a04900&#45;&gt;node0x7fa807a048b0</title>
<path fill="none" stroke="green" d="M258.78,-695.8C258.78,-683.24 258.78,-666.06 258.78,-652.13"/>
<polygon fill="green" stroke="green" points="262.28,-651.81 258.78,-641.81 255.28,-651.81 262.28,-651.81"/>
<text text-anchor="middle" x="263.28" y="-666.8" font-family="Times,serif" font-size="14.00">L</text>
</g>
<!-- node0x7fa807a04860 -->
<g id="node8" class="node">
<title>node0x7fa807a04860</title>
<polygon fill="#c1ffc1" stroke="black" points="164.18,-534.44 258.78,-522 353.38,-534.44 353.29,-554.56 164.27,-554.56 164.18,-534.44"/>
<text text-anchor="middle" x="258.78" y="-536.3" font-family="Times,serif" font-size="14.00">Input&lt;Input&gt;:1:19</text>
</g>
<!-- node0x7fa807a048b0&#45;&gt;node0x7fa807a04860 -->
<g id="edge7" class="edge">
<title>node0x7fa807a048b0&#45;&gt;node0x7fa807a04860</title>
<path fill="none" stroke="green" d="M258.78,-608.8C258.78,-596.24 258.78,-579.06 258.78,-565.13"/>
<polygon fill="green" stroke="green" points="262.28,-564.81 258.78,-554.81 255.28,-564.81 262.28,-564.81"/>
<text text-anchor="middle" x="263.28" y="-579.8" font-family="Times,serif" font-size="14.00">L</text>
</g>
<!-- node0x7fa807a050d0 -->
<g id="node10" class="node">
<title>node0x7fa807a050d0</title>
<polygon fill="#c1ffc1" stroke="black" points="349.93,-882.44 510.78,-870 671.63,-882.44 671.48,-902.56 350.08,-902.56 349.93,-882.44"/>
<text text-anchor="middle" x="510.78" y="-884.3" font-family="Times,serif" font-size="14.00">FuncDecl&lt;Identifier&lt;fact&gt;&gt;:4:14</text>
</g>
<!-- node0x7fa807a05120&#45;&gt;node0x7fa807a050d0 -->
<g id="edge9" class="edge">
<title>node0x7fa807a05120&#45;&gt;node0x7fa807a050d0</title>
<path fill="none" stroke="green" d="M510.78,-956.8C510.78,-944.24 510.78,-927.06 510.78,-913.13"/>
<polygon fill="green" stroke="green" points="514.28,-912.81 510.78,-902.81 507.28,-912.81 514.28,-912.81"/>
<text text-anchor="middle" x="515.28" y="-927.8" font-family="Times,serif" font-size="14.00">L</text>
</g>
<!-- node0x7fa807a04a90 -->
<g id="node11" class="node">
<title>node0x7fa807a04a90</title>
<polygon fill="#c1ffc1" stroke="black" points="467.12,-795.44 509.78,-783 552.44,-795.44 552.4,-815.56 467.16,-815.56 467.12,-795.44"/>
<text text-anchor="middle" x="509.78" y="-797.3" font-family="Times,serif" font-size="14.00">Linker</text>
</g>
<!-- node0x7fa807a050d0&#45;&gt;node0x7fa807a04a90 -->
<g id="edge10" class="edge">
<title>node0x7fa807a050d0&#45;&gt;node0x7fa807a04a90</title>
<path fill="none" stroke="green" d="M510.58,-869.8C510.43,-857.24 510.23,-840.06 510.07,-826.13"/>
<polygon fill="green" stroke="green" points="513.56,-825.77 509.94,-815.81 506.56,-825.85 513.56,-825.77"/>
<text text-anchor="middle" x="515.28" y="-840.8" font-family="Times,serif" font-size="14.00">L</text>
</g>
<!-- node0x7fa807a05080 -->
<g id="node13" class="node">
<title>node0x7fa807a05080</title>
<polygon fill="yellow" stroke="black" points="591.38,-795.44 650.78,-783 710.18,-795.44 710.12,-815.56 591.44,-815.56 591.38,-795.44"/>
<text text-anchor="middle" x="650.78" y="-797.3" font-family="Times,serif" font-size="14.00">Linker(ns)</text>
</g>
<!-- node0x7fa807a050d0&#45;&gt;node0x7fa807a05080 -->
<g id="edge12" class="edge">
<title>node0x7fa807a050d0&#45;&gt;node0x7fa807a05080</title>
<path fill="none" stroke="red" d="M535.81,-871.8C559.21,-857.6 594.23,-836.34 619.46,-821.01"/>
<polygon fill="red" stroke="red" points="621.55,-823.84 628.28,-815.66 617.92,-817.86 621.55,-823.84"/>
<text text-anchor="middle" x="594.78" y="-840.8" font-family="Times,serif" font-size="14.00">R</text>
</g>
<!-- node0x7fa807a04ae0 -->
<g id="node12" class="node">
<title>node0x7fa807a04ae0</title>
<ellipse fill="aquamarine" stroke="black" cx="502.78" cy="-714" rx="64.99" ry="18"/>
<text text-anchor="middle" x="502.78" y="-710.3" font-family="Times,serif" font-size="14.00">ID&lt;num&gt;:4:19</text>
</g>
<!-- node0x7fa807a04a90&#45;&gt;node0x7fa807a04ae0 -->
<g id="edge11" class="edge">
<title>node0x7fa807a04a90&#45;&gt;node0x7fa807a04ae0</title>
<path fill="none" stroke="green" d="M508.4,-783.21C507.44,-771.52 506.13,-755.69 505.02,-742.22"/>
<polygon fill="green" stroke="green" points="508.49,-741.73 504.19,-732.05 501.52,-742.3 508.49,-741.73"/>
<text text-anchor="middle" x="511.28" y="-753.8" font-family="Times,serif" font-size="14.00">L</text>
</g>
<!-- node0x7fa807a05030 -->
<g id="node14" class="node">
<title>node0x7fa807a05030</title>
<polygon fill="#c1ffc1" stroke="black" points="585.82,-708.44 664.78,-696 743.74,-708.44 743.67,-728.56 585.89,-728.56 585.82,-708.44"/>
<text text-anchor="middle" x="664.78" y="-710.3" font-family="Times,serif" font-size="14.00">IfStmt&lt;If&gt;:5:6</text>
</g>
<!-- node0x7fa807a05080&#45;&gt;node0x7fa807a05030 -->
<g id="edge13" class="edge">
<title>node0x7fa807a05080&#45;&gt;node0x7fa807a05030</title>
<path fill="none" stroke="green" d="M653.55,-783.21C655.64,-770.48 658.55,-752.84 660.88,-738.68"/>
<polygon fill="green" stroke="green" points="664.36,-739.11 662.53,-728.68 657.45,-737.97 664.36,-739.11"/>
<text text-anchor="middle" x="663.28" y="-753.8" font-family="Times,serif" font-size="14.00">L</text>
</g>
<!-- node0x7fa807a04bd0 -->
<g id="node15" class="node">
<title>node0x7fa807a04bd0</title>
<polygon fill="#c1ffc1" stroke="black" points="469.52,-621.44 595.78,-609 722.04,-621.44 721.92,-641.56 469.64,-641.56 469.52,-621.44"/>
<text text-anchor="middle" x="595.78" y="-623.3" font-family="Times,serif" font-size="14.00">CmpOperator&lt;Leq&gt;:5:30</text>
</g>
<!-- node0x7fa807a05030&#45;&gt;node0x7fa807a04bd0 -->
<g id="edge14" class="edge">
<title>node0x7fa807a05030&#45;&gt;node0x7fa807a04bd0</title>
<path fill="none" stroke="green" d="M652.45,-697.8C641.52,-684.35 625.46,-664.56 613.22,-649.48"/>
<polygon fill="green" stroke="green" points="615.89,-647.22 606.87,-641.66 610.46,-651.63 615.89,-647.22"/>
<text text-anchor="middle" x="639.28" y="-666.8" font-family="Times,serif" font-size="14.00">L</text>
</g>
<!-- node0x7fa807a04fe0 -->
<g id="node18" class="node">
<title>node0x7fa807a04fe0</title>
<polygon fill="#c1ffc1" stroke="black" points="740.12,-621.44 782.78,-609 825.44,-621.44 825.4,-641.56 740.16,-641.56 740.12,-621.44"/>
<text text-anchor="middle" x="782.78" y="-623.3" font-family="Times,serif" font-size="14.00">Linker</text>
</g>
<!-- node0x7fa807a05030&#45;&gt;node0x7fa807a04fe0 -->
<g id="edge17" class="edge">
<title>node0x7fa807a05030&#45;&gt;node0x7fa807a04fe0</title>
<path fill="none" stroke="red" d="M684.27,-698.96C703.68,-684.98 733.67,-663.38 755.46,-647.68"/>
<polygon fill="red" stroke="red" points="757.59,-650.46 763.66,-641.77 753.5,-644.78 757.59,-650.46"/>
<text text-anchor="middle" x="736.78" y="-666.8" font-family="Times,serif" font-size="14.00">R</text>
</g>
<!-- node0x7fa807a04b30 -->
<g id="node16" class="node">
<title>node0x7fa807a04b30</title>
<ellipse fill="aquamarine" stroke="black" cx="457.78" cy="-540" rx="64.99" ry="18"/>
<text text-anchor="middle" x="457.78" y="-536.3" font-family="Times,serif" font-size="14.00">ID&lt;num&gt;:5:26</text>
</g>
<!-- node0x7fa807a04bd0&#45;&gt;node0x7fa807a04b30 -->
<g id="edge15" class="edge">
<title>node0x7fa807a04bd0&#45;&gt;node0x7fa807a04b30</title>
<path fill="none" stroke="green" d="M571.74,-611.19C549.73,-597.64 516.92,-577.42 492.14,-562.16"/>
<polygon fill="green" stroke="green" points="493.76,-559.05 483.41,-556.79 490.09,-565.01 493.76,-559.05"/>
<text text-anchor="middle" x="540.28" y="-579.8" font-family="Times,serif" font-size="14.00">L</text>
</g>
<!-- node0x7fa807a04b80 -->
<g id="node17" class="node">
<title>node0x7fa807a04b80</title>
<ellipse fill="pink" stroke="black" cx="613.78" cy="-540" rx="73.39" ry="18"/>
<text text-anchor="middle" x="613.78" y="-536.3" font-family="Times,serif" font-size="14.00">Number&lt;1&gt;:5:33</text>
</g>
<!-- node0x7fa807a04bd0&#45;&gt;node0x7fa807a04b80 -->
<g id="edge16" class="edge">
<title>node0x7fa807a04bd0&#45;&gt;node0x7fa807a04b80</title>
<path fill="none" stroke="red" d="M599.34,-609.21C601.81,-597.52 605.16,-581.69 608.02,-568.22"/>
<polygon fill="red" stroke="red" points="611.52,-568.56 610.17,-558.05 604.67,-567.11 611.52,-568.56"/>
<text text-anchor="middle" x="611.78" y="-579.8" font-family="Times,serif" font-size="14.00">R</text>
</g>
<!-- node0x7fa807a04cc0 -->
<g id="node19" class="node">
<title>node0x7fa807a04cc0</title>
<polygon fill="yellow" stroke="black" points="706.38,-534.44 765.78,-522 825.18,-534.44 825.12,-554.56 706.44,-554.56 706.38,-534.44"/>
<text text-anchor="middle" x="765.78" y="-536.3" font-family="Times,serif" font-size="14.00">Linker(ns)</text>
</g>
<!-- node0x7fa807a04fe0&#45;&gt;node0x7fa807a04cc0 -->
<g id="edge18" class="edge">
<title>node0x7fa807a04fe0&#45;&gt;node0x7fa807a04cc0</title>
<path fill="none" stroke="green" d="M775.55,-611.01C772.96,-604.93 770.3,-597.77 768.78,-591 766.91,-582.62 766.03,-573.27 765.66,-564.94"/>
<polygon fill="green" stroke="green" points="769.16,-564.66 765.43,-554.75 762.16,-564.82 769.16,-564.66"/>
<text text-anchor="middle" x="773.28" y="-579.8" font-family="Times,serif" font-size="14.00">L</text>
</g>
<!-- node0x7fa807a04f90 -->
<g id="node22" class="node">
<title>node0x7fa807a04f90</title>
<polygon fill="yellow" stroke="black" points="872.38,-534.44 931.78,-522 991.18,-534.44 991.12,-554.56 872.44,-554.56 872.38,-534.44"/>
<text text-anchor="middle" x="931.78" y="-536.3" font-family="Times,serif" font-size="14.00">Linker(ns)</text>
</g>
<!-- node0x7fa807a04fe0&#45;&gt;node0x7fa807a04f90 -->
<g id="edge21" class="edge">
<title>node0x7fa807a04fe0&#45;&gt;node0x7fa807a04f90</title>
<path fill="none" stroke="red" d="M802.57,-614.71C827.25,-600.63 869.78,-576.37 899.27,-559.55"/>
<polygon fill="red" stroke="red" points="901.02,-562.58 907.97,-554.58 897.55,-556.5 901.02,-562.58"/>
<text text-anchor="middle" x="871.78" y="-579.8" font-family="Times,serif" font-size="14.00">R</text>
</g>
<!-- node0x7fa807a04c70 -->
<g id="node20" class="node">
<title>node0x7fa807a04c70</title>
<polygon fill="#c1ffc1" stroke="black" points="576.7,-447.44 693.78,-435 810.87,-447.44 810.76,-467.56 576.81,-467.56 576.7,-447.44"/>
<text text-anchor="middle" x="693.78" y="-449.3" font-family="Times,serif" font-size="14.00">ReturnStmt&lt;None&gt;:0:0</text>
</g>
<!-- node0x7fa807a04cc0&#45;&gt;node0x7fa807a04c70 -->
<g id="edge19" class="edge">
<title>node0x7fa807a04cc0&#45;&gt;node0x7fa807a04c70</title>
<path fill="none" stroke="green" d="M753.24,-524.19C741.89,-510.79 725.02,-490.88 712.14,-475.68"/>
<polygon fill="green" stroke="green" points="714.6,-473.16 705.46,-467.79 709.26,-477.69 714.6,-473.16"/>
<text text-anchor="middle" x="739.28" y="-492.8" font-family="Times,serif" font-size="14.00">L</text>
</g>
<!-- node0x7fa807a04c20 -->
<g id="node21" class="node">
<title>node0x7fa807a04c20</title>
<ellipse fill="pink" stroke="black" cx="693.78" cy="-366" rx="73.39" ry="18"/>
<text text-anchor="middle" x="693.78" y="-362.3" font-family="Times,serif" font-size="14.00">Number&lt;1&gt;:6:39</text>
</g>
<!-- node0x7fa807a04c70&#45;&gt;node0x7fa807a04c20 -->
<g id="edge20" class="edge">
<title>node0x7fa807a04c70&#45;&gt;node0x7fa807a04c20</title>
<path fill="none" stroke="green" d="M693.78,-434.8C693.78,-423.16 693.78,-407.55 693.78,-394.24"/>
<polygon fill="green" stroke="green" points="697.28,-394.18 693.78,-384.18 690.28,-394.18 697.28,-394.18"/>
<text text-anchor="middle" x="698.28" y="-405.8" font-family="Times,serif" font-size="14.00">L</text>
</g>
<!-- node0x7fa807a04f40 -->
<g id="node23" class="node">
<title>node0x7fa807a04f40</title>
<polygon fill="#c1ffc1" stroke="black" points="829.7,-447.44 946.78,-435 1063.87,-447.44 1063.76,-467.56 829.81,-467.56 829.7,-447.44"/>
<text text-anchor="middle" x="946.78" y="-449.3" font-family="Times,serif" font-size="14.00">ReturnStmt&lt;None&gt;:0:0</text>
</g>
<!-- node0x7fa807a04f90&#45;&gt;node0x7fa807a04f40 -->
<g id="edge22" class="edge">
<title>node0x7fa807a04f90&#45;&gt;node0x7fa807a04f40</title>
<path fill="none" stroke="green" d="M934.74,-522.21C936.99,-509.48 940.1,-491.84 942.6,-477.68"/>
<polygon fill="green" stroke="green" points="946.08,-478.13 944.37,-467.68 939.18,-476.92 946.08,-478.13"/>
<text text-anchor="middle" x="945.28" y="-492.8" font-family="Times,serif" font-size="14.00">L</text>
</g>
<!-- node0x7fa807a04ef0 -->
<g id="node24" class="node">
<title>node0x7fa807a04ef0</title>
<polygon fill="#c1ffc1" stroke="black" points="825.66,-360.44 946.78,-348 1067.9,-360.44 1067.79,-380.56 825.78,-380.56 825.66,-360.44"/>
<text text-anchor="middle" x="946.78" y="-362.3" font-family="Times,serif" font-size="14.00">MaOperator&lt;Mul&gt;:8:53</text>
</g>
<!-- node0x7fa807a04f40&#45;&gt;node0x7fa807a04ef0 -->
<g id="edge23" class="edge">
<title>node0x7fa807a04f40&#45;&gt;node0x7fa807a04ef0</title>
<path fill="none" stroke="green" d="M946.78,-434.8C946.78,-422.24 946.78,-405.06 946.78,-391.13"/>
<polygon fill="green" stroke="green" points="950.28,-390.81 946.78,-380.81 943.28,-390.81 950.28,-390.81"/>
<text text-anchor="middle" x="951.28" y="-405.8" font-family="Times,serif" font-size="14.00">L</text>
</g>
<!-- node0x7fa807a04e50 -->
<g id="node25" class="node">
<title>node0x7fa807a04e50</title>
<polygon fill="#c1ffc1" stroke="black" points="615.75,-273.44 773.78,-261 931.81,-273.44 931.66,-293.56 615.9,-293.56 615.75,-273.44"/>
<text text-anchor="middle" x="773.78" y="-275.3" font-family="Times,serif" font-size="14.00">FuncCall&lt;Identifier&lt;fact&gt;&gt;:8:39</text>
</g>
<!-- node0x7fa807a04ef0&#45;&gt;node0x7fa807a04e50 -->
<g id="edge24" class="edge">
<title>node0x7fa807a04ef0&#45;&gt;node0x7fa807a04e50</title>
<path fill="none" stroke="green" d="M917.82,-350.77C888.32,-336.28 842.47,-313.75 810.45,-298.02"/>
<polygon fill="green" stroke="green" points="811.92,-294.84 801.4,-293.57 808.83,-301.12 811.92,-294.84"/>
<text text-anchor="middle" x="875.28" y="-318.8" font-family="Times,serif" font-size="14.00">L</text>
</g>
<!-- node0x7fa807a04ea0 -->
<g id="node30" class="node">
<title>node0x7fa807a04ea0</title>
<ellipse fill="aquamarine" stroke="black" cx="1014.78" cy="-279" rx="64.99" ry="18"/>
<text text-anchor="middle" x="1014.78" y="-275.3" font-family="Times,serif" font-size="14.00">ID&lt;num&gt;:8:55</text>
</g>
<!-- node0x7fa807a04ef0&#45;&gt;node0x7fa807a04ea0 -->
<g id="edge29" class="edge">
<title>node0x7fa807a04ef0&#45;&gt;node0x7fa807a04ea0</title>
<path fill="none" stroke="red" d="M959.57,-349.01C969.54,-336.55 983.56,-319.02 994.98,-304.75"/>
<polygon fill="red" stroke="red" points="997.84,-306.78 1001.35,-296.79 992.37,-302.41 997.84,-306.78"/>
<text text-anchor="middle" x="990.78" y="-318.8" font-family="Times,serif" font-size="14.00">R</text>
</g>
<!-- node0x7fa807a04e00 -->
<g id="node26" class="node">
<title>node0x7fa807a04e00</title>
<polygon fill="#c1ffc1" stroke="black" points="731.12,-186.44 773.78,-174 816.44,-186.44 816.4,-206.56 731.16,-206.56 731.12,-186.44"/>
<text text-anchor="middle" x="773.78" y="-188.3" font-family="Times,serif" font-size="14.00">Linker</text>
</g>
<!-- node0x7fa807a04e50&#45;&gt;node0x7fa807a04e00 -->
<g id="edge25" class="edge">
<title>node0x7fa807a04e50&#45;&gt;node0x7fa807a04e00</title>
<path fill="none" stroke="green" d="M773.78,-260.8C773.78,-248.24 773.78,-231.06 773.78,-217.13"/>
<polygon fill="green" stroke="green" points="777.28,-216.81 773.78,-206.81 770.28,-216.81 777.28,-216.81"/>
<text text-anchor="middle" x="778.28" y="-231.8" font-family="Times,serif" font-size="14.00">L</text>
</g>
<!-- node0x7fa807a04db0 -->
<g id="node27" class="node">
<title>node0x7fa807a04db0</title>
<polygon fill="#c1ffc1" stroke="black" points="642.88,-99.44 773.78,-87 904.68,-99.44 904.56,-119.56 643,-119.56 642.88,-99.44"/>
<text text-anchor="middle" x="773.78" y="-101.3" font-family="Times,serif" font-size="14.00">MaOperator&lt;Minus&gt;:8:48</text>
</g>
<!-- node0x7fa807a04e00&#45;&gt;node0x7fa807a04db0 -->
<g id="edge26" class="edge">
<title>node0x7fa807a04e00&#45;&gt;node0x7fa807a04db0</title>
<path fill="none" stroke="green" d="M773.78,-173.8C773.78,-161.24 773.78,-144.06 773.78,-130.13"/>
<polygon fill="green" stroke="green" points="777.28,-129.81 773.78,-119.81 770.28,-129.81 777.28,-129.81"/>
<text text-anchor="middle" x="778.28" y="-144.8" font-family="Times,serif" font-size="14.00">L</text>
</g>
<!-- node0x7fa807a04d10 -->
<g id="node28" class="node">
<title>node0x7fa807a04d10</title>
<ellipse fill="aquamarine" stroke="black" cx="695.78" cy="-18" rx="64.99" ry="18"/>
<text text-anchor="middle" x="695.78" y="-14.3" font-family="Times,serif" font-size="14.00">ID&lt;num&gt;:8:44</text>
</g>
<!-- node0x7fa807a04db0&#45;&gt;node0x7fa807a04d10 -->
<g id="edge27" class="edge">
<title>node0x7fa807a04db0&#45;&gt;node0x7fa807a04d10</title>
<path fill="none" stroke="green" d="M759.11,-88.01C747.57,-75.43 731.29,-57.7 718.13,-43.35"/>
<polygon fill="green" stroke="green" points="720.53,-40.79 711.19,-35.79 715.37,-45.52 720.53,-40.79"/>
<text text-anchor="middle" x="744.28" y="-57.8" font-family="Times,serif" font-size="14.00">L</text>
</g>
<!-- node0x7fa807a04d60 -->
<g id="node29" class="node">
<title>node0x7fa807a04d60</title>
<ellipse fill="pink" stroke="black" cx="851.78" cy="-18" rx="73.39" ry="18"/>
<text text-anchor="middle" x="851.78" y="-14.3" font-family="Times,serif" font-size="14.00">Number&lt;1&gt;:8:50</text>
</g>
<!-- node0x7fa807a04db0&#45;&gt;node0x7fa807a04d60 -->
<g id="edge28" class="edge">
<title>node0x7fa807a04db0&#45;&gt;node0x7fa807a04d60</title>
<path fill="none" stroke="red" d="M788.45,-88.01C800,-75.43 816.27,-57.7 829.43,-43.35"/>
<polygon fill="red" stroke="red" points="832.19,-45.52 836.38,-35.79 827.04,-40.79 832.19,-45.52"/>
<text text-anchor="middle" x="822.78" y="-57.8" font-family="Times,serif" font-size="14.00">R</text>
</g>
</g>
</svg>
