<?xml version="1.0" encoding="UTF-8" standalone="no"?>
<!DOCTYPE svg PUBLIC "-//W3C//DTD SVG 1.1//EN"
 "http://www.w3.org/Graphics/SVG/1.1/DTD/svg11.dtd">
<!-- Generated by graphviz version 2.44.1 (20200629.0846)
 -->
<!-- Title: structure Pages: 1 -->
<svg width="1076pt" height="653pt"
 viewBox="0.00 0.00 1075.74 653.00" xmlns="http://www.w3.org/2000/svg" xmlns:xlink="http://www.w3.org/1999/xlink">
<g id="graph0" class="graph" transform="scale(1 1) rotate(0) translate(4 649)">
<title>structure</title>
<polygon fill="white" stroke="transparent" points="-4,4 -4,-649 1071.74,-649 1071.74,4 -4,4"/>
<!-- node0x7fd006c06400 -->
<g id="node1" class="node">
<title>node0x7fd006c06400</title>
<polygon fill="#c1ffc1" stroke="black" points="325.74,-621.44 368.39,-609 411.05,-621.44 411.01,-641.56 325.78,-641.56 325.74,-621.44"/>
<text text-anchor="middle" x="368.39" y="-623.3" font-family="Times,serif" font-size="14.00">Linker</text>
</g>
<!-- node0x7fd006c063b0 -->
<g id="node2" class="node">
<title>node0x7fd006c063b0</title>
<polygon fill="#c1ffc1" stroke="black" points="172.66,-534.44 283.39,-522 394.12,-534.44 394.02,-554.56 172.77,-554.56 172.66,-534.44"/>
<text text-anchor="middle" x="283.39" y="-536.3" font-family="Times,serif" font-size="14.00">Statement&lt;None&gt;:0:0</text>
</g>
<!-- node0x7fd006c06400&#45;&gt;node0x7fd006c063b0 -->
<g id="edge1" class="edge">
<title>node0x7fd006c06400&#45;&gt;node0x7fd006c063b0</title>
<path fill="none" stroke="green" d="M355.11,-612.72C341.55,-599.16 320.29,-577.9 304.44,-562.04"/>
<polygon fill="green" stroke="green" points="306.69,-559.35 297.14,-554.75 301.74,-564.3 306.69,-559.35"/>
<text text-anchor="middle" x="335.89" y="-579.8" font-family="Times,serif" font-size="14.00">L</text>
</g>
<!-- node0x7fd006c065e0 -->
<g id="node5" class="node">
<title>node0x7fd006c065e0</title>
<polygon fill="#c1ffc1" stroke="black" points="457.74,-534.44 500.39,-522 543.05,-534.44 543.01,-554.56 457.78,-554.56 457.74,-534.44"/>
<text text-anchor="middle" x="500.39" y="-536.3" font-family="Times,serif" font-size="14.00">Linker</text>
</g>
<!-- node0x7fd006c06400&#45;&gt;node0x7fd006c065e0 -->
<g id="edge4" class="edge">
<title>node0x7fd006c06400&#45;&gt;node0x7fd006c065e0</title>
<path fill="none" stroke="red" d="M386.75,-614.18C408.42,-600.23 444.77,-576.82 470.52,-560.24"/>
<polygon fill="red" stroke="red" points="472.63,-563.04 479.14,-554.69 468.84,-557.16 472.63,-563.04"/>
<text text-anchor="middle" x="447.39" y="-579.8" font-family="Times,serif" font-size="14.00">R</text>
</g>
<!-- node0x7fd006c06310 -->
<g id="node3" class="node">
<title>node0x7fd006c06310</title>
<polygon fill="#c1ffc1" stroke="black" points="0.11,-447.44 141.39,-435 282.68,-447.44 282.55,-467.56 0.24,-467.56 0.11,-447.44"/>
<text text-anchor="middle" x="141.39" y="-449.3" font-family="Times,serif" font-size="14.00">VarDef&lt;Identifier&lt;pi&gt;&gt;:0:10</text>
</g>
<!-- node0x7fd006c063b0&#45;&gt;node0x7fd006c06310 -->
<g id="edge2" class="edge">
<title>node0x7fd006c063b0&#45;&gt;node0x7fd006c06310</title>
<path fill="none" stroke="green" d="M259.31,-524.58C235.52,-510.34 199.03,-488.5 172.94,-472.89"/>
<polygon fill="green" stroke="green" points="174.57,-469.78 164.19,-467.64 170.97,-475.78 174.57,-469.78"/>
<text text-anchor="middle" x="225.89" y="-492.8" font-family="Times,serif" font-size="14.00">L</text>
</g>
<!-- node0x7fd006c06360 -->
<g id="node4" class="node">
<title>node0x7fd006c06360</title>
<ellipse fill="pink" stroke="black" cx="131.39" cy="-366" rx="97.48" ry="18"/>
<text text-anchor="middle" x="131.39" y="-362.3" font-family="Times,serif" font-size="14.00">Number&lt;3.14159&gt;:0:15</text>
</g>
<!-- node0x7fd006c06310&#45;&gt;node0x7fd006c06360 -->
<g id="edge3" class="edge">
<title>node0x7fd006c06310&#45;&gt;node0x7fd006c06360</title>
<path fill="none" stroke="green" d="M139.37,-434.8C138,-423.16 136.16,-407.55 134.6,-394.24"/>
<polygon fill="green" stroke="green" points="138.06,-393.7 133.41,-384.18 131.11,-394.52 138.06,-393.7"/>
<text text-anchor="middle" x="141.89" y="-405.8" font-family="Times,serif" font-size="14.00">L</text>
</g>
<!-- node0x7fd006c06590 -->
<g id="node6" class="node">
<title>node0x7fd006c06590</title>
<polygon fill="#c1ffc1" stroke="black" points="306.06,-447.44 500.39,-435 694.73,-447.44 694.54,-467.56 306.24,-467.56 306.06,-447.44"/>
<text text-anchor="middle" x="500.39" y="-449.3" font-family="Times,serif" font-size="14.00">FuncDecl&lt;Identifier&lt;giveYouUp&gt;&gt;:2:14</text>
</g>
<!-- node0x7fd006c065e0&#45;&gt;node0x7fd006c06590 -->
<g id="edge5" class="edge">
<title>node0x7fd006c065e0&#45;&gt;node0x7fd006c06590</title>
<path fill="none" stroke="green" d="M500.39,-521.8C500.39,-509.24 500.39,-492.06 500.39,-478.13"/>
<polygon fill="green" stroke="green" points="503.89,-477.81 500.39,-467.81 496.89,-477.81 503.89,-477.81"/>
<text text-anchor="middle" x="504.89" y="-492.8" font-family="Times,serif" font-size="14.00">L</text>
</g>
<!-- node0x7fd006c068b0 -->
<g id="node11" class="node">
<title>node0x7fd006c068b0</title>
<polygon fill="#c1ffc1" stroke="black" points="718.74,-447.44 761.39,-435 804.05,-447.44 804.01,-467.56 718.78,-467.56 718.74,-447.44"/>
<text text-anchor="middle" x="761.39" y="-449.3" font-family="Times,serif" font-size="14.00">Linker</text>
</g>
<!-- node0x7fd006c065e0&#45;&gt;node0x7fd006c068b0 -->
<g id="edge10" class="edge">
<title>node0x7fd006c065e0&#45;&gt;node0x7fd006c068b0</title>
<path fill="none" stroke="red" d="M528.33,-529.9C571.53,-515.83 655.26,-488.56 709.71,-470.83"/>
<polygon fill="red" stroke="red" points="711.1,-474.06 719.52,-467.64 708.93,-467.4 711.1,-474.06"/>
<text text-anchor="middle" x="652.39" y="-492.8" font-family="Times,serif" font-size="14.00">R</text>
</g>
<!-- node0x7fd006c06450 -->
<g id="node7" class="node">
<title>node0x7fd006c06450</title>
<polygon fill="#c1ffc1" stroke="black" points="246.83,-360.44 337.39,-348 427.96,-360.44 427.87,-380.56 246.92,-380.56 246.83,-360.44"/>
<text text-anchor="middle" x="337.39" y="-362.3" font-family="Times,serif" font-size="14.00">None&lt;None&gt;:0:0</text>
</g>
<!-- node0x7fd006c06590&#45;&gt;node0x7fd006c06450 -->
<g id="edge6" class="edge">
<title>node0x7fd006c06590&#45;&gt;node0x7fd006c06450</title>
<path fill="none" stroke="green" d="M471.25,-436.8C443.65,-422.41 402.17,-400.78 372.7,-385.41"/>
<polygon fill="green" stroke="green" points="374.08,-382.18 363.59,-380.66 370.84,-388.39 374.08,-382.18"/>
<text text-anchor="middle" x="433.89" y="-405.8" font-family="Times,serif" font-size="14.00">L</text>
</g>
<!-- node0x7fd006c06540 -->
<g id="node8" class="node">
<title>node0x7fd006c06540</title>
<polygon fill="yellow" stroke="black" points="445.99,-360.44 505.39,-348 564.79,-360.44 564.74,-380.56 446.05,-380.56 445.99,-360.44"/>
<text text-anchor="middle" x="505.39" y="-362.3" font-family="Times,serif" font-size="14.00">Linker(ns)</text>
</g>
<!-- node0x7fd006c06590&#45;&gt;node0x7fd006c06540 -->
<g id="edge7" class="edge">
<title>node0x7fd006c06590&#45;&gt;node0x7fd006c06540</title>
<path fill="none" stroke="red" d="M501.41,-434.8C502.14,-422.24 503.15,-405.06 503.97,-391.13"/>
<polygon fill="red" stroke="red" points="507.49,-391 504.58,-380.81 500.5,-390.59 507.49,-391"/>
<text text-anchor="middle" x="508.39" y="-405.8" font-family="Times,serif" font-size="14.00">R</text>
</g>
<!-- node0x7fd006c064f0 -->
<g id="node9" class="node">
<title>node0x7fd006c064f0</title>
<polygon fill="#c1ffc1" stroke="black" points="316.41,-273.44 493.39,-261 670.38,-273.44 670.21,-293.56 316.57,-293.56 316.41,-273.44"/>
<text text-anchor="middle" x="493.39" y="-275.3" font-family="Times,serif" font-size="14.00">FuncCall&lt;Identifier&lt;someFun&gt;&gt;:3:6</text>
</g>
<!-- node0x7fd006c06540&#45;&gt;node0x7fd006c064f0 -->
<g id="edge8" class="edge">
<title>node0x7fd006c06540&#45;&gt;node0x7fd006c064f0</title>
<path fill="none" stroke="green" d="M503.02,-348.21C501.23,-335.48 498.74,-317.84 496.74,-303.68"/>
<polygon fill="green" stroke="green" points="500.19,-303.09 495.32,-293.68 493.26,-304.07 500.19,-303.09"/>
<text text-anchor="middle" x="504.89" y="-318.8" font-family="Times,serif" font-size="14.00">L</text>
</g>
<!-- node0x7fd006c064a0 -->
<g id="node10" class="node">
<title>node0x7fd006c064a0</title>
<polygon fill="#c1ffc1" stroke="black" points="402.83,-186.44 493.39,-174 583.96,-186.44 583.87,-206.56 402.92,-206.56 402.83,-186.44"/>
<text text-anchor="middle" x="493.39" y="-188.3" font-family="Times,serif" font-size="14.00">None&lt;None&gt;:0:0</text>
</g>
<!-- node0x7fd006c064f0&#45;&gt;node0x7fd006c064a0 -->
<g id="edge9" class="edge">
<title>node0x7fd006c064f0&#45;&gt;node0x7fd006c064a0</title>
<path fill="none" stroke="green" d="M493.39,-260.8C493.39,-248.24 493.39,-231.06 493.39,-217.13"/>
<polygon fill="green" stroke="green" points="496.89,-216.81 493.39,-206.81 489.89,-216.81 496.89,-216.81"/>
<text text-anchor="middle" x="497.89" y="-231.8" font-family="Times,serif" font-size="14.00">L</text>
</g>
<!-- node0x7fd006c06860 -->
<g id="node12" class="node">
<title>node0x7fd006c06860</title>
<polygon fill="#c1ffc1" stroke="black" points="594.84,-360.44 779.39,-348 963.95,-360.44 963.77,-380.56 595.01,-380.56 594.84,-360.44"/>
<text text-anchor="middle" x="779.39" y="-362.3" font-family="Times,serif" font-size="14.00">FuncDecl&lt;Identifier&lt;someFun&gt;&gt;:6:14</text>
</g>
<!-- node0x7fd006c068b0&#45;&gt;node0x7fd006c06860 -->
<g id="edge11" class="edge">
<title>node0x7fd006c068b0&#45;&gt;node0x7fd006c06860</title>
<path fill="none" stroke="green" d="M764.86,-435.61C767.55,-422.92 771.31,-405.17 774.33,-390.9"/>
<polygon fill="green" stroke="green" points="777.82,-391.32 776.47,-380.81 770.97,-389.87 777.82,-391.32"/>
<text text-anchor="middle" x="776.89" y="-405.8" font-family="Times,serif" font-size="14.00">L</text>
</g>
<!-- node0x7fd006c06630 -->
<g id="node13" class="node">
<title>node0x7fd006c06630</title>
<polygon fill="#c1ffc1" stroke="black" points="688.83,-273.44 779.39,-261 869.96,-273.44 869.87,-293.56 688.92,-293.56 688.83,-273.44"/>
<text text-anchor="middle" x="779.39" y="-275.3" font-family="Times,serif" font-size="14.00">None&lt;None&gt;:0:0</text>
</g>
<!-- node0x7fd006c06860&#45;&gt;node0x7fd006c06630 -->
<g id="edge12" class="edge">
<title>node0x7fd006c06860&#45;&gt;node0x7fd006c06630</title>
<path fill="none" stroke="green" d="M779.39,-347.8C779.39,-335.24 779.39,-318.06 779.39,-304.13"/>
<polygon fill="green" stroke="green" points="782.89,-303.81 779.39,-293.81 775.89,-303.81 782.89,-303.81"/>
<text text-anchor="middle" x="783.89" y="-318.8" font-family="Times,serif" font-size="14.00">L</text>
</g>
<!-- node0x7fd006c06810 -->
<g id="node14" class="node">
<title>node0x7fd006c06810</title>
<polygon fill="yellow" stroke="black" points="887.99,-273.44 947.39,-261 1006.79,-273.44 1006.74,-293.56 888.05,-293.56 887.99,-273.44"/>
<text text-anchor="middle" x="947.39" y="-275.3" font-family="Times,serif" font-size="14.00">Linker(ns)</text>
</g>
<!-- node0x7fd006c06860&#45;&gt;node0x7fd006c06810 -->
<g id="edge13" class="edge">
<title>node0x7fd006c06860&#45;&gt;node0x7fd006c06810</title>
<path fill="none" stroke="red" d="M809.43,-349.8C838,-335.35 881.01,-313.59 911.4,-298.21"/>
<polygon fill="red" stroke="red" points="913.05,-301.3 920.39,-293.66 909.89,-295.05 913.05,-301.3"/>
<text text-anchor="middle" x="879.39" y="-318.8" font-family="Times,serif" font-size="14.00">R</text>
</g>
<!-- node0x7fd006c06770 -->
<g id="node15" class="node">
<title>node0x7fd006c06770</title>
<polygon fill="#c1ffc1" stroke="black" points="852.8,-186.44 947.39,-174 1041.99,-186.44 1041.9,-206.56 852.89,-206.56 852.8,-186.44"/>
<text text-anchor="middle" x="947.39" y="-188.3" font-family="Times,serif" font-size="14.00">Setpix&lt;None&gt;:0:0</text>
</g>
<!-- node0x7fd006c06810&#45;&gt;node0x7fd006c06770 -->
<g id="edge14" class="edge">
<title>node0x7fd006c06810&#45;&gt;node0x7fd006c06770</title>
<path fill="none" stroke="green" d="M947.39,-260.8C947.39,-248.24 947.39,-231.06 947.39,-217.13"/>
<polygon fill="green" stroke="green" points="950.89,-216.81 947.39,-206.81 943.89,-216.81 950.89,-216.81"/>
<text text-anchor="middle" x="951.89" y="-231.8" font-family="Times,serif" font-size="14.00">L</text>
</g>
<!-- node0x7fd006c067c0 -->
<g id="node16" class="node">
<title>node0x7fd006c067c0</title>
<polygon fill="#c1ffc1" stroke="black" points="809.74,-99.44 852.39,-87 895.05,-99.44 895.01,-119.56 809.78,-119.56 809.74,-99.44"/>
<text text-anchor="middle" x="852.39" y="-101.3" font-family="Times,serif" font-size="14.00">Linker</text>
</g>
<!-- node0x7fd006c06770&#45;&gt;node0x7fd006c067c0 -->
<g id="edge15" class="edge">
<title>node0x7fd006c06770&#45;&gt;node0x7fd006c067c0</title>
<path fill="none" stroke="green" d="M930.41,-175.8C915.09,-162.1 892.43,-141.82 875.47,-126.65"/>
<polygon fill="green" stroke="green" points="877.45,-123.72 867.66,-119.66 872.78,-128.94 877.45,-123.72"/>
<text text-anchor="middle" x="910.89" y="-144.8" font-family="Times,serif" font-size="14.00">L</text>
</g>
<!-- node0x7fd006c06720 -->
<g id="node19" class="node">
<title>node0x7fd006c06720</title>
<ellipse fill="pink" stroke="black" cx="990.39" cy="-105" rx="77.19" ry="18"/>
<text text-anchor="middle" x="990.39" y="-101.3" font-family="Times,serif" font-size="14.00">Number&lt;43&gt;:7:17</text>
</g>
<!-- node0x7fd006c06770&#45;&gt;node0x7fd006c06720 -->
<g id="edge18" class="edge">
<title>node0x7fd006c06770&#45;&gt;node0x7fd006c06720</title>
<path fill="none" stroke="red" d="M955.48,-175.01C961.57,-162.98 970.05,-146.22 977.12,-132.23"/>
<polygon fill="red" stroke="red" points="980.36,-133.59 981.75,-123.08 974.11,-130.43 980.36,-133.59"/>
<text text-anchor="middle" x="977.39" y="-144.8" font-family="Times,serif" font-size="14.00">R</text>
</g>
<!-- node0x7fd006c06680 -->
<g id="node17" class="node">
<title>node0x7fd006c06680</title>
<ellipse fill="pink" stroke="black" cx="770.39" cy="-18" rx="73.39" ry="18"/>
<text text-anchor="middle" x="770.39" y="-14.3" font-family="Times,serif" font-size="14.00">Number&lt;1&gt;:7:13</text>
</g>
<!-- node0x7fd006c067c0&#45;&gt;node0x7fd006c06680 -->
<g id="edge16" class="edge">
<title>node0x7fd006c067c0&#45;&gt;node0x7fd006c06680</title>
<path fill="none" stroke="green" d="M839.58,-90.72C827.27,-77.96 808.39,-58.39 793.46,-42.91"/>
<polygon fill="green" stroke="green" points="795.96,-40.46 786.5,-35.69 790.92,-45.32 795.96,-40.46"/>
<text text-anchor="middle" x="820.89" y="-57.8" font-family="Times,serif" font-size="14.00">L</text>
</g>
<!-- node0x7fd006c066d0 -->
<g id="node18" class="node">
<title>node0x7fd006c066d0</title>
<ellipse fill="pink" stroke="black" cx="935.39" cy="-18" rx="73.39" ry="18"/>
<text text-anchor="middle" x="935.39" y="-14.3" font-family="Times,serif" font-size="14.00">Number&lt;2&gt;:7:15</text>
</g>
<!-- node0x7fd006c067c0&#45;&gt;node0x7fd006c066d0 -->
<g id="edge17" class="edge">
<title>node0x7fd006c067c0&#45;&gt;node0x7fd006c066d0</title>
<path fill="none" stroke="red" d="M865.36,-90.72C877.82,-77.96 896.93,-58.39 912.04,-42.91"/>
<polygon fill="red" stroke="red" points="914.61,-45.29 919.09,-35.69 909.6,-40.4 914.61,-45.29"/>
<text text-anchor="middle" x="904.39" y="-57.8" font-family="Times,serif" font-size="14.00">R</text>
</g>
</g>
</svg>
