<?xml version="1.0" encoding="UTF-8" standalone="no"?>
<!DOCTYPE svg PUBLIC "-//W3C//DTD SVG 1.1//EN"
 "http://www.w3.org/Graphics/SVG/1.1/DTD/svg11.dtd">
<!-- Generated by graphviz version 2.44.1 (20200629.0846)
 -->
<!-- Title: structure Pages: 1 -->
<svg width="1326pt" height="1175pt"
 viewBox="0.00 0.00 1325.78 1175.00" xmlns="http://www.w3.org/2000/svg" xmlns:xlink="http://www.w3.org/1999/xlink">
<g id="graph0" class="graph" transform="scale(1 1) rotate(0) translate(4 1171)">
<title>structure</title>
<polygon fill="white" stroke="transparent" points="-4,4 -4,-1171 1321.78,-1171 1321.78,4 -4,4"/>
<!-- node0x7fb859e04690 -->
<g id="node1" class="node">
<title>node0x7fb859e04690</title>
<polygon fill="#c1ffc1" stroke="black" points="340.12,-1143.44 382.78,-1131 425.44,-1143.44 425.4,-1163.56 340.16,-1163.56 340.12,-1143.44"/>
<text text-anchor="middle" x="382.78" y="-1145.3" font-family="Times,serif" font-size="14.00">Linker</text>
</g>
<!-- node0x7fb859e04640 -->
<g id="node2" class="node">
<title>node0x7fb859e04640</title>
<polygon fill="#c1ffc1" stroke="black" points="61.45,-1056.44 255.78,-1044 450.11,-1056.44 449.93,-1076.56 61.63,-1076.56 61.45,-1056.44"/>
<text text-anchor="middle" x="255.78" y="-1058.3" font-family="Times,serif" font-size="14.00">FuncDecl&lt;Identifier&lt;giveYouUp&gt;&gt;:0:13</text>
</g>
<!-- node0x7fb859e04690&#45;&gt;node0x7fb859e04640 -->
<g id="edge1" class="edge">
<title>node0x7fb859e04690&#45;&gt;node0x7fb859e04640</title>
<path fill="none" stroke="green" d="M364.85,-1136C344.03,-1122.06 309.38,-1098.87 284.72,-1082.37"/>
<polygon fill="green" stroke="green" points="286.39,-1079.28 276.14,-1076.62 282.5,-1085.09 286.39,-1079.28"/>
<text text-anchor="middle" x="332.28" y="-1101.8" font-family="Times,serif" font-size="14.00">L</text>
</g>
<!-- node0x7fb859e04e60 -->
<g id="node9" class="node">
<title>node0x7fb859e04e60</title>
<polygon fill="#c1ffc1" stroke="black" points="468.12,-1056.44 510.78,-1044 553.44,-1056.44 553.4,-1076.56 468.16,-1076.56 468.12,-1056.44"/>
<text text-anchor="middle" x="510.78" y="-1058.3" font-family="Times,serif" font-size="14.00">Linker</text>
</g>
<!-- node0x7fb859e04690&#45;&gt;node0x7fb859e04e60 -->
<g id="edge8" class="edge">
<title>node0x7fb859e04690&#45;&gt;node0x7fb859e04e60</title>
<path fill="none" stroke="red" d="M400.58,-1136.18C421.59,-1122.23 456.84,-1098.82 481.81,-1082.24"/>
<polygon fill="red" stroke="red" points="483.78,-1085.13 490.17,-1076.69 479.9,-1079.3 483.78,-1085.13"/>
<text text-anchor="middle" x="459.78" y="-1101.8" font-family="Times,serif" font-size="14.00">R</text>
</g>
<!-- node0x7fb859e04460 -->
<g id="node3" class="node">
<title>node0x7fb859e04460</title>
<polygon fill="#c1ffc1" stroke="black" points="0.22,-969.44 90.78,-957 181.34,-969.44 181.26,-989.56 0.3,-989.56 0.22,-969.44"/>
<text text-anchor="middle" x="90.78" y="-971.3" font-family="Times,serif" font-size="14.00">None&lt;None&gt;:0:0</text>
</g>
<!-- node0x7fb859e04640&#45;&gt;node0x7fb859e04460 -->
<g id="edge2" class="edge">
<title>node0x7fb859e04640&#45;&gt;node0x7fb859e04460</title>
<path fill="none" stroke="green" d="M226.28,-1045.8C198.35,-1031.41 156.35,-1009.78 126.52,-994.41"/>
<polygon fill="green" stroke="green" points="127.79,-991.13 117.3,-989.66 124.59,-997.35 127.79,-991.13"/>
<text text-anchor="middle" x="188.28" y="-1014.8" font-family="Times,serif" font-size="14.00">L</text>
</g>
<!-- node0x7fb859e045f0 -->
<g id="node4" class="node">
<title>node0x7fb859e045f0</title>
<polygon fill="yellow" stroke="black" points="199.38,-969.44 258.78,-957 318.18,-969.44 318.12,-989.56 199.44,-989.56 199.38,-969.44"/>
<text text-anchor="middle" x="258.78" y="-971.3" font-family="Times,serif" font-size="14.00">Linker(ns)</text>
</g>
<!-- node0x7fb859e04640&#45;&gt;node0x7fb859e045f0 -->
<g id="edge3" class="edge">
<title>node0x7fb859e04640&#45;&gt;node0x7fb859e045f0</title>
<path fill="none" stroke="red" d="M256.39,-1043.8C256.83,-1031.24 257.44,-1014.06 257.93,-1000.13"/>
<polygon fill="red" stroke="red" points="261.44,-999.93 258.29,-989.81 254.44,-999.68 261.44,-999.93"/>
<text text-anchor="middle" x="262.78" y="-1014.8" font-family="Times,serif" font-size="14.00">R</text>
</g>
<!-- node0x7fb859e045a0 -->
<g id="node5" class="node">
<title>node0x7fb859e045a0</title>
<polygon fill="#c1ffc1" stroke="black" points="170.54,-882.44 258.78,-870 347.02,-882.44 346.94,-902.56 170.62,-902.56 170.54,-882.44"/>
<text text-anchor="middle" x="258.78" y="-884.3" font-family="Times,serif" font-size="14.00">Print&lt;None&gt;:0:0</text>
</g>
<!-- node0x7fb859e045f0&#45;&gt;node0x7fb859e045a0 -->
<g id="edge4" class="edge">
<title>node0x7fb859e045f0&#45;&gt;node0x7fb859e045a0</title>
<path fill="none" stroke="green" d="M258.78,-956.8C258.78,-944.24 258.78,-927.06 258.78,-913.13"/>
<polygon fill="green" stroke="green" points="262.28,-912.81 258.78,-902.81 255.28,-912.81 262.28,-912.81"/>
<text text-anchor="middle" x="263.28" y="-927.8" font-family="Times,serif" font-size="14.00">L</text>
</g>
<!-- node0x7fb859e04550 -->
<g id="node6" class="node">
<title>node0x7fb859e04550</title>
<polygon fill="#c1ffc1" stroke="black" points="100.75,-795.44 258.78,-783 416.81,-795.44 416.66,-815.56 100.9,-815.56 100.75,-795.44"/>
<text text-anchor="middle" x="258.78" y="-797.3" font-family="Times,serif" font-size="14.00">FuncCall&lt;Identifier&lt;fact&gt;&gt;:1:14</text>
</g>
<!-- node0x7fb859e045a0&#45;&gt;node0x7fb859e04550 -->
<g id="edge5" class="edge">
<title>node0x7fb859e045a0&#45;&gt;node0x7fb859e04550</title>
<path fill="none" stroke="green" d="M258.78,-869.8C258.78,-857.24 258.78,-840.06 258.78,-826.13"/>
<polygon fill="green" stroke="green" points="262.28,-825.81 258.78,-815.81 255.28,-825.81 262.28,-825.81"/>
<text text-anchor="middle" x="263.28" y="-840.8" font-family="Times,serif" font-size="14.00">L</text>
</g>
<!-- node0x7fb859e04500 -->
<g id="node7" class="node">
<title>node0x7fb859e04500</title>
<polygon fill="#c1ffc1" stroke="black" points="216.12,-708.44 258.78,-696 301.44,-708.44 301.4,-728.56 216.16,-728.56 216.12,-708.44"/>
<text text-anchor="middle" x="258.78" y="-710.3" font-family="Times,serif" font-size="14.00">Linker</text>
</g>
<!-- node0x7fb859e04550&#45;&gt;node0x7fb859e04500 -->
<g id="edge6" class="edge">
<title>node0x7fb859e04550&#45;&gt;node0x7fb859e04500</title>
<path fill="none" stroke="green" d="M258.78,-782.8C258.78,-770.24 258.78,-753.06 258.78,-739.13"/>
<polygon fill="green" stroke="green" points="262.28,-738.81 258.78,-728.81 255.28,-738.81 262.28,-738.81"/>
<text text-anchor="middle" x="263.28" y="-753.8" font-family="Times,serif" font-size="14.00">L</text>
</g>
<!-- node0x7fb859e044b0 -->
<g id="node8" class="node">
<title>node0x7fb859e044b0</title>
<polygon fill="#c1ffc1" stroke="black" points="168.83,-621.44 258.78,-609 348.74,-621.44 348.65,-641.56 168.91,-641.56 168.83,-621.44"/>
<text text-anchor="middle" x="258.78" y="-623.3" font-family="Times,serif" font-size="14.00">Input&lt;None&gt;:0:0</text>
</g>
<!-- node0x7fb859e04500&#45;&gt;node0x7fb859e044b0 -->
<g id="edge7" class="edge">
<title>node0x7fb859e04500&#45;&gt;node0x7fb859e044b0</title>
<path fill="none" stroke="green" d="M258.78,-695.8C258.78,-683.24 258.78,-666.06 258.78,-652.13"/>
<polygon fill="green" stroke="green" points="262.28,-651.81 258.78,-641.81 255.28,-651.81 262.28,-651.81"/>
<text text-anchor="middle" x="263.28" y="-666.8" font-family="Times,serif" font-size="14.00">L</text>
</g>
<!-- node0x7fb859e04e10 -->
<g id="node10" class="node">
<title>node0x7fb859e04e10</title>
<polygon fill="#c1ffc1" stroke="black" points="349.93,-969.44 510.78,-957 671.63,-969.44 671.48,-989.56 350.08,-989.56 349.93,-969.44"/>
<text text-anchor="middle" x="510.78" y="-971.3" font-family="Times,serif" font-size="14.00">FuncDecl&lt;Identifier&lt;fact&gt;&gt;:4:14</text>
</g>
<!-- node0x7fb859e04e60&#45;&gt;node0x7fb859e04e10 -->
<g id="edge9" class="edge">
<title>node0x7fb859e04e60&#45;&gt;node0x7fb859e04e10</title>
<path fill="none" stroke="green" d="M510.78,-1043.8C510.78,-1031.24 510.78,-1014.06 510.78,-1000.13"/>
<polygon fill="green" stroke="green" points="514.28,-999.81 510.78,-989.81 507.28,-999.81 514.28,-999.81"/>
<text text-anchor="middle" x="515.28" y="-1014.8" font-family="Times,serif" font-size="14.00">L</text>
</g>
<!-- node0x7fb859e046e0 -->
<g id="node11" class="node">
<title>node0x7fb859e046e0</title>
<polygon fill="#c1ffc1" stroke="black" points="467.12,-882.44 509.78,-870 552.44,-882.44 552.4,-902.56 467.16,-902.56 467.12,-882.44"/>
<text text-anchor="middle" x="509.78" y="-884.3" font-family="Times,serif" font-size="14.00">Linker</text>
</g>
<!-- node0x7fb859e04e10&#45;&gt;node0x7fb859e046e0 -->
<g id="edge10" class="edge">
<title>node0x7fb859e04e10&#45;&gt;node0x7fb859e046e0</title>
<path fill="none" stroke="green" d="M510.58,-956.8C510.43,-944.24 510.23,-927.06 510.07,-913.13"/>
<polygon fill="green" stroke="green" points="513.56,-912.77 509.94,-902.81 506.56,-912.85 513.56,-912.77"/>
<text text-anchor="middle" x="515.28" y="-927.8" font-family="Times,serif" font-size="14.00">L</text>
</g>
<!-- node0x7fb859e04820 -->
<g id="node13" class="node">
<title>node0x7fb859e04820</title>
<polygon fill="yellow" stroke="black" points="665.38,-882.44 724.78,-870 784.18,-882.44 784.12,-902.56 665.44,-902.56 665.38,-882.44"/>
<text text-anchor="middle" x="724.78" y="-884.3" font-family="Times,serif" font-size="14.00">Linker(ns)</text>
</g>
<!-- node0x7fb859e04e10&#45;&gt;node0x7fb859e04820 -->
<g id="edge12" class="edge">
<title>node0x7fb859e04e10&#45;&gt;node0x7fb859e04820</title>
<path fill="none" stroke="red" d="M547.08,-959.58C584.02,-944.91 641.3,-922.16 680.79,-906.47"/>
<polygon fill="red" stroke="red" points="682.43,-909.59 690.43,-902.64 679.84,-903.08 682.43,-909.59"/>
<text text-anchor="middle" x="635.78" y="-927.8" font-family="Times,serif" font-size="14.00">R</text>
</g>
<!-- node0x7fb859e04730 -->
<g id="node12" class="node">
<title>node0x7fb859e04730</title>
<ellipse fill="aquamarine" stroke="black" cx="502.78" cy="-801" rx="64.99" ry="18"/>
<text text-anchor="middle" x="502.78" y="-797.3" font-family="Times,serif" font-size="14.00">ID&lt;num&gt;:4:19</text>
</g>
<!-- node0x7fb859e046e0&#45;&gt;node0x7fb859e04730 -->
<g id="edge11" class="edge">
<title>node0x7fb859e046e0&#45;&gt;node0x7fb859e04730</title>
<path fill="none" stroke="green" d="M508.4,-870.21C507.44,-858.52 506.13,-842.69 505.02,-829.22"/>
<polygon fill="green" stroke="green" points="508.49,-828.73 504.19,-819.05 501.52,-829.3 508.49,-828.73"/>
<text text-anchor="middle" x="511.28" y="-840.8" font-family="Times,serif" font-size="14.00">L</text>
</g>
<!-- node0x7fb859e04780 -->
<g id="node14" class="node">
<title>node0x7fb859e04780</title>
<polygon fill="#c1ffc1" stroke="black" points="585.81,-795.44 724.78,-783 863.75,-795.44 863.62,-815.56 585.94,-815.56 585.81,-795.44"/>
<text text-anchor="middle" x="724.78" y="-797.3" font-family="Times,serif" font-size="14.00">VarDef&lt;Identifier&lt;x&gt;&gt;:5:15</text>
</g>
<!-- node0x7fb859e04820&#45;&gt;node0x7fb859e04780 -->
<g id="edge13" class="edge">
<title>node0x7fb859e04820&#45;&gt;node0x7fb859e04780</title>
<path fill="none" stroke="green" d="M724.78,-869.8C724.78,-857.24 724.78,-840.06 724.78,-826.13"/>
<polygon fill="green" stroke="green" points="728.28,-825.81 724.78,-815.81 721.28,-825.81 728.28,-825.81"/>
<text text-anchor="middle" x="729.28" y="-840.8" font-family="Times,serif" font-size="14.00">L</text>
</g>
<!-- node0x7fb859e04dc0 -->
<g id="node16" class="node">
<title>node0x7fb859e04dc0</title>
<polygon fill="#c1ffc1" stroke="black" points="882.12,-795.44 924.78,-783 967.44,-795.44 967.4,-815.56 882.16,-815.56 882.12,-795.44"/>
<text text-anchor="middle" x="924.78" y="-797.3" font-family="Times,serif" font-size="14.00">Linker</text>
</g>
<!-- node0x7fb859e04820&#45;&gt;node0x7fb859e04dc0 -->
<g id="edge15" class="edge">
<title>node0x7fb859e04820&#45;&gt;node0x7fb859e04dc0</title>
<path fill="none" stroke="red" d="M751.75,-875.54C785.47,-861.21 843.53,-836.53 883.01,-819.75"/>
<polygon fill="red" stroke="red" points="884.79,-822.8 892.63,-815.67 882.05,-816.36 884.79,-822.8"/>
<text text-anchor="middle" x="841.78" y="-840.8" font-family="Times,serif" font-size="14.00">R</text>
</g>
<!-- node0x7fb859e047d0 -->
<g id="node15" class="node">
<title>node0x7fb859e047d0</title>
<ellipse fill="pink" stroke="black" cx="724.78" cy="-714" rx="73.39" ry="18"/>
<text text-anchor="middle" x="724.78" y="-710.3" font-family="Times,serif" font-size="14.00">Number&lt;0&gt;:5:19</text>
</g>
<!-- node0x7fb859e04780&#45;&gt;node0x7fb859e047d0 -->
<g id="edge14" class="edge">
<title>node0x7fb859e04780&#45;&gt;node0x7fb859e047d0</title>
<path fill="none" stroke="green" d="M724.78,-782.8C724.78,-771.16 724.78,-755.55 724.78,-742.24"/>
<polygon fill="green" stroke="green" points="728.28,-742.18 724.78,-732.18 721.28,-742.18 728.28,-742.18"/>
<text text-anchor="middle" x="729.28" y="-753.8" font-family="Times,serif" font-size="14.00">L</text>
</g>
<!-- node0x7fb859e04d70 -->
<g id="node17" class="node">
<title>node0x7fb859e04d70</title>
<polygon fill="#c1ffc1" stroke="black" points="845.82,-708.44 924.78,-696 1003.74,-708.44 1003.67,-728.56 845.89,-728.56 845.82,-708.44"/>
<text text-anchor="middle" x="924.78" y="-710.3" font-family="Times,serif" font-size="14.00">IfStmt&lt;If&gt;:6:6</text>
</g>
<!-- node0x7fb859e04dc0&#45;&gt;node0x7fb859e04d70 -->
<g id="edge16" class="edge">
<title>node0x7fb859e04dc0&#45;&gt;node0x7fb859e04d70</title>
<path fill="none" stroke="green" d="M924.78,-782.8C924.78,-770.24 924.78,-753.06 924.78,-739.13"/>
<polygon fill="green" stroke="green" points="928.28,-738.81 924.78,-728.81 921.28,-738.81 928.28,-738.81"/>
<text text-anchor="middle" x="929.28" y="-753.8" font-family="Times,serif" font-size="14.00">L</text>
</g>
<!-- node0x7fb859e04910 -->
<g id="node18" class="node">
<title>node0x7fb859e04910</title>
<polygon fill="#c1ffc1" stroke="black" points="723.52,-621.44 849.78,-609 976.04,-621.44 975.92,-641.56 723.64,-641.56 723.52,-621.44"/>
<text text-anchor="middle" x="849.78" y="-623.3" font-family="Times,serif" font-size="14.00">CmpOperator&lt;Leq&gt;:6:30</text>
</g>
<!-- node0x7fb859e04d70&#45;&gt;node0x7fb859e04910 -->
<g id="edge17" class="edge">
<title>node0x7fb859e04d70&#45;&gt;node0x7fb859e04910</title>
<path fill="none" stroke="green" d="M911.37,-697.8C899.5,-684.35 882.04,-664.56 868.73,-649.48"/>
<polygon fill="green" stroke="green" points="871.08,-646.84 861.84,-641.66 865.83,-651.48 871.08,-646.84"/>
<text text-anchor="middle" x="896.28" y="-666.8" font-family="Times,serif" font-size="14.00">L</text>
</g>
<!-- node0x7fb859e04d20 -->
<g id="node21" class="node">
<title>node0x7fb859e04d20</title>
<polygon fill="#c1ffc1" stroke="black" points="994.12,-621.44 1036.78,-609 1079.44,-621.44 1079.4,-641.56 994.16,-641.56 994.12,-621.44"/>
<text text-anchor="middle" x="1036.78" y="-623.3" font-family="Times,serif" font-size="14.00">Linker</text>
</g>
<!-- node0x7fb859e04d70&#45;&gt;node0x7fb859e04d20 -->
<g id="edge20" class="edge">
<title>node0x7fb859e04d70&#45;&gt;node0x7fb859e04d20</title>
<path fill="none" stroke="red" d="M943.53,-698.77C961.92,-684.82 990.12,-663.41 1010.69,-647.8"/>
<polygon fill="red" stroke="red" points="1012.87,-650.54 1018.72,-641.71 1008.63,-644.97 1012.87,-650.54"/>
<text text-anchor="middle" x="992.78" y="-666.8" font-family="Times,serif" font-size="14.00">R</text>
</g>
<!-- node0x7fb859e04870 -->
<g id="node19" class="node">
<title>node0x7fb859e04870</title>
<ellipse fill="aquamarine" stroke="black" cx="694.78" cy="-540" rx="64.99" ry="18"/>
<text text-anchor="middle" x="694.78" y="-536.3" font-family="Times,serif" font-size="14.00">ID&lt;num&gt;:6:26</text>
</g>
<!-- node0x7fb859e04910&#45;&gt;node0x7fb859e04870 -->
<g id="edge18" class="edge">
<title>node0x7fb859e04910&#45;&gt;node0x7fb859e04870</title>
<path fill="none" stroke="green" d="M823.49,-611.58C798.24,-597.73 759.86,-576.69 731.58,-561.18"/>
<polygon fill="green" stroke="green" points="733.23,-558.09 722.78,-556.35 729.86,-564.23 733.23,-558.09"/>
<text text-anchor="middle" x="786.28" y="-579.8" font-family="Times,serif" font-size="14.00">L</text>
</g>
<!-- node0x7fb859e048c0 -->
<g id="node20" class="node">
<title>node0x7fb859e048c0</title>
<ellipse fill="pink" stroke="black" cx="850.78" cy="-540" rx="73.39" ry="18"/>
<text text-anchor="middle" x="850.78" y="-536.3" font-family="Times,serif" font-size="14.00">Number&lt;1&gt;:6:33</text>
</g>
<!-- node0x7fb859e04910&#45;&gt;node0x7fb859e048c0 -->
<g id="edge19" class="edge">
<title>node0x7fb859e04910&#45;&gt;node0x7fb859e048c0</title>
<path fill="none" stroke="red" d="M849.98,-608.8C850.12,-597.16 850.3,-581.55 850.46,-568.24"/>
<polygon fill="red" stroke="red" points="853.96,-568.22 850.58,-558.18 846.96,-568.13 853.96,-568.22"/>
<text text-anchor="middle" x="855.78" y="-579.8" font-family="Times,serif" font-size="14.00">R</text>
</g>
<!-- node0x7fb859e04a00 -->
<g id="node22" class="node">
<title>node0x7fb859e04a00</title>
<polygon fill="yellow" stroke="black" points="944.38,-534.44 1003.78,-522 1063.18,-534.44 1063.12,-554.56 944.44,-554.56 944.38,-534.44"/>
<text text-anchor="middle" x="1003.78" y="-536.3" font-family="Times,serif" font-size="14.00">Linker(ns)</text>
</g>
<!-- node0x7fb859e04d20&#45;&gt;node0x7fb859e04a00 -->
<g id="edge21" class="edge">
<title>node0x7fb859e04d20&#45;&gt;node0x7fb859e04a00</title>
<path fill="none" stroke="green" d="M1030.73,-610.41C1025.71,-597.48 1018.5,-578.91 1012.8,-564.23"/>
<polygon fill="green" stroke="green" points="1016.02,-562.86 1009.14,-554.8 1009.5,-565.39 1016.02,-562.86"/>
<text text-anchor="middle" x="1027.28" y="-579.8" font-family="Times,serif" font-size="14.00">L</text>
</g>
<!-- node0x7fb859e04cd0 -->
<g id="node25" class="node">
<title>node0x7fb859e04cd0</title>
<polygon fill="yellow" stroke="black" points="1110.38,-534.44 1169.78,-522 1229.18,-534.44 1229.12,-554.56 1110.44,-554.56 1110.38,-534.44"/>
<text text-anchor="middle" x="1169.78" y="-536.3" font-family="Times,serif" font-size="14.00">Linker(ns)</text>
</g>
<!-- node0x7fb859e04d20&#45;&gt;node0x7fb859e04cd0 -->
<g id="edge24" class="edge">
<title>node0x7fb859e04d20&#45;&gt;node0x7fb859e04cd0</title>
<path fill="none" stroke="red" d="M1055.27,-614.18C1077.11,-600.23 1113.73,-576.82 1139.68,-560.24"/>
<polygon fill="red" stroke="red" points="1141.82,-563.02 1148.37,-554.69 1138.06,-557.12 1141.82,-563.02"/>
<text text-anchor="middle" x="1116.78" y="-579.8" font-family="Times,serif" font-size="14.00">R</text>
</g>
<!-- node0x7fb859e049b0 -->
<g id="node23" class="node">
<title>node0x7fb859e049b0</title>
<polygon fill="#c1ffc1" stroke="black" points="814.7,-447.44 931.78,-435 1048.87,-447.44 1048.76,-467.56 814.81,-467.56 814.7,-447.44"/>
<text text-anchor="middle" x="931.78" y="-449.3" font-family="Times,serif" font-size="14.00">ReturnStmt&lt;None&gt;:0:0</text>
</g>
<!-- node0x7fb859e04a00&#45;&gt;node0x7fb859e049b0 -->
<g id="edge22" class="edge">
<title>node0x7fb859e04a00&#45;&gt;node0x7fb859e049b0</title>
<path fill="none" stroke="green" d="M991.24,-524.19C979.89,-510.79 963.02,-490.88 950.14,-475.68"/>
<polygon fill="green" stroke="green" points="952.6,-473.16 943.46,-467.79 947.26,-477.69 952.6,-473.16"/>
<text text-anchor="middle" x="977.28" y="-492.8" font-family="Times,serif" font-size="14.00">L</text>
</g>
<!-- node0x7fb859e04960 -->
<g id="node24" class="node">
<title>node0x7fb859e04960</title>
<ellipse fill="pink" stroke="black" cx="931.78" cy="-366" rx="73.39" ry="18"/>
<text text-anchor="middle" x="931.78" y="-362.3" font-family="Times,serif" font-size="14.00">Number&lt;1&gt;:7:39</text>
</g>
<!-- node0x7fb859e049b0&#45;&gt;node0x7fb859e04960 -->
<g id="edge23" class="edge">
<title>node0x7fb859e049b0&#45;&gt;node0x7fb859e04960</title>
<path fill="none" stroke="green" d="M931.78,-434.8C931.78,-423.16 931.78,-407.55 931.78,-394.24"/>
<polygon fill="green" stroke="green" points="935.28,-394.18 931.78,-384.18 928.28,-394.18 935.28,-394.18"/>
<text text-anchor="middle" x="936.28" y="-405.8" font-family="Times,serif" font-size="14.00">L</text>
</g>
<!-- node0x7fb859e04c80 -->
<g id="node26" class="node">
<title>node0x7fb859e04c80</title>
<polygon fill="#c1ffc1" stroke="black" points="1067.7,-447.44 1184.78,-435 1301.87,-447.44 1301.76,-467.56 1067.81,-467.56 1067.7,-447.44"/>
<text text-anchor="middle" x="1184.78" y="-449.3" font-family="Times,serif" font-size="14.00">ReturnStmt&lt;None&gt;:0:0</text>
</g>
<!-- node0x7fb859e04cd0&#45;&gt;node0x7fb859e04c80 -->
<g id="edge25" class="edge">
<title>node0x7fb859e04cd0&#45;&gt;node0x7fb859e04c80</title>
<path fill="none" stroke="green" d="M1172.74,-522.21C1174.99,-509.48 1178.1,-491.84 1180.6,-477.68"/>
<polygon fill="green" stroke="green" points="1184.08,-478.13 1182.37,-467.68 1177.18,-476.92 1184.08,-478.13"/>
<text text-anchor="middle" x="1183.28" y="-492.8" font-family="Times,serif" font-size="14.00">L</text>
</g>
<!-- node0x7fb859e04c30 -->
<g id="node27" class="node">
<title>node0x7fb859e04c30</title>
<polygon fill="#c1ffc1" stroke="black" points="1063.66,-360.44 1184.78,-348 1305.9,-360.44 1305.79,-380.56 1063.78,-380.56 1063.66,-360.44"/>
<text text-anchor="middle" x="1184.78" y="-362.3" font-family="Times,serif" font-size="14.00">MaOperator&lt;Mul&gt;:9:53</text>
</g>
<!-- node0x7fb859e04c80&#45;&gt;node0x7fb859e04c30 -->
<g id="edge26" class="edge">
<title>node0x7fb859e04c80&#45;&gt;node0x7fb859e04c30</title>
<path fill="none" stroke="green" d="M1184.78,-434.8C1184.78,-422.24 1184.78,-405.06 1184.78,-391.13"/>
<polygon fill="green" stroke="green" points="1188.28,-390.81 1184.78,-380.81 1181.28,-390.81 1188.28,-390.81"/>
<text text-anchor="middle" x="1189.28" y="-405.8" font-family="Times,serif" font-size="14.00">L</text>
</g>
<!-- node0x7fb859e04b90 -->
<g id="node28" class="node">
<title>node0x7fb859e04b90</title>
<polygon fill="#c1ffc1" stroke="black" points="853.75,-273.44 1011.78,-261 1169.81,-273.44 1169.66,-293.56 853.9,-293.56 853.75,-273.44"/>
<text text-anchor="middle" x="1011.78" y="-275.3" font-family="Times,serif" font-size="14.00">FuncCall&lt;Identifier&lt;fact&gt;&gt;:9:39</text>
</g>
<!-- node0x7fb859e04c30&#45;&gt;node0x7fb859e04b90 -->
<g id="edge27" class="edge">
<title>node0x7fb859e04c30&#45;&gt;node0x7fb859e04b90</title>
<path fill="none" stroke="green" d="M1155.82,-350.77C1126.32,-336.28 1080.47,-313.75 1048.45,-298.02"/>
<polygon fill="green" stroke="green" points="1049.92,-294.84 1039.4,-293.57 1046.83,-301.12 1049.92,-294.84"/>
<text text-anchor="middle" x="1113.28" y="-318.8" font-family="Times,serif" font-size="14.00">L</text>
</g>
<!-- node0x7fb859e04be0 -->
<g id="node33" class="node">
<title>node0x7fb859e04be0</title>
<ellipse fill="aquamarine" stroke="black" cx="1252.78" cy="-279" rx="64.99" ry="18"/>
<text text-anchor="middle" x="1252.78" y="-275.3" font-family="Times,serif" font-size="14.00">ID&lt;num&gt;:9:55</text>
</g>
<!-- node0x7fb859e04c30&#45;&gt;node0x7fb859e04be0 -->
<g id="edge32" class="edge">
<title>node0x7fb859e04c30&#45;&gt;node0x7fb859e04be0</title>
<path fill="none" stroke="red" d="M1197.57,-349.01C1207.54,-336.55 1221.56,-319.02 1232.98,-304.75"/>
<polygon fill="red" stroke="red" points="1235.84,-306.78 1239.35,-296.79 1230.37,-302.41 1235.84,-306.78"/>
<text text-anchor="middle" x="1228.78" y="-318.8" font-family="Times,serif" font-size="14.00">R</text>
</g>
<!-- node0x7fb859e04b40 -->
<g id="node29" class="node">
<title>node0x7fb859e04b40</title>
<polygon fill="#c1ffc1" stroke="black" points="969.12,-186.44 1011.78,-174 1054.44,-186.44 1054.4,-206.56 969.16,-206.56 969.12,-186.44"/>
<text text-anchor="middle" x="1011.78" y="-188.3" font-family="Times,serif" font-size="14.00">Linker</text>
</g>
<!-- node0x7fb859e04b90&#45;&gt;node0x7fb859e04b40 -->
<g id="edge28" class="edge">
<title>node0x7fb859e04b90&#45;&gt;node0x7fb859e04b40</title>
<path fill="none" stroke="green" d="M1011.78,-260.8C1011.78,-248.24 1011.78,-231.06 1011.78,-217.13"/>
<polygon fill="green" stroke="green" points="1015.28,-216.81 1011.78,-206.81 1008.28,-216.81 1015.28,-216.81"/>
<text text-anchor="middle" x="1016.28" y="-231.8" font-family="Times,serif" font-size="14.00">L</text>
</g>
<!-- node0x7fb859e04af0 -->
<g id="node30" class="node">
<title>node0x7fb859e04af0</title>
<polygon fill="#c1ffc1" stroke="black" points="880.88,-99.44 1011.78,-87 1142.68,-99.44 1142.56,-119.56 881,-119.56 880.88,-99.44"/>
<text text-anchor="middle" x="1011.78" y="-101.3" font-family="Times,serif" font-size="14.00">MaOperator&lt;Minus&gt;:9:48</text>
</g>
<!-- node0x7fb859e04b40&#45;&gt;node0x7fb859e04af0 -->
<g id="edge29" class="edge">
<title>node0x7fb859e04b40&#45;&gt;node0x7fb859e04af0</title>
<path fill="none" stroke="green" d="M1011.78,-173.8C1011.78,-161.24 1011.78,-144.06 1011.78,-130.13"/>
<polygon fill="green" stroke="green" points="1015.28,-129.81 1011.78,-119.81 1008.28,-129.81 1015.28,-129.81"/>
<text text-anchor="middle" x="1016.28" y="-144.8" font-family="Times,serif" font-size="14.00">L</text>
</g>
<!-- node0x7fb859e04a50 -->
<g id="node31" class="node">
<title>node0x7fb859e04a50</title>
<ellipse fill="aquamarine" stroke="black" cx="933.78" cy="-18" rx="64.99" ry="18"/>
<text text-anchor="middle" x="933.78" y="-14.3" font-family="Times,serif" font-size="14.00">ID&lt;num&gt;:9:44</text>
</g>
<!-- node0x7fb859e04af0&#45;&gt;node0x7fb859e04a50 -->
<g id="edge30" class="edge">
<title>node0x7fb859e04af0&#45;&gt;node0x7fb859e04a50</title>
<path fill="none" stroke="green" d="M997.11,-88.01C985.57,-75.43 969.29,-57.7 956.13,-43.35"/>
<polygon fill="green" stroke="green" points="958.53,-40.79 949.19,-35.79 953.37,-45.52 958.53,-40.79"/>
<text text-anchor="middle" x="982.28" y="-57.8" font-family="Times,serif" font-size="14.00">L</text>
</g>
<!-- node0x7fb859e04aa0 -->
<g id="node32" class="node">
<title>node0x7fb859e04aa0</title>
<ellipse fill="pink" stroke="black" cx="1089.78" cy="-18" rx="73.39" ry="18"/>
<text text-anchor="middle" x="1089.78" y="-14.3" font-family="Times,serif" font-size="14.00">Number&lt;1&gt;:9:50</text>
</g>
<!-- node0x7fb859e04af0&#45;&gt;node0x7fb859e04aa0 -->
<g id="edge31" class="edge">
<title>node0x7fb859e04af0&#45;&gt;node0x7fb859e04aa0</title>
<path fill="none" stroke="red" d="M1026.45,-88.01C1038,-75.43 1054.27,-57.7 1067.43,-43.35"/>
<polygon fill="red" stroke="red" points="1070.19,-45.52 1074.38,-35.79 1065.04,-40.79 1070.19,-45.52"/>
<text text-anchor="middle" x="1060.78" y="-57.8" font-family="Times,serif" font-size="14.00">R</text>
</g>
</g>
</svg>
