<?xml version="1.0" encoding="UTF-8" standalone="no"?>
<!DOCTYPE svg PUBLIC "-//W3C//DTD SVG 1.1//EN"
 "http://www.w3.org/Graphics/SVG/1.1/DTD/svg11.dtd">
<!-- Generated by graphviz version 2.44.1 (20200629.0846)
 -->
<!-- Title: structure Pages: 1 -->
<svg width="942pt" height="1001pt"
 viewBox="0.00 0.00 942.26 1001.00" xmlns="http://www.w3.org/2000/svg" xmlns:xlink="http://www.w3.org/1999/xlink">
<g id="graph0" class="graph" transform="scale(1 1) rotate(0) translate(4 997)">
<title>structure</title>
<polygon fill="white" stroke="transparent" points="-4,4 -4,-997 938.26,-997 938.26,4 -4,4"/>
<!-- node0x7f91f2406880 -->
<g id="node1" class="node">
<title>node0x7f91f2406880</title>
<polygon fill="#c1ffc1" stroke="black" points="433.34,-969.44 475.99,-957 518.65,-969.44 518.61,-989.56 433.38,-989.56 433.34,-969.44"/>
<text text-anchor="middle" x="475.99" y="-971.3" font-family="Times,serif" font-size="14.00">Linker</text>
</g>
<!-- node0x7f91f2406830 -->
<g id="node2" class="node">
<title>node0x7f91f2406830</title>
<polygon fill="#c1ffc1" stroke="black" points="205.14,-882.44 365.99,-870 526.84,-882.44 526.69,-902.56 205.3,-902.56 205.14,-882.44"/>
<text text-anchor="middle" x="365.99" y="-884.3" font-family="Times,serif" font-size="14.00">FuncDecl&lt;Identifier&lt;fact&gt;&gt;:0:13</text>
</g>
<!-- node0x7f91f2406880&#45;&gt;node0x7f91f2406830 -->
<g id="edge1" class="edge">
<title>node0x7f91f2406880&#45;&gt;node0x7f91f2406830</title>
<path fill="none" stroke="green" d="M459.76,-961.46C441.9,-947.66 412.95,-925.28 391.94,-909.05"/>
<polygon fill="green" stroke="green" points="393.8,-906.07 383.75,-902.72 389.52,-911.61 393.8,-906.07"/>
<text text-anchor="middle" x="432.49" y="-927.8" font-family="Times,serif" font-size="14.00">L</text>
</g>
<!-- node0x7f91f2406b00 -->
<g id="node23" class="node">
<title>node0x7f91f2406b00</title>
<polygon fill="#c1ffc1" stroke="black" points="569.34,-882.44 611.99,-870 654.65,-882.44 654.61,-902.56 569.38,-902.56 569.34,-882.44"/>
<text text-anchor="middle" x="611.99" y="-884.3" font-family="Times,serif" font-size="14.00">Linker</text>
</g>
<!-- node0x7f91f2406880&#45;&gt;node0x7f91f2406b00 -->
<g id="edge22" class="edge">
<title>node0x7f91f2406880&#45;&gt;node0x7f91f2406b00</title>
<path fill="none" stroke="red" d="M494.62,-962.36C516.97,-948.39 554.77,-924.77 581.42,-908.11"/>
<polygon fill="red" stroke="red" points="583.37,-911.02 590,-902.75 579.66,-905.08 583.37,-911.02"/>
<text text-anchor="middle" x="557.99" y="-927.8" font-family="Times,serif" font-size="14.00">R</text>
</g>
<!-- node0x7f91f2405d60 -->
<g id="node3" class="node">
<title>node0x7f91f2405d60</title>
<polygon fill="#c1ffc1" stroke="black" points="185.34,-795.44 227.99,-783 270.65,-795.44 270.61,-815.56 185.38,-815.56 185.34,-795.44"/>
<text text-anchor="middle" x="227.99" y="-797.3" font-family="Times,serif" font-size="14.00">Linker</text>
</g>
<!-- node0x7f91f2406830&#45;&gt;node0x7f91f2405d60 -->
<g id="edge2" class="edge">
<title>node0x7f91f2406830&#45;&gt;node0x7f91f2405d60</title>
<path fill="none" stroke="green" d="M341.32,-871.8C318.26,-857.6 283.74,-836.34 258.86,-821.01"/>
<polygon fill="green" stroke="green" points="260.52,-817.93 250.17,-815.66 256.85,-823.89 260.52,-817.93"/>
<text text-anchor="middle" x="310.49" y="-840.8" font-family="Times,serif" font-size="14.00">L</text>
</g>
<!-- node0x7f91f24067e0 -->
<g id="node5" class="node">
<title>node0x7f91f24067e0</title>
<polygon fill="yellow" stroke="black" points="306.6,-795.44 365.99,-783 425.39,-795.44 425.34,-815.56 306.65,-815.56 306.6,-795.44"/>
<text text-anchor="middle" x="365.99" y="-797.3" font-family="Times,serif" font-size="14.00">Linker(ns)</text>
</g>
<!-- node0x7f91f2406830&#45;&gt;node0x7f91f24067e0 -->
<g id="edge4" class="edge">
<title>node0x7f91f2406830&#45;&gt;node0x7f91f24067e0</title>
<path fill="none" stroke="red" d="M365.99,-869.8C365.99,-857.24 365.99,-840.06 365.99,-826.13"/>
<polygon fill="red" stroke="red" points="369.49,-825.81 365.99,-815.81 362.49,-825.81 369.49,-825.81"/>
<text text-anchor="middle" x="370.99" y="-840.8" font-family="Times,serif" font-size="14.00">R</text>
</g>
<!-- node0x7f91f2406240 -->
<g id="node4" class="node">
<title>node0x7f91f2406240</title>
<ellipse fill="aquamarine" stroke="black" cx="222.99" cy="-714" rx="64.99" ry="18"/>
<text text-anchor="middle" x="222.99" y="-710.3" font-family="Times,serif" font-size="14.00">ID&lt;num&gt;:0:18</text>
</g>
<!-- node0x7f91f2405d60&#45;&gt;node0x7f91f2406240 -->
<g id="edge3" class="edge">
<title>node0x7f91f2405d60&#45;&gt;node0x7f91f2406240</title>
<path fill="none" stroke="green" d="M227.01,-783.21C226.32,-771.52 225.39,-755.69 224.6,-742.22"/>
<polygon fill="green" stroke="green" points="228.08,-741.83 224,-732.05 221.09,-742.24 228.08,-741.83"/>
<text text-anchor="middle" x="230.49" y="-753.8" font-family="Times,serif" font-size="14.00">L</text>
</g>
<!-- node0x7f91f2406790 -->
<g id="node6" class="node">
<title>node0x7f91f2406790</title>
<polygon fill="#c1ffc1" stroke="black" points="306.03,-708.44 384.99,-696 463.96,-708.44 463.88,-728.56 306.11,-728.56 306.03,-708.44"/>
<text text-anchor="middle" x="384.99" y="-710.3" font-family="Times,serif" font-size="14.00">IfStmt&lt;If&gt;:1:6</text>
</g>
<!-- node0x7f91f24067e0&#45;&gt;node0x7f91f2406790 -->
<g id="edge5" class="edge">
<title>node0x7f91f24067e0&#45;&gt;node0x7f91f2406790</title>
<path fill="none" stroke="green" d="M369.66,-783.61C372.49,-770.92 376.46,-753.17 379.65,-738.9"/>
<polygon fill="green" stroke="green" points="383.14,-739.33 381.91,-728.81 376.31,-737.81 383.14,-739.33"/>
<text text-anchor="middle" x="381.49" y="-753.8" font-family="Times,serif" font-size="14.00">L</text>
</g>
<!-- node0x7f91f2406330 -->
<g id="node7" class="node">
<title>node0x7f91f2406330</title>
<polygon fill="#c1ffc1" stroke="black" points="89.74,-621.44 215.99,-609 342.25,-621.44 342.14,-641.56 89.85,-641.56 89.74,-621.44"/>
<text text-anchor="middle" x="215.99" y="-623.3" font-family="Times,serif" font-size="14.00">CmpOperator&lt;Leq&gt;:1:30</text>
</g>
<!-- node0x7f91f2406790&#45;&gt;node0x7f91f2406330 -->
<g id="edge6" class="edge">
<title>node0x7f91f2406790&#45;&gt;node0x7f91f2406330</title>
<path fill="none" stroke="green" d="M358.96,-699.91C330.39,-685.54 284.34,-662.37 252.24,-646.23"/>
<polygon fill="green" stroke="green" points="253.69,-643.04 243.18,-641.67 250.54,-649.29 253.69,-643.04"/>
<text text-anchor="middle" x="315.49" y="-666.8" font-family="Times,serif" font-size="14.00">L</text>
</g>
<!-- node0x7f91f2406740 -->
<g id="node10" class="node">
<title>node0x7f91f2406740</title>
<polygon fill="#c1ffc1" stroke="black" points="360.34,-621.44 402.99,-609 445.65,-621.44 445.61,-641.56 360.38,-641.56 360.34,-621.44"/>
<text text-anchor="middle" x="402.99" y="-623.3" font-family="Times,serif" font-size="14.00">Linker</text>
</g>
<!-- node0x7f91f2406790&#45;&gt;node0x7f91f2406740 -->
<g id="edge9" class="edge">
<title>node0x7f91f2406790&#45;&gt;node0x7f91f2406740</title>
<path fill="none" stroke="red" d="M388.55,-696.21C391.24,-683.48 394.98,-665.84 397.98,-651.68"/>
<polygon fill="red" stroke="red" points="401.45,-652.18 400.1,-641.68 394.6,-650.73 401.45,-652.18"/>
<text text-anchor="middle" x="400.99" y="-666.8" font-family="Times,serif" font-size="14.00">R</text>
</g>
<!-- node0x7f91f2406290 -->
<g id="node8" class="node">
<title>node0x7f91f2406290</title>
<ellipse fill="aquamarine" stroke="black" cx="64.99" cy="-540" rx="64.99" ry="18"/>
<text text-anchor="middle" x="64.99" y="-536.3" font-family="Times,serif" font-size="14.00">ID&lt;num&gt;:1:26</text>
</g>
<!-- node0x7f91f2406330&#45;&gt;node0x7f91f2406290 -->
<g id="edge7" class="edge">
<title>node0x7f91f2406330&#45;&gt;node0x7f91f2406290</title>
<path fill="none" stroke="green" d="M190.04,-611.39C165.57,-597.61 128.67,-576.84 101.29,-561.43"/>
<polygon fill="green" stroke="green" points="102.83,-558.28 92.4,-556.43 99.39,-564.38 102.83,-558.28"/>
<text text-anchor="middle" x="154.49" y="-579.8" font-family="Times,serif" font-size="14.00">L</text>
</g>
<!-- node0x7f91f24062e0 -->
<g id="node9" class="node">
<title>node0x7f91f24062e0</title>
<ellipse fill="pink" stroke="black" cx="220.99" cy="-540" rx="73.39" ry="18"/>
<text text-anchor="middle" x="220.99" y="-536.3" font-family="Times,serif" font-size="14.00">Number&lt;1&gt;:1:33</text>
</g>
<!-- node0x7f91f2406330&#45;&gt;node0x7f91f24062e0 -->
<g id="edge8" class="edge">
<title>node0x7f91f2406330&#45;&gt;node0x7f91f24062e0</title>
<path fill="none" stroke="red" d="M217.01,-608.8C217.69,-597.16 218.61,-581.55 219.39,-568.24"/>
<polygon fill="red" stroke="red" points="222.89,-568.36 219.98,-558.18 215.9,-567.95 222.89,-568.36"/>
<text text-anchor="middle" x="223.99" y="-579.8" font-family="Times,serif" font-size="14.00">R</text>
</g>
<!-- node0x7f91f2406420 -->
<g id="node11" class="node">
<title>node0x7f91f2406420</title>
<polygon fill="yellow" stroke="black" points="330.6,-534.44 389.99,-522 449.39,-534.44 449.34,-554.56 330.65,-554.56 330.6,-534.44"/>
<text text-anchor="middle" x="389.99" y="-536.3" font-family="Times,serif" font-size="14.00">Linker(ns)</text>
</g>
<!-- node0x7f91f2406740&#45;&gt;node0x7f91f2406420 -->
<g id="edge10" class="edge">
<title>node0x7f91f2406740&#45;&gt;node0x7f91f2406420</title>
<path fill="none" stroke="green" d="M400.49,-609.61C398.55,-596.92 395.83,-579.17 393.65,-564.9"/>
<polygon fill="green" stroke="green" points="397.08,-564.17 392.11,-554.81 390.16,-565.22 397.08,-564.17"/>
<text text-anchor="middle" x="402.49" y="-579.8" font-family="Times,serif" font-size="14.00">L</text>
</g>
<!-- node0x7f91f24066f0 -->
<g id="node14" class="node">
<title>node0x7f91f24066f0</title>
<polygon fill="yellow" stroke="black" points="476.6,-534.44 535.99,-522 595.39,-534.44 595.34,-554.56 476.65,-554.56 476.6,-534.44"/>
<text text-anchor="middle" x="535.99" y="-536.3" font-family="Times,serif" font-size="14.00">Linker(ns)</text>
</g>
<!-- node0x7f91f2406740&#45;&gt;node0x7f91f24066f0 -->
<g id="edge13" class="edge">
<title>node0x7f91f2406740&#45;&gt;node0x7f91f24066f0</title>
<path fill="none" stroke="red" d="M421.49,-614.18C443.32,-600.23 479.95,-576.82 505.89,-560.24"/>
<polygon fill="red" stroke="red" points="508.04,-563.02 514.58,-554.69 504.27,-557.12 508.04,-563.02"/>
<text text-anchor="middle" x="482.99" y="-579.8" font-family="Times,serif" font-size="14.00">R</text>
</g>
<!-- node0x7f91f24063d0 -->
<g id="node12" class="node">
<title>node0x7f91f24063d0</title>
<polygon fill="#c1ffc1" stroke="black" points="170.91,-447.44 287.99,-435 405.08,-447.44 404.97,-467.56 171.02,-467.56 170.91,-447.44"/>
<text text-anchor="middle" x="287.99" y="-449.3" font-family="Times,serif" font-size="14.00">ReturnStmt&lt;None&gt;:0:0</text>
</g>
<!-- node0x7f91f2406420&#45;&gt;node0x7f91f24063d0 -->
<g id="edge11" class="edge">
<title>node0x7f91f2406420&#45;&gt;node0x7f91f24063d0</title>
<path fill="none" stroke="green" d="M373.61,-525.34C357.03,-511.53 331.2,-490.01 312.25,-474.21"/>
<polygon fill="green" stroke="green" points="314.26,-471.34 304.34,-467.62 309.78,-476.71 314.26,-471.34"/>
<text text-anchor="middle" x="350.49" y="-492.8" font-family="Times,serif" font-size="14.00">L</text>
</g>
<!-- node0x7f91f2406380 -->
<g id="node13" class="node">
<title>node0x7f91f2406380</title>
<ellipse fill="pink" stroke="black" cx="287.99" cy="-366" rx="73.39" ry="18"/>
<text text-anchor="middle" x="287.99" y="-362.3" font-family="Times,serif" font-size="14.00">Number&lt;1&gt;:2:39</text>
</g>
<!-- node0x7f91f24063d0&#45;&gt;node0x7f91f2406380 -->
<g id="edge12" class="edge">
<title>node0x7f91f24063d0&#45;&gt;node0x7f91f2406380</title>
<path fill="none" stroke="green" d="M287.99,-434.8C287.99,-423.16 287.99,-407.55 287.99,-394.24"/>
<polygon fill="green" stroke="green" points="291.49,-394.18 287.99,-384.18 284.49,-394.18 291.49,-394.18"/>
<text text-anchor="middle" x="292.49" y="-405.8" font-family="Times,serif" font-size="14.00">L</text>
</g>
<!-- node0x7f91f24066a0 -->
<g id="node15" class="node">
<title>node0x7f91f24066a0</title>
<polygon fill="#c1ffc1" stroke="black" points="423.91,-447.44 540.99,-435 658.08,-447.44 657.97,-467.56 424.02,-467.56 423.91,-447.44"/>
<text text-anchor="middle" x="540.99" y="-449.3" font-family="Times,serif" font-size="14.00">ReturnStmt&lt;None&gt;:0:0</text>
</g>
<!-- node0x7f91f24066f0&#45;&gt;node0x7f91f24066a0 -->
<g id="edge14" class="edge">
<title>node0x7f91f24066f0&#45;&gt;node0x7f91f24066a0</title>
<path fill="none" stroke="green" d="M536.98,-522.21C537.73,-509.48 538.77,-491.84 539.6,-477.68"/>
<polygon fill="green" stroke="green" points="543.1,-477.86 540.19,-467.68 536.11,-477.45 543.1,-477.86"/>
<text text-anchor="middle" x="543.49" y="-492.8" font-family="Times,serif" font-size="14.00">L</text>
</g>
<!-- node0x7f91f2406650 -->
<g id="node16" class="node">
<title>node0x7f91f2406650</title>
<polygon fill="#c1ffc1" stroke="black" points="419.88,-360.44 540.99,-348 662.11,-360.44 662,-380.56 419.99,-380.56 419.88,-360.44"/>
<text text-anchor="middle" x="540.99" y="-362.3" font-family="Times,serif" font-size="14.00">MaOperator&lt;Mul&gt;:4:53</text>
</g>
<!-- node0x7f91f24066a0&#45;&gt;node0x7f91f2406650 -->
<g id="edge15" class="edge">
<title>node0x7f91f24066a0&#45;&gt;node0x7f91f2406650</title>
<path fill="none" stroke="green" d="M540.99,-434.8C540.99,-422.24 540.99,-405.06 540.99,-391.13"/>
<polygon fill="green" stroke="green" points="544.49,-390.81 540.99,-380.81 537.49,-390.81 544.49,-390.81"/>
<text text-anchor="middle" x="545.49" y="-405.8" font-family="Times,serif" font-size="14.00">L</text>
</g>
<!-- node0x7f91f24065b0 -->
<g id="node17" class="node">
<title>node0x7f91f24065b0</title>
<polygon fill="#c1ffc1" stroke="black" points="209.96,-273.44 367.99,-261 526.02,-273.44 525.88,-293.56 210.11,-293.56 209.96,-273.44"/>
<text text-anchor="middle" x="367.99" y="-275.3" font-family="Times,serif" font-size="14.00">FuncCall&lt;Identifier&lt;fact&gt;&gt;:4:39</text>
</g>
<!-- node0x7f91f2406650&#45;&gt;node0x7f91f24065b0 -->
<g id="edge16" class="edge">
<title>node0x7f91f2406650&#45;&gt;node0x7f91f24065b0</title>
<path fill="none" stroke="green" d="M512.04,-350.77C482.53,-336.28 436.69,-313.75 404.66,-298.02"/>
<polygon fill="green" stroke="green" points="406.13,-294.84 395.61,-293.57 403.05,-301.12 406.13,-294.84"/>
<text text-anchor="middle" x="469.49" y="-318.8" font-family="Times,serif" font-size="14.00">L</text>
</g>
<!-- node0x7f91f2406600 -->
<g id="node22" class="node">
<title>node0x7f91f2406600</title>
<ellipse fill="aquamarine" stroke="black" cx="608.99" cy="-279" rx="64.99" ry="18"/>
<text text-anchor="middle" x="608.99" y="-275.3" font-family="Times,serif" font-size="14.00">ID&lt;num&gt;:4:55</text>
</g>
<!-- node0x7f91f2406650&#45;&gt;node0x7f91f2406600 -->
<g id="edge21" class="edge">
<title>node0x7f91f2406650&#45;&gt;node0x7f91f2406600</title>
<path fill="none" stroke="red" d="M553.78,-349.01C563.75,-336.55 577.78,-319.02 589.19,-304.75"/>
<polygon fill="red" stroke="red" points="592.05,-306.78 595.56,-296.79 586.58,-302.41 592.05,-306.78"/>
<text text-anchor="middle" x="584.99" y="-318.8" font-family="Times,serif" font-size="14.00">R</text>
</g>
<!-- node0x7f91f2406560 -->
<g id="node18" class="node">
<title>node0x7f91f2406560</title>
<polygon fill="#c1ffc1" stroke="black" points="325.34,-186.44 367.99,-174 410.65,-186.44 410.61,-206.56 325.38,-206.56 325.34,-186.44"/>
<text text-anchor="middle" x="367.99" y="-188.3" font-family="Times,serif" font-size="14.00">Linker</text>
</g>
<!-- node0x7f91f24065b0&#45;&gt;node0x7f91f2406560 -->
<g id="edge17" class="edge">
<title>node0x7f91f24065b0&#45;&gt;node0x7f91f2406560</title>
<path fill="none" stroke="green" d="M367.99,-260.8C367.99,-248.24 367.99,-231.06 367.99,-217.13"/>
<polygon fill="green" stroke="green" points="371.49,-216.81 367.99,-206.81 364.49,-216.81 371.49,-216.81"/>
<text text-anchor="middle" x="372.49" y="-231.8" font-family="Times,serif" font-size="14.00">L</text>
</g>
<!-- node0x7f91f2406510 -->
<g id="node19" class="node">
<title>node0x7f91f2406510</title>
<polygon fill="#c1ffc1" stroke="black" points="237.09,-99.44 367.99,-87 498.89,-99.44 498.77,-119.56 237.22,-119.56 237.09,-99.44"/>
<text text-anchor="middle" x="367.99" y="-101.3" font-family="Times,serif" font-size="14.00">MaOperator&lt;Minus&gt;:4:48</text>
</g>
<!-- node0x7f91f2406560&#45;&gt;node0x7f91f2406510 -->
<g id="edge18" class="edge">
<title>node0x7f91f2406560&#45;&gt;node0x7f91f2406510</title>
<path fill="none" stroke="green" d="M367.99,-173.8C367.99,-161.24 367.99,-144.06 367.99,-130.13"/>
<polygon fill="green" stroke="green" points="371.49,-129.81 367.99,-119.81 364.49,-129.81 371.49,-129.81"/>
<text text-anchor="middle" x="372.49" y="-144.8" font-family="Times,serif" font-size="14.00">L</text>
</g>
<!-- node0x7f91f2406470 -->
<g id="node20" class="node">
<title>node0x7f91f2406470</title>
<ellipse fill="aquamarine" stroke="black" cx="289.99" cy="-18" rx="64.99" ry="18"/>
<text text-anchor="middle" x="289.99" y="-14.3" font-family="Times,serif" font-size="14.00">ID&lt;num&gt;:4:44</text>
</g>
<!-- node0x7f91f2406510&#45;&gt;node0x7f91f2406470 -->
<g id="edge19" class="edge">
<title>node0x7f91f2406510&#45;&gt;node0x7f91f2406470</title>
<path fill="none" stroke="green" d="M353.32,-88.01C341.78,-75.43 325.5,-57.7 312.34,-43.35"/>
<polygon fill="green" stroke="green" points="314.74,-40.79 305.4,-35.79 309.58,-45.52 314.74,-40.79"/>
<text text-anchor="middle" x="338.49" y="-57.8" font-family="Times,serif" font-size="14.00">L</text>
</g>
<!-- node0x7f91f24064c0 -->
<g id="node21" class="node">
<title>node0x7f91f24064c0</title>
<ellipse fill="pink" stroke="black" cx="445.99" cy="-18" rx="73.39" ry="18"/>
<text text-anchor="middle" x="445.99" y="-14.3" font-family="Times,serif" font-size="14.00">Number&lt;1&gt;:4:50</text>
</g>
<!-- node0x7f91f2406510&#45;&gt;node0x7f91f24064c0 -->
<g id="edge20" class="edge">
<title>node0x7f91f2406510&#45;&gt;node0x7f91f24064c0</title>
<path fill="none" stroke="red" d="M382.67,-88.01C394.21,-75.43 410.49,-57.7 423.65,-43.35"/>
<polygon fill="red" stroke="red" points="426.41,-45.52 430.59,-35.79 421.25,-40.79 426.41,-45.52"/>
<text text-anchor="middle" x="416.99" y="-57.8" font-family="Times,serif" font-size="14.00">R</text>
</g>
<!-- node0x7f91f2406ab0 -->
<g id="node24" class="node">
<title>node0x7f91f2406ab0</title>
<polygon fill="#c1ffc1" stroke="black" points="443.66,-795.44 637.99,-783 832.33,-795.44 832.15,-815.56 443.84,-815.56 443.66,-795.44"/>
<text text-anchor="middle" x="637.99" y="-797.3" font-family="Times,serif" font-size="14.00">FuncDecl&lt;Identifier&lt;giveYouUp&gt;&gt;:8:14</text>
</g>
<!-- node0x7f91f2406b00&#45;&gt;node0x7f91f2406ab0 -->
<g id="edge23" class="edge">
<title>node0x7f91f2406b00&#45;&gt;node0x7f91f2406ab0</title>
<path fill="none" stroke="green" d="M616.88,-871.01C620.81,-858.16 626.39,-839.93 630.83,-825.44"/>
<polygon fill="green" stroke="green" points="634.23,-826.26 633.81,-815.67 627.54,-824.21 634.23,-826.26"/>
<text text-anchor="middle" x="631.49" y="-840.8" font-family="Times,serif" font-size="14.00">L</text>
</g>
<!-- node0x7f91f24068d0 -->
<g id="node25" class="node">
<title>node0x7f91f24068d0</title>
<polygon fill="#c1ffc1" stroke="black" points="517.43,-708.44 607.99,-696 698.56,-708.44 698.47,-728.56 517.52,-728.56 517.43,-708.44"/>
<text text-anchor="middle" x="607.99" y="-710.3" font-family="Times,serif" font-size="14.00">None&lt;None&gt;:0:0</text>
</g>
<!-- node0x7f91f2406ab0&#45;&gt;node0x7f91f24068d0 -->
<g id="edge24" class="edge">
<title>node0x7f91f2406ab0&#45;&gt;node0x7f91f24068d0</title>
<path fill="none" stroke="green" d="M622.28,-783.81C617.84,-778.27 613.53,-771.76 610.99,-765 607.9,-756.75 606.79,-747.21 606.57,-738.68"/>
<polygon fill="green" stroke="green" points="610.07,-738.64 606.69,-728.6 603.07,-738.56 610.07,-738.64"/>
<text text-anchor="middle" x="615.49" y="-753.8" font-family="Times,serif" font-size="14.00">L</text>
</g>
<!-- node0x7f91f2406a60 -->
<g id="node26" class="node">
<title>node0x7f91f2406a60</title>
<polygon fill="yellow" stroke="black" points="716.6,-708.44 775.99,-696 835.39,-708.44 835.34,-728.56 716.65,-728.56 716.6,-708.44"/>
<text text-anchor="middle" x="775.99" y="-710.3" font-family="Times,serif" font-size="14.00">Linker(ns)</text>
</g>
<!-- node0x7f91f2406ab0&#45;&gt;node0x7f91f2406a60 -->
<g id="edge25" class="edge">
<title>node0x7f91f2406ab0&#45;&gt;node0x7f91f2406a60</title>
<path fill="none" stroke="red" d="M663.31,-784.41C686.31,-770.24 720.33,-749.29 744.97,-734.11"/>
<polygon fill="red" stroke="red" points="746.9,-737.03 753.58,-728.8 743.23,-731.07 746.9,-737.03"/>
<text text-anchor="middle" x="720.99" y="-753.8" font-family="Times,serif" font-size="14.00">R</text>
</g>
<!-- node0x7f91f2406a10 -->
<g id="node27" class="node">
<title>node0x7f91f2406a10</title>
<polygon fill="#c1ffc1" stroke="black" points="687.75,-621.44 775.99,-609 864.24,-621.44 864.15,-641.56 687.83,-641.56 687.75,-621.44"/>
<text text-anchor="middle" x="775.99" y="-623.3" font-family="Times,serif" font-size="14.00">Print&lt;None&gt;:0:0</text>
</g>
<!-- node0x7f91f2406a60&#45;&gt;node0x7f91f2406a10 -->
<g id="edge26" class="edge">
<title>node0x7f91f2406a60&#45;&gt;node0x7f91f2406a10</title>
<path fill="none" stroke="green" d="M775.99,-695.8C775.99,-683.24 775.99,-666.06 775.99,-652.13"/>
<polygon fill="green" stroke="green" points="779.49,-651.81 775.99,-641.81 772.49,-651.81 779.49,-651.81"/>
<text text-anchor="middle" x="780.49" y="-666.8" font-family="Times,serif" font-size="14.00">L</text>
</g>
<!-- node0x7f91f24069c0 -->
<g id="node28" class="node">
<title>node0x7f91f24069c0</title>
<polygon fill="#c1ffc1" stroke="black" points="617.96,-534.44 775.99,-522 934.02,-534.44 933.88,-554.56 618.11,-554.56 617.96,-534.44"/>
<text text-anchor="middle" x="775.99" y="-536.3" font-family="Times,serif" font-size="14.00">FuncCall&lt;Identifier&lt;fact&gt;&gt;:9:14</text>
</g>
<!-- node0x7f91f2406a10&#45;&gt;node0x7f91f24069c0 -->
<g id="edge27" class="edge">
<title>node0x7f91f2406a10&#45;&gt;node0x7f91f24069c0</title>
<path fill="none" stroke="green" d="M775.99,-608.8C775.99,-596.24 775.99,-579.06 775.99,-565.13"/>
<polygon fill="green" stroke="green" points="779.49,-564.81 775.99,-554.81 772.49,-564.81 779.49,-564.81"/>
<text text-anchor="middle" x="780.49" y="-579.8" font-family="Times,serif" font-size="14.00">L</text>
</g>
<!-- node0x7f91f2406970 -->
<g id="node29" class="node">
<title>node0x7f91f2406970</title>
<polygon fill="#c1ffc1" stroke="black" points="733.34,-447.44 775.99,-435 818.65,-447.44 818.61,-467.56 733.38,-467.56 733.34,-447.44"/>
<text text-anchor="middle" x="775.99" y="-449.3" font-family="Times,serif" font-size="14.00">Linker</text>
</g>
<!-- node0x7f91f24069c0&#45;&gt;node0x7f91f2406970 -->
<g id="edge28" class="edge">
<title>node0x7f91f24069c0&#45;&gt;node0x7f91f2406970</title>
<path fill="none" stroke="green" d="M775.99,-521.8C775.99,-509.24 775.99,-492.06 775.99,-478.13"/>
<polygon fill="green" stroke="green" points="779.49,-477.81 775.99,-467.81 772.49,-477.81 779.49,-477.81"/>
<text text-anchor="middle" x="780.49" y="-492.8" font-family="Times,serif" font-size="14.00">L</text>
</g>
<!-- node0x7f91f2406920 -->
<g id="node30" class="node">
<title>node0x7f91f2406920</title>
<polygon fill="#c1ffc1" stroke="black" points="681.4,-360.44 775.99,-348 870.59,-360.44 870.5,-380.56 681.49,-380.56 681.4,-360.44"/>
<text text-anchor="middle" x="775.99" y="-362.3" font-family="Times,serif" font-size="14.00">Input&lt;Input&gt;:9:19</text>
</g>
<!-- node0x7f91f2406970&#45;&gt;node0x7f91f2406920 -->
<g id="edge29" class="edge">
<title>node0x7f91f2406970&#45;&gt;node0x7f91f2406920</title>
<path fill="none" stroke="green" d="M775.99,-434.8C775.99,-422.24 775.99,-405.06 775.99,-391.13"/>
<polygon fill="green" stroke="green" points="779.49,-390.81 775.99,-380.81 772.49,-390.81 779.49,-390.81"/>
<text text-anchor="middle" x="780.49" y="-405.8" font-family="Times,serif" font-size="14.00">L</text>
</g>
</g>
</svg>
