<?xml version="1.0" encoding="UTF-8" standalone="no"?>
<!DOCTYPE svg PUBLIC "-//W3C//DTD SVG 1.1//EN"
 "http://www.w3.org/Graphics/SVG/1.1/DTD/svg11.dtd">
<!-- Generated by graphviz version 2.44.1 (20200629.0846)
 -->
<!-- Title: structure Pages: 1 -->
<svg width="1000pt" height="914pt"
 viewBox="0.00 0.00 999.84 914.00" xmlns="http://www.w3.org/2000/svg" xmlns:xlink="http://www.w3.org/1999/xlink">
<g id="graph0" class="graph" transform="scale(1 1) rotate(0) translate(4 910)">
<title>structure</title>
<polygon fill="white" stroke="transparent" points="-4,4 -4,-910 995.84,-910 995.84,4 -4,4"/>
<!-- node0x7fc79f406880 -->
<g id="node1" class="node">
<title>node0x7fc79f406880</title>
<polygon fill="#c1ffc1" stroke="black" points="371.92,-882.44 414.58,-870 457.24,-882.44 457.2,-902.56 371.96,-902.56 371.92,-882.44"/>
<text text-anchor="middle" x="414.58" y="-884.3" font-family="Times,serif" font-size="14.00">Linker</text>
</g>
<!-- node0x7fc79f406830 -->
<g id="node2" class="node">
<title>node0x7fc79f406830</title>
<polygon fill="#c1ffc1" stroke="black" points="73.87,-795.44 229.58,-783 385.29,-795.44 385.14,-815.56 74.02,-815.56 73.87,-795.44"/>
<text text-anchor="middle" x="229.58" y="-797.3" font-family="Times,serif" font-size="14.00">FuncDecl&lt;Identifier&lt;fib&gt;&gt;:0:13</text>
</g>
<!-- node0x7fc79f406880&#45;&gt;node0x7fc79f406830 -->
<g id="edge1" class="edge">
<title>node0x7fc79f406880&#45;&gt;node0x7fc79f406830</title>
<path fill="none" stroke="green" d="M391.89,-876.58C361.12,-862.44 305.69,-836.97 268.27,-819.78"/>
<polygon fill="green" stroke="green" points="269.72,-816.59 259.17,-815.6 266.8,-822.95 269.72,-816.59"/>
<text text-anchor="middle" x="338.08" y="-840.8" font-family="Times,serif" font-size="14.00">L</text>
</g>
<!-- node0x7fc79f406b00 -->
<g id="node23" class="node">
<title>node0x7fc79f406b00</title>
<polygon fill="#c1ffc1" stroke="black" points="523.92,-882.44 566.58,-870 609.24,-882.44 609.2,-902.56 523.96,-902.56 523.92,-882.44"/>
<text text-anchor="middle" x="566.58" y="-884.3" font-family="Times,serif" font-size="14.00">Linker</text>
</g>
<!-- node0x7fc79f406880&#45;&gt;node0x7fc79f406b00 -->
<g id="edge22" class="edge">
<title>node0x7fc79f406880&#45;&gt;node0x7fc79f406b00</title>
<path fill="none" stroke="red" d="M457.32,-888C474.88,-888 495.39,-888 513.87,-888"/>
<polygon fill="red" stroke="red" points="513.89,-891.5 523.89,-888 513.89,-884.5 513.89,-891.5"/>
<text text-anchor="middle" x="490.58" y="-894.8" font-family="Times,serif" font-size="14.00">R</text>
</g>
<!-- node0x7fc79f405d60 -->
<g id="node3" class="node">
<title>node0x7fc79f405d60</title>
<polygon fill="#c1ffc1" stroke="black" points="45.92,-708.44 88.58,-696 131.24,-708.44 131.2,-728.56 45.96,-728.56 45.92,-708.44"/>
<text text-anchor="middle" x="88.58" y="-710.3" font-family="Times,serif" font-size="14.00">Linker</text>
</g>
<!-- node0x7fc79f406830&#45;&gt;node0x7fc79f405d60 -->
<g id="edge2" class="edge">
<title>node0x7fc79f406830&#45;&gt;node0x7fc79f405d60</title>
<path fill="none" stroke="green" d="M204.37,-784.8C180.81,-770.6 145.54,-749.34 120.12,-734.01"/>
<polygon fill="green" stroke="green" points="121.61,-730.83 111.24,-728.66 118,-736.82 121.61,-730.83"/>
<text text-anchor="middle" x="172.08" y="-753.8" font-family="Times,serif" font-size="14.00">L</text>
</g>
<!-- node0x7fc79f4067e0 -->
<g id="node5" class="node">
<title>node0x7fc79f4067e0</title>
<polygon fill="yellow" stroke="black" points="170.18,-708.44 229.58,-696 288.98,-708.44 288.92,-728.56 170.23,-728.56 170.18,-708.44"/>
<text text-anchor="middle" x="229.58" y="-710.3" font-family="Times,serif" font-size="14.00">Linker(ns)</text>
</g>
<!-- node0x7fc79f406830&#45;&gt;node0x7fc79f4067e0 -->
<g id="edge4" class="edge">
<title>node0x7fc79f406830&#45;&gt;node0x7fc79f4067e0</title>
<path fill="none" stroke="red" d="M229.58,-782.8C229.58,-770.24 229.58,-753.06 229.58,-739.13"/>
<polygon fill="red" stroke="red" points="233.08,-738.81 229.58,-728.81 226.08,-738.81 233.08,-738.81"/>
<text text-anchor="middle" x="234.58" y="-753.8" font-family="Times,serif" font-size="14.00">R</text>
</g>
<!-- node0x7fc79f406240 -->
<g id="node4" class="node">
<title>node0x7fc79f406240</title>
<ellipse fill="aquamarine" stroke="black" cx="67.58" cy="-627" rx="64.99" ry="18"/>
<text text-anchor="middle" x="67.58" y="-623.3" font-family="Times,serif" font-size="14.00">ID&lt;num&gt;:0:17</text>
</g>
<!-- node0x7fc79f405d60&#45;&gt;node0x7fc79f406240 -->
<g id="edge3" class="edge">
<title>node0x7fc79f405d60&#45;&gt;node0x7fc79f406240</title>
<path fill="none" stroke="green" d="M84.63,-697.01C81.71,-685.21 77.67,-668.86 74.26,-655.04"/>
<polygon fill="green" stroke="green" points="77.6,-653.95 71.8,-645.08 70.8,-655.63 77.6,-653.95"/>
<text text-anchor="middle" x="84.08" y="-666.8" font-family="Times,serif" font-size="14.00">L</text>
</g>
<!-- node0x7fc79f406790 -->
<g id="node6" class="node">
<title>node0x7fc79f406790</title>
<polygon fill="#c1ffc1" stroke="black" points="150.62,-621.44 229.58,-609 308.54,-621.44 308.47,-641.56 150.69,-641.56 150.62,-621.44"/>
<text text-anchor="middle" x="229.58" y="-623.3" font-family="Times,serif" font-size="14.00">IfStmt&lt;If&gt;:1:6</text>
</g>
<!-- node0x7fc79f4067e0&#45;&gt;node0x7fc79f406790 -->
<g id="edge5" class="edge">
<title>node0x7fc79f4067e0&#45;&gt;node0x7fc79f406790</title>
<path fill="none" stroke="green" d="M229.58,-695.8C229.58,-683.24 229.58,-666.06 229.58,-652.13"/>
<polygon fill="green" stroke="green" points="233.08,-651.81 229.58,-641.81 226.08,-651.81 233.08,-651.81"/>
<text text-anchor="middle" x="234.08" y="-666.8" font-family="Times,serif" font-size="14.00">L</text>
</g>
<!-- node0x7fc79f406330 -->
<g id="node7" class="node">
<title>node0x7fc79f406330</title>
<polygon fill="#c1ffc1" stroke="black" points="103.32,-534.44 229.58,-522 355.84,-534.44 355.72,-554.56 103.44,-554.56 103.32,-534.44"/>
<text text-anchor="middle" x="229.58" y="-536.3" font-family="Times,serif" font-size="14.00">CmpOperator&lt;Leq&gt;:1:30</text>
</g>
<!-- node0x7fc79f406790&#45;&gt;node0x7fc79f406330 -->
<g id="edge6" class="edge">
<title>node0x7fc79f406790&#45;&gt;node0x7fc79f406330</title>
<path fill="none" stroke="green" d="M229.58,-608.8C229.58,-596.24 229.58,-579.06 229.58,-565.13"/>
<polygon fill="green" stroke="green" points="233.08,-564.81 229.58,-554.81 226.08,-564.81 233.08,-564.81"/>
<text text-anchor="middle" x="234.08" y="-579.8" font-family="Times,serif" font-size="14.00">L</text>
</g>
<!-- node0x7fc79f406740 -->
<g id="node10" class="node">
<title>node0x7fc79f406740</title>
<polygon fill="#c1ffc1" stroke="black" points="-0.08,-534.44 42.58,-522 85.24,-534.44 85.2,-554.56 -0.04,-554.56 -0.08,-534.44"/>
<text text-anchor="middle" x="42.58" y="-536.3" font-family="Times,serif" font-size="14.00">Linker</text>
</g>
<!-- node0x7fc79f406790&#45;&gt;node0x7fc79f406740 -->
<g id="edge9" class="edge">
<title>node0x7fc79f406790&#45;&gt;node0x7fc79f406740</title>
<path fill="none" stroke="red" d="M188.65,-615.37C168.06,-609.37 142.99,-601.05 121.58,-591 103.57,-582.55 84.7,-570.73 69.92,-560.7"/>
<polygon fill="red" stroke="red" points="71.5,-557.54 61.29,-554.74 67.52,-563.3 71.5,-557.54"/>
<text text-anchor="middle" x="126.58" y="-579.8" font-family="Times,serif" font-size="14.00">R</text>
</g>
<!-- node0x7fc79f406290 -->
<g id="node8" class="node">
<title>node0x7fc79f406290</title>
<ellipse fill="aquamarine" stroke="black" cx="229.58" cy="-453" rx="64.99" ry="18"/>
<text text-anchor="middle" x="229.58" y="-449.3" font-family="Times,serif" font-size="14.00">ID&lt;num&gt;:1:26</text>
</g>
<!-- node0x7fc79f406330&#45;&gt;node0x7fc79f406290 -->
<g id="edge7" class="edge">
<title>node0x7fc79f406330&#45;&gt;node0x7fc79f406290</title>
<path fill="none" stroke="green" d="M229.58,-521.8C229.58,-510.16 229.58,-494.55 229.58,-481.24"/>
<polygon fill="green" stroke="green" points="233.08,-481.18 229.58,-471.18 226.08,-481.18 233.08,-481.18"/>
<text text-anchor="middle" x="234.08" y="-492.8" font-family="Times,serif" font-size="14.00">L</text>
</g>
<!-- node0x7fc79f4062e0 -->
<g id="node9" class="node">
<title>node0x7fc79f4062e0</title>
<ellipse fill="pink" stroke="black" cx="73.58" cy="-453" rx="73.39" ry="18"/>
<text text-anchor="middle" x="73.58" y="-449.3" font-family="Times,serif" font-size="14.00">Number&lt;1&gt;:1:33</text>
</g>
<!-- node0x7fc79f406330&#45;&gt;node0x7fc79f4062e0 -->
<g id="edge8" class="edge">
<title>node0x7fc79f406330&#45;&gt;node0x7fc79f4062e0</title>
<path fill="none" stroke="red" d="M203.12,-524.58C177.86,-510.82 139.55,-489.95 111.14,-474.47"/>
<polygon fill="red" stroke="red" points="112.75,-471.36 102.29,-469.64 109.4,-477.5 112.75,-471.36"/>
<text text-anchor="middle" x="166.58" y="-492.8" font-family="Times,serif" font-size="14.00">R</text>
</g>
<!-- node0x7fc79f406420 -->
<g id="node11" class="node">
<title>node0x7fc79f406420</title>
<polygon fill="yellow" stroke="black" points="511.18,-534.44 570.58,-522 629.98,-534.44 629.92,-554.56 511.23,-554.56 511.18,-534.44"/>
<text text-anchor="middle" x="570.58" y="-536.3" font-family="Times,serif" font-size="14.00">Linker(ns)</text>
</g>
<!-- node0x7fc79f406740&#45;&gt;node0x7fc79f406420 -->
<g id="edge10" class="edge">
<title>node0x7fc79f406740&#45;&gt;node0x7fc79f406420</title>
<path fill="none" stroke="green" d="M66.13,-554.66C84.43,-565.15 110.87,-578.36 136.08,-584 139.98,-584.87 141.08,-584.15 145.08,-584 303.84,-578.22 344.84,-583.94 501.58,-558 503.95,-557.61 506.36,-557.17 508.78,-556.7"/>
<polygon fill="green" stroke="green" points="509.74,-560.08 518.8,-554.59 508.3,-553.23 509.74,-560.08"/>
<text text-anchor="middle" x="140.58" y="-579.8" font-family="Times,serif" font-size="14.00">L</text>
</g>
<!-- node0x7fc79f4066f0 -->
<g id="node14" class="node">
<title>node0x7fc79f4066f0</title>
<polygon fill="yellow" stroke="black" points="374.18,-534.44 433.58,-522 492.98,-534.44 492.92,-554.56 374.23,-554.56 374.18,-534.44"/>
<text text-anchor="middle" x="433.58" y="-536.3" font-family="Times,serif" font-size="14.00">Linker(ns)</text>
</g>
<!-- node0x7fc79f406740&#45;&gt;node0x7fc79f4066f0 -->
<g id="edge13" class="edge">
<title>node0x7fc79f406740&#45;&gt;node0x7fc79f4066f0</title>
<path fill="none" stroke="red" d="M77.83,-554.65C105.49,-565.28 145.26,-578.69 181.58,-584 252.44,-594.36 334.01,-574.21 384.69,-557.88"/>
<polygon fill="red" stroke="red" points="386,-561.13 394.4,-554.67 383.81,-554.48 386,-561.13"/>
<text text-anchor="middle" x="186.58" y="-579.8" font-family="Times,serif" font-size="14.00">R</text>
</g>
<!-- node0x7fc79f4063d0 -->
<g id="node12" class="node">
<title>node0x7fc79f4063d0</title>
<polygon fill="#c1ffc1" stroke="black" points="565.49,-447.44 682.58,-435 799.66,-447.44 799.55,-467.56 565.6,-467.56 565.49,-447.44"/>
<text text-anchor="middle" x="682.58" y="-449.3" font-family="Times,serif" font-size="14.00">ReturnStmt&lt;None&gt;:0:0</text>
</g>
<!-- node0x7fc79f406420&#45;&gt;node0x7fc79f4063d0 -->
<g id="edge11" class="edge">
<title>node0x7fc79f406420&#45;&gt;node0x7fc79f4063d0</title>
<path fill="none" stroke="green" d="M588.57,-525.34C606.94,-511.4 635.64,-489.62 656.5,-473.79"/>
<polygon fill="green" stroke="green" points="658.78,-476.46 664.63,-467.62 654.55,-470.88 658.78,-476.46"/>
<text text-anchor="middle" x="637.08" y="-492.8" font-family="Times,serif" font-size="14.00">L</text>
</g>
<!-- node0x7fc79f406380 -->
<g id="node13" class="node">
<title>node0x7fc79f406380</title>
<ellipse fill="pink" stroke="black" cx="680.58" cy="-366" rx="73.39" ry="18"/>
<text text-anchor="middle" x="680.58" y="-362.3" font-family="Times,serif" font-size="14.00">Number&lt;1&gt;:2:39</text>
</g>
<!-- node0x7fc79f4063d0&#45;&gt;node0x7fc79f406380 -->
<g id="edge12" class="edge">
<title>node0x7fc79f4063d0&#45;&gt;node0x7fc79f406380</title>
<path fill="none" stroke="green" d="M682.17,-434.8C681.9,-423.16 681.53,-407.55 681.22,-394.24"/>
<polygon fill="green" stroke="green" points="684.72,-394.09 680.98,-384.18 677.72,-394.26 684.72,-394.09"/>
<text text-anchor="middle" x="686.08" y="-405.8" font-family="Times,serif" font-size="14.00">L</text>
</g>
<!-- node0x7fc79f4066a0 -->
<g id="node15" class="node">
<title>node0x7fc79f4066a0</title>
<polygon fill="#c1ffc1" stroke="black" points="312.49,-447.44 429.58,-435 546.66,-447.44 546.55,-467.56 312.6,-467.56 312.49,-447.44"/>
<text text-anchor="middle" x="429.58" y="-449.3" font-family="Times,serif" font-size="14.00">ReturnStmt&lt;None&gt;:0:0</text>
</g>
<!-- node0x7fc79f4066f0&#45;&gt;node0x7fc79f4066a0 -->
<g id="edge14" class="edge">
<title>node0x7fc79f4066f0&#45;&gt;node0x7fc79f4066a0</title>
<path fill="none" stroke="green" d="M432.77,-521.8C432.18,-509.24 431.37,-492.06 430.71,-478.13"/>
<polygon fill="green" stroke="green" points="434.19,-477.63 430.23,-467.81 427.2,-477.96 434.19,-477.63"/>
<text text-anchor="middle" x="436.08" y="-492.8" font-family="Times,serif" font-size="14.00">L</text>
</g>
<!-- node0x7fc79f406650 -->
<g id="node16" class="node">
<title>node0x7fc79f406650</title>
<polygon fill="#c1ffc1" stroke="black" points="308.46,-360.44 429.58,-348 550.7,-360.44 550.58,-380.56 308.57,-380.56 308.46,-360.44"/>
<text text-anchor="middle" x="429.58" y="-362.3" font-family="Times,serif" font-size="14.00">MaOperator&lt;Mul&gt;:4:53</text>
</g>
<!-- node0x7fc79f4066a0&#45;&gt;node0x7fc79f406650 -->
<g id="edge15" class="edge">
<title>node0x7fc79f4066a0&#45;&gt;node0x7fc79f406650</title>
<path fill="none" stroke="green" d="M429.58,-434.8C429.58,-422.24 429.58,-405.06 429.58,-391.13"/>
<polygon fill="green" stroke="green" points="433.08,-390.81 429.58,-380.81 426.08,-390.81 433.08,-390.81"/>
<text text-anchor="middle" x="434.08" y="-405.8" font-family="Times,serif" font-size="14.00">L</text>
</g>
<!-- node0x7fc79f4065b0 -->
<g id="node17" class="node">
<title>node0x7fc79f4065b0</title>
<polygon fill="#c1ffc1" stroke="black" points="150.55,-273.44 308.58,-261 466.61,-273.44 466.46,-293.56 150.7,-293.56 150.55,-273.44"/>
<text text-anchor="middle" x="308.58" y="-275.3" font-family="Times,serif" font-size="14.00">FuncCall&lt;Identifier&lt;fact&gt;&gt;:4:39</text>
</g>
<!-- node0x7fc79f406650&#45;&gt;node0x7fc79f4065b0 -->
<g id="edge16" class="edge">
<title>node0x7fc79f406650&#45;&gt;node0x7fc79f4065b0</title>
<path fill="none" stroke="green" d="M408.22,-350C388.22,-335.95 358.21,-314.86 336.35,-299.51"/>
<polygon fill="green" stroke="green" points="338.31,-296.61 328.12,-293.73 334.29,-302.34 338.31,-296.61"/>
<text text-anchor="middle" x="381.08" y="-318.8" font-family="Times,serif" font-size="14.00">L</text>
</g>
<!-- node0x7fc79f406600 -->
<g id="node22" class="node">
<title>node0x7fc79f406600</title>
<ellipse fill="aquamarine" stroke="black" cx="549.58" cy="-279" rx="64.99" ry="18"/>
<text text-anchor="middle" x="549.58" y="-275.3" font-family="Times,serif" font-size="14.00">ID&lt;num&gt;:4:55</text>
</g>
<!-- node0x7fc79f406650&#45;&gt;node0x7fc79f406600 -->
<g id="edge21" class="edge">
<title>node0x7fc79f406650&#45;&gt;node0x7fc79f406600</title>
<path fill="none" stroke="red" d="M450.76,-350C469.56,-336.68 497.28,-317.04 518.58,-301.95"/>
<polygon fill="red" stroke="red" points="520.85,-304.64 526.98,-296.01 516.8,-298.93 520.85,-304.64"/>
<text text-anchor="middle" x="501.58" y="-318.8" font-family="Times,serif" font-size="14.00">R</text>
</g>
<!-- node0x7fc79f406560 -->
<g id="node18" class="node">
<title>node0x7fc79f406560</title>
<polygon fill="#c1ffc1" stroke="black" points="265.92,-186.44 308.58,-174 351.24,-186.44 351.2,-206.56 265.96,-206.56 265.92,-186.44"/>
<text text-anchor="middle" x="308.58" y="-188.3" font-family="Times,serif" font-size="14.00">Linker</text>
</g>
<!-- node0x7fc79f4065b0&#45;&gt;node0x7fc79f406560 -->
<g id="edge17" class="edge">
<title>node0x7fc79f4065b0&#45;&gt;node0x7fc79f406560</title>
<path fill="none" stroke="green" d="M308.58,-260.8C308.58,-248.24 308.58,-231.06 308.58,-217.13"/>
<polygon fill="green" stroke="green" points="312.08,-216.81 308.58,-206.81 305.08,-216.81 312.08,-216.81"/>
<text text-anchor="middle" x="313.08" y="-231.8" font-family="Times,serif" font-size="14.00">L</text>
</g>
<!-- node0x7fc79f406510 -->
<g id="node19" class="node">
<title>node0x7fc79f406510</title>
<polygon fill="#c1ffc1" stroke="black" points="177.68,-99.44 308.58,-87 439.48,-99.44 439.36,-119.56 177.8,-119.56 177.68,-99.44"/>
<text text-anchor="middle" x="308.58" y="-101.3" font-family="Times,serif" font-size="14.00">MaOperator&lt;Minus&gt;:4:48</text>
</g>
<!-- node0x7fc79f406560&#45;&gt;node0x7fc79f406510 -->
<g id="edge18" class="edge">
<title>node0x7fc79f406560&#45;&gt;node0x7fc79f406510</title>
<path fill="none" stroke="green" d="M308.58,-173.8C308.58,-161.24 308.58,-144.06 308.58,-130.13"/>
<polygon fill="green" stroke="green" points="312.08,-129.81 308.58,-119.81 305.08,-129.81 312.08,-129.81"/>
<text text-anchor="middle" x="313.08" y="-144.8" font-family="Times,serif" font-size="14.00">L</text>
</g>
<!-- node0x7fc79f406470 -->
<g id="node20" class="node">
<title>node0x7fc79f406470</title>
<ellipse fill="aquamarine" stroke="black" cx="230.58" cy="-18" rx="64.99" ry="18"/>
<text text-anchor="middle" x="230.58" y="-14.3" font-family="Times,serif" font-size="14.00">ID&lt;num&gt;:4:44</text>
</g>
<!-- node0x7fc79f406510&#45;&gt;node0x7fc79f406470 -->
<g id="edge19" class="edge">
<title>node0x7fc79f406510&#45;&gt;node0x7fc79f406470</title>
<path fill="none" stroke="green" d="M293.91,-88.01C282.36,-75.43 266.09,-57.7 252.93,-43.35"/>
<polygon fill="green" stroke="green" points="255.32,-40.79 245.98,-35.79 250.17,-45.52 255.32,-40.79"/>
<text text-anchor="middle" x="279.08" y="-57.8" font-family="Times,serif" font-size="14.00">L</text>
</g>
<!-- node0x7fc79f4064c0 -->
<g id="node21" class="node">
<title>node0x7fc79f4064c0</title>
<ellipse fill="pink" stroke="black" cx="386.58" cy="-18" rx="73.39" ry="18"/>
<text text-anchor="middle" x="386.58" y="-14.3" font-family="Times,serif" font-size="14.00">Number&lt;1&gt;:4:50</text>
</g>
<!-- node0x7fc79f406510&#45;&gt;node0x7fc79f4064c0 -->
<g id="edge20" class="edge">
<title>node0x7fc79f406510&#45;&gt;node0x7fc79f4064c0</title>
<path fill="none" stroke="red" d="M323.25,-88.01C334.79,-75.43 351.07,-57.7 364.23,-43.35"/>
<polygon fill="red" stroke="red" points="366.99,-45.52 371.17,-35.79 361.83,-40.79 366.99,-45.52"/>
<text text-anchor="middle" x="357.58" y="-57.8" font-family="Times,serif" font-size="14.00">R</text>
</g>
<!-- node0x7fc79f406ab0 -->
<g id="node24" class="node">
<title>node0x7fc79f406ab0</title>
<polygon fill="#c1ffc1" stroke="black" points="437.25,-795.44 631.58,-783 825.91,-795.44 825.73,-815.56 437.43,-815.56 437.25,-795.44"/>
<text text-anchor="middle" x="631.58" y="-797.3" font-family="Times,serif" font-size="14.00">FuncDecl&lt;Identifier&lt;giveYouUp&gt;&gt;:8:14</text>
</g>
<!-- node0x7fc79f406b00&#45;&gt;node0x7fc79f406ab0 -->
<g id="edge23" class="edge">
<title>node0x7fc79f406b00&#45;&gt;node0x7fc79f406ab0</title>
<path fill="none" stroke="green" d="M577.31,-872.96C587.53,-859.6 603.07,-839.27 614.91,-823.8"/>
<polygon fill="green" stroke="green" points="617.75,-825.84 621.05,-815.77 612.19,-821.59 617.75,-825.84"/>
<text text-anchor="middle" x="607.08" y="-840.8" font-family="Times,serif" font-size="14.00">L</text>
</g>
<!-- node0x7fc79f4068d0 -->
<g id="node25" class="node">
<title>node0x7fc79f4068d0</title>
<polygon fill="#c1ffc1" stroke="black" points="541.02,-708.44 631.58,-696 722.14,-708.44 722.06,-728.56 541.1,-728.56 541.02,-708.44"/>
<text text-anchor="middle" x="631.58" y="-710.3" font-family="Times,serif" font-size="14.00">None&lt;None&gt;:0:0</text>
</g>
<!-- node0x7fc79f406ab0&#45;&gt;node0x7fc79f4068d0 -->
<g id="edge24" class="edge">
<title>node0x7fc79f406ab0&#45;&gt;node0x7fc79f4068d0</title>
<path fill="none" stroke="green" d="M631.58,-782.8C631.58,-770.24 631.58,-753.06 631.58,-739.13"/>
<polygon fill="green" stroke="green" points="635.08,-738.81 631.58,-728.81 628.08,-738.81 635.08,-738.81"/>
<text text-anchor="middle" x="636.08" y="-753.8" font-family="Times,serif" font-size="14.00">L</text>
</g>
<!-- node0x7fc79f406a60 -->
<g id="node26" class="node">
<title>node0x7fc79f406a60</title>
<polygon fill="yellow" stroke="black" points="757.18,-708.44 816.58,-696 875.98,-708.44 875.92,-728.56 757.23,-728.56 757.18,-708.44"/>
<text text-anchor="middle" x="816.58" y="-710.3" font-family="Times,serif" font-size="14.00">Linker(ns)</text>
</g>
<!-- node0x7fc79f406ab0&#45;&gt;node0x7fc79f406a60 -->
<g id="edge25" class="edge">
<title>node0x7fc79f406ab0&#45;&gt;node0x7fc79f406a60</title>
<path fill="none" stroke="red" d="M664.23,-785C695.85,-770.47 743.84,-748.42 777.49,-732.96"/>
<polygon fill="red" stroke="red" points="779.38,-735.94 787,-728.59 776.46,-729.58 779.38,-735.94"/>
<text text-anchor="middle" x="739.58" y="-753.8" font-family="Times,serif" font-size="14.00">R</text>
</g>
<!-- node0x7fc79f406a10 -->
<g id="node27" class="node">
<title>node0x7fc79f406a10</title>
<polygon fill="#c1ffc1" stroke="black" points="740.34,-621.44 828.58,-609 916.82,-621.44 916.74,-641.56 740.42,-641.56 740.34,-621.44"/>
<text text-anchor="middle" x="828.58" y="-623.3" font-family="Times,serif" font-size="14.00">Print&lt;None&gt;:0:0</text>
</g>
<!-- node0x7fc79f406a60&#45;&gt;node0x7fc79f406a10 -->
<g id="edge26" class="edge">
<title>node0x7fc79f406a60&#45;&gt;node0x7fc79f406a10</title>
<path fill="none" stroke="green" d="M818.95,-696.21C820.75,-683.48 823.24,-665.84 825.24,-651.68"/>
<polygon fill="green" stroke="green" points="828.72,-652.07 826.65,-641.68 821.78,-651.09 828.72,-652.07"/>
<text text-anchor="middle" x="827.08" y="-666.8" font-family="Times,serif" font-size="14.00">L</text>
</g>
<!-- node0x7fc79f4069c0 -->
<g id="node28" class="node">
<title>node0x7fc79f4069c0</title>
<polygon fill="#c1ffc1" stroke="black" points="675.55,-534.44 833.58,-522 991.61,-534.44 991.46,-554.56 675.7,-554.56 675.55,-534.44"/>
<text text-anchor="middle" x="833.58" y="-536.3" font-family="Times,serif" font-size="14.00">FuncCall&lt;Identifier&lt;fact&gt;&gt;:9:14</text>
</g>
<!-- node0x7fc79f406a10&#45;&gt;node0x7fc79f4069c0 -->
<g id="edge27" class="edge">
<title>node0x7fc79f406a10&#45;&gt;node0x7fc79f4069c0</title>
<path fill="none" stroke="green" d="M829.59,-608.8C830.33,-596.24 831.34,-579.06 832.16,-565.13"/>
<polygon fill="green" stroke="green" points="835.67,-565 832.77,-554.81 828.69,-564.59 835.67,-565"/>
<text text-anchor="middle" x="835.08" y="-579.8" font-family="Times,serif" font-size="14.00">L</text>
</g>
<!-- node0x7fc79f406970 -->
<g id="node29" class="node">
<title>node0x7fc79f406970</title>
<polygon fill="#c1ffc1" stroke="black" points="821.92,-447.44 864.58,-435 907.24,-447.44 907.2,-467.56 821.96,-467.56 821.92,-447.44"/>
<text text-anchor="middle" x="864.58" y="-449.3" font-family="Times,serif" font-size="14.00">Linker</text>
</g>
<!-- node0x7fc79f4069c0&#45;&gt;node0x7fc79f406970 -->
<g id="edge28" class="edge">
<title>node0x7fc79f4069c0&#45;&gt;node0x7fc79f406970</title>
<path fill="none" stroke="green" d="M839.7,-522.21C844.39,-509.36 850.91,-491.49 856.09,-477.27"/>
<polygon fill="green" stroke="green" points="859.45,-478.27 859.59,-467.68 852.88,-475.87 859.45,-478.27"/>
<text text-anchor="middle" x="855.08" y="-492.8" font-family="Times,serif" font-size="14.00">L</text>
</g>
<!-- node0x7fc79f406920 -->
<g id="node30" class="node">
<title>node0x7fc79f406920</title>
<polygon fill="#c1ffc1" stroke="black" points="771.98,-360.44 866.58,-348 961.18,-360.44 961.09,-380.56 772.07,-380.56 771.98,-360.44"/>
<text text-anchor="middle" x="866.58" y="-362.3" font-family="Times,serif" font-size="14.00">Input&lt;Input&gt;:9:19</text>
</g>
<!-- node0x7fc79f406970&#45;&gt;node0x7fc79f406920 -->
<g id="edge29" class="edge">
<title>node0x7fc79f406970&#45;&gt;node0x7fc79f406920</title>
<path fill="none" stroke="green" d="M864.98,-434.8C865.28,-422.24 865.68,-405.06 866.01,-391.13"/>
<polygon fill="green" stroke="green" points="869.52,-390.89 866.25,-380.81 862.52,-390.73 869.52,-390.89"/>
<text text-anchor="middle" x="870.08" y="-405.8" font-family="Times,serif" font-size="14.00">L</text>
</g>
</g>
</svg>
