<?xml version="1.0" encoding="UTF-8" standalone="no"?>
<!DOCTYPE svg PUBLIC "-//W3C//DTD SVG 1.1//EN"
 "http://www.w3.org/Graphics/SVG/1.1/DTD/svg11.dtd">
<!-- Generated by graphviz version 2.44.1 (20200629.0846)
 -->
<!-- Title: structure Pages: 1 -->
<svg width="1458pt" height="827pt"
 viewBox="0.00 0.00 1458.15 827.00" xmlns="http://www.w3.org/2000/svg" xmlns:xlink="http://www.w3.org/1999/xlink">
<g id="graph0" class="graph" transform="scale(1 1) rotate(0) translate(4 823)">
<title>structure</title>
<polygon fill="white" stroke="transparent" points="-4,4 -4,-823 1454.15,-823 1454.15,4 -4,4"/>
<!-- node0x7feacdc063d0 -->
<g id="node1" class="node">
<title>node0x7feacdc063d0</title>
<polygon fill="#c1ffc1" stroke="black" points="343.12,-795.44 385.78,-783 428.44,-795.44 428.4,-815.56 343.16,-815.56 343.12,-795.44"/>
<text text-anchor="middle" x="385.78" y="-797.3" font-family="Times,serif" font-size="14.00">Linker</text>
</g>
<!-- node0x7feacdc06380 -->
<g id="node2" class="node">
<title>node0x7feacdc06380</title>
<polygon fill="#c1ffc1" stroke="black" points="64.45,-708.44 258.78,-696 453.11,-708.44 452.93,-728.56 64.63,-728.56 64.45,-708.44"/>
<text text-anchor="middle" x="258.78" y="-710.3" font-family="Times,serif" font-size="14.00">FuncDecl&lt;Identifier&lt;giveYouUp&gt;&gt;:0:13</text>
</g>
<!-- node0x7feacdc063d0&#45;&gt;node0x7feacdc06380 -->
<g id="edge1" class="edge">
<title>node0x7feacdc063d0&#45;&gt;node0x7feacdc06380</title>
<path fill="none" stroke="green" d="M367.85,-788C347.03,-774.06 312.38,-750.87 287.72,-734.37"/>
<polygon fill="green" stroke="green" points="289.39,-731.28 279.14,-728.62 285.5,-737.09 289.39,-731.28"/>
<text text-anchor="middle" x="335.28" y="-753.8" font-family="Times,serif" font-size="14.00">L</text>
</g>
<!-- node0x7feacdc06b00 -->
<g id="node7" class="node">
<title>node0x7feacdc06b00</title>
<polygon fill="#c1ffc1" stroke="black" points="500.12,-708.44 542.78,-696 585.44,-708.44 585.4,-728.56 500.16,-728.56 500.12,-708.44"/>
<text text-anchor="middle" x="542.78" y="-710.3" font-family="Times,serif" font-size="14.00">Linker</text>
</g>
<!-- node0x7feacdc063d0&#45;&gt;node0x7feacdc06b00 -->
<g id="edge6" class="edge">
<title>node0x7feacdc063d0&#45;&gt;node0x7feacdc06b00</title>
<path fill="none" stroke="red" d="M406.31,-788.89C432.33,-774.8 477.56,-750.31 508.78,-733.41"/>
<polygon fill="red" stroke="red" points="510.45,-736.48 517.58,-728.64 507.12,-730.33 510.45,-736.48"/>
<text text-anchor="middle" x="478.78" y="-753.8" font-family="Times,serif" font-size="14.00">R</text>
</g>
<!-- node0x7feacdc05d60 -->
<g id="node3" class="node">
<title>node0x7feacdc05d60</title>
<polygon fill="#c1ffc1" stroke="black" points="0.22,-621.44 90.78,-609 181.34,-621.44 181.26,-641.56 0.3,-641.56 0.22,-621.44"/>
<text text-anchor="middle" x="90.78" y="-623.3" font-family="Times,serif" font-size="14.00">None&lt;None&gt;:0:0</text>
</g>
<!-- node0x7feacdc06380&#45;&gt;node0x7feacdc05d60 -->
<g id="edge2" class="edge">
<title>node0x7feacdc06380&#45;&gt;node0x7feacdc05d60</title>
<path fill="none" stroke="green" d="M228.75,-697.8C200.18,-683.35 157.17,-661.59 126.78,-646.21"/>
<polygon fill="green" stroke="green" points="128.29,-643.05 117.78,-641.66 125.12,-649.3 128.29,-643.05"/>
<text text-anchor="middle" x="190.28" y="-666.8" font-family="Times,serif" font-size="14.00">L</text>
</g>
<!-- node0x7feacdc06330 -->
<g id="node4" class="node">
<title>node0x7feacdc06330</title>
<polygon fill="yellow" stroke="black" points="199.38,-621.44 258.78,-609 318.18,-621.44 318.12,-641.56 199.44,-641.56 199.38,-621.44"/>
<text text-anchor="middle" x="258.78" y="-623.3" font-family="Times,serif" font-size="14.00">Linker(ns)</text>
</g>
<!-- node0x7feacdc06380&#45;&gt;node0x7feacdc06330 -->
<g id="edge3" class="edge">
<title>node0x7feacdc06380&#45;&gt;node0x7feacdc06330</title>
<path fill="none" stroke="red" d="M258.78,-695.8C258.78,-683.24 258.78,-666.06 258.78,-652.13"/>
<polygon fill="red" stroke="red" points="262.28,-651.81 258.78,-641.81 255.28,-651.81 262.28,-651.81"/>
<text text-anchor="middle" x="263.78" y="-666.8" font-family="Times,serif" font-size="14.00">R</text>
</g>
<!-- node0x7feacdc062e0 -->
<g id="node5" class="node">
<title>node0x7feacdc062e0</title>
<polygon fill="#c1ffc1" stroke="black" points="18.47,-534.44 246.78,-522 475.1,-534.44 474.88,-554.56 18.68,-554.56 18.47,-534.44"/>
<text text-anchor="middle" x="246.78" y="-536.3" font-family="Times,serif" font-size="14.00">FuncCall&lt;Identifier&lt;solveSquareEquation&gt;&gt;:1:6</text>
</g>
<!-- node0x7feacdc06330&#45;&gt;node0x7feacdc062e0 -->
<g id="edge4" class="edge">
<title>node0x7feacdc06330&#45;&gt;node0x7feacdc062e0</title>
<path fill="none" stroke="green" d="M256.41,-609.21C254.61,-596.48 252.12,-578.84 250.12,-564.68"/>
<polygon fill="green" stroke="green" points="253.58,-564.09 248.71,-554.68 246.64,-565.07 253.58,-564.09"/>
<text text-anchor="middle" x="258.28" y="-579.8" font-family="Times,serif" font-size="14.00">L</text>
</g>
<!-- node0x7feacdc06290 -->
<g id="node6" class="node">
<title>node0x7feacdc06290</title>
<polygon fill="#c1ffc1" stroke="black" points="156.22,-447.44 246.78,-435 337.34,-447.44 337.26,-467.56 156.3,-467.56 156.22,-447.44"/>
<text text-anchor="middle" x="246.78" y="-449.3" font-family="Times,serif" font-size="14.00">None&lt;None&gt;:0:0</text>
</g>
<!-- node0x7feacdc062e0&#45;&gt;node0x7feacdc06290 -->
<g id="edge5" class="edge">
<title>node0x7feacdc062e0&#45;&gt;node0x7feacdc06290</title>
<path fill="none" stroke="green" d="M246.78,-521.8C246.78,-509.24 246.78,-492.06 246.78,-478.13"/>
<polygon fill="green" stroke="green" points="250.28,-477.81 246.78,-467.81 243.28,-477.81 250.28,-477.81"/>
<text text-anchor="middle" x="251.28" y="-492.8" font-family="Times,serif" font-size="14.00">L</text>
</g>
<!-- node0x7feacdc06ab0 -->
<g id="node8" class="node">
<title>node0x7feacdc06ab0</title>
<polygon fill="#c1ffc1" stroke="black" points="347.4,-621.44 583.78,-609 820.16,-621.44 819.94,-641.56 347.62,-641.56 347.4,-621.44"/>
<text text-anchor="middle" x="583.78" y="-623.3" font-family="Times,serif" font-size="14.00">FuncDecl&lt;Identifier&lt;solveSquareEquation&gt;&gt;:4:14</text>
</g>
<!-- node0x7feacdc06b00&#45;&gt;node0x7feacdc06ab0 -->
<g id="edge7" class="edge">
<title>node0x7feacdc06b00&#45;&gt;node0x7feacdc06ab0</title>
<path fill="none" stroke="green" d="M550.11,-697.8C556.42,-684.72 565.62,-665.65 572.81,-650.75"/>
<polygon fill="green" stroke="green" points="576,-652.19 577.19,-641.66 569.69,-649.15 576,-652.19"/>
<text text-anchor="middle" x="570.28" y="-666.8" font-family="Times,serif" font-size="14.00">L</text>
</g>
<!-- node0x7feacdc06420 -->
<g id="node9" class="node">
<title>node0x7feacdc06420</title>
<polygon fill="#c1ffc1" stroke="black" points="493.22,-534.44 583.78,-522 674.34,-534.44 674.26,-554.56 493.3,-554.56 493.22,-534.44"/>
<text text-anchor="middle" x="583.78" y="-536.3" font-family="Times,serif" font-size="14.00">None&lt;None&gt;:0:0</text>
</g>
<!-- node0x7feacdc06ab0&#45;&gt;node0x7feacdc06420 -->
<g id="edge8" class="edge">
<title>node0x7feacdc06ab0&#45;&gt;node0x7feacdc06420</title>
<path fill="none" stroke="green" d="M583.78,-608.8C583.78,-596.24 583.78,-579.06 583.78,-565.13"/>
<polygon fill="green" stroke="green" points="587.28,-564.81 583.78,-554.81 580.28,-564.81 587.28,-564.81"/>
<text text-anchor="middle" x="588.28" y="-579.8" font-family="Times,serif" font-size="14.00">L</text>
</g>
<!-- node0x7feacdc06510 -->
<g id="node10" class="node">
<title>node0x7feacdc06510</title>
<polygon fill="yellow" stroke="black" points="692.38,-534.44 751.78,-522 811.18,-534.44 811.12,-554.56 692.44,-554.56 692.38,-534.44"/>
<text text-anchor="middle" x="751.78" y="-536.3" font-family="Times,serif" font-size="14.00">Linker(ns)</text>
</g>
<!-- node0x7feacdc06ab0&#45;&gt;node0x7feacdc06510 -->
<g id="edge9" class="edge">
<title>node0x7feacdc06ab0&#45;&gt;node0x7feacdc06510</title>
<path fill="none" stroke="red" d="M614.59,-610.41C643.06,-596.01 685.36,-574.6 715.46,-559.38"/>
<polygon fill="red" stroke="red" points="717.43,-562.3 724.77,-554.67 714.27,-556.06 717.43,-562.3"/>
<text text-anchor="middle" x="683.78" y="-579.8" font-family="Times,serif" font-size="14.00">R</text>
</g>
<!-- node0x7feacdc06470 -->
<g id="node11" class="node">
<title>node0x7feacdc06470</title>
<polygon fill="#c1ffc1" stroke="black" points="533.81,-447.44 672.78,-435 811.75,-447.44 811.62,-467.56 533.94,-467.56 533.81,-447.44"/>
<text text-anchor="middle" x="672.78" y="-449.3" font-family="Times,serif" font-size="14.00">VarDef&lt;Identifier&lt;x&gt;&gt;:5:15</text>
</g>
<!-- node0x7feacdc06510&#45;&gt;node0x7feacdc06470 -->
<g id="edge10" class="edge">
<title>node0x7feacdc06510&#45;&gt;node0x7feacdc06470</title>
<path fill="none" stroke="green" d="M738.38,-524.58C725.78,-511.03 706.78,-490.58 692.46,-475.18"/>
<polygon fill="green" stroke="green" points="694.83,-472.59 685.46,-467.64 689.71,-477.35 694.83,-472.59"/>
<text text-anchor="middle" x="722.28" y="-492.8" font-family="Times,serif" font-size="14.00">L</text>
</g>
<!-- node0x7feacdc06830 -->
<g id="node13" class="node">
<title>node0x7feacdc06830</title>
<polygon fill="#c1ffc1" stroke="black" points="830.12,-447.44 872.78,-435 915.44,-447.44 915.4,-467.56 830.16,-467.56 830.12,-447.44"/>
<text text-anchor="middle" x="872.78" y="-449.3" font-family="Times,serif" font-size="14.00">Linker</text>
</g>
<!-- node0x7feacdc06510&#45;&gt;node0x7feacdc06830 -->
<g id="edge12" class="edge">
<title>node0x7feacdc06510&#45;&gt;node0x7feacdc06830</title>
<path fill="none" stroke="red" d="M770.69,-525.72C790.61,-511.72 822.19,-489.54 844.96,-473.55"/>
<polygon fill="red" stroke="red" points="847.04,-476.36 853.21,-467.75 843.01,-470.64 847.04,-476.36"/>
<text text-anchor="middle" x="824.78" y="-492.8" font-family="Times,serif" font-size="14.00">R</text>
</g>
<!-- node0x7feacdc064c0 -->
<g id="node12" class="node">
<title>node0x7feacdc064c0</title>
<ellipse fill="pink" stroke="black" cx="672.78" cy="-366" rx="77.19" ry="18"/>
<text text-anchor="middle" x="672.78" y="-362.3" font-family="Times,serif" font-size="14.00">Number&lt;10&gt;:5:19</text>
</g>
<!-- node0x7feacdc06470&#45;&gt;node0x7feacdc064c0 -->
<g id="edge11" class="edge">
<title>node0x7feacdc06470&#45;&gt;node0x7feacdc064c0</title>
<path fill="none" stroke="green" d="M672.78,-434.8C672.78,-423.16 672.78,-407.55 672.78,-394.24"/>
<polygon fill="green" stroke="green" points="676.28,-394.18 672.78,-384.18 669.28,-394.18 676.28,-394.18"/>
<text text-anchor="middle" x="677.28" y="-405.8" font-family="Times,serif" font-size="14.00">L</text>
</g>
<!-- node0x7feacdc06600 -->
<g id="node14" class="node">
<title>node0x7feacdc06600</title>
<polygon fill="yellow" stroke="black" points="774.38,-360.44 833.78,-348 893.18,-360.44 893.12,-380.56 774.44,-380.56 774.38,-360.44"/>
<text text-anchor="middle" x="833.78" y="-362.3" font-family="Times,serif" font-size="14.00">Linker(ns)</text>
</g>
<!-- node0x7feacdc06830&#45;&gt;node0x7feacdc06600 -->
<g id="edge13" class="edge">
<title>node0x7feacdc06830&#45;&gt;node0x7feacdc06600</title>
<path fill="none" stroke="green" d="M865.81,-436.8C859.86,-423.85 851.22,-405.01 844.41,-390.17"/>
<polygon fill="green" stroke="green" points="847.4,-388.29 840.05,-380.66 841.04,-391.21 847.4,-388.29"/>
<text text-anchor="middle" x="860.28" y="-405.8" font-family="Times,serif" font-size="14.00">L</text>
</g>
<!-- node0x7feacdc06970 -->
<g id="node23" class="node">
<title>node0x7feacdc06970</title>
<polygon fill="#c1ffc1" stroke="black" points="1038.12,-360.44 1080.78,-348 1123.44,-360.44 1123.4,-380.56 1038.16,-380.56 1038.12,-360.44"/>
<text text-anchor="middle" x="1080.78" y="-362.3" font-family="Times,serif" font-size="14.00">Linker</text>
</g>
<!-- node0x7feacdc06830&#45;&gt;node0x7feacdc06970 -->
<g id="edge22" class="edge">
<title>node0x7feacdc06830&#45;&gt;node0x7feacdc06970</title>
<path fill="none" stroke="red" d="M897.46,-441.92C932.1,-427.76 995.65,-401.79 1038.07,-384.46"/>
<polygon fill="red" stroke="red" points="1039.64,-387.59 1047.57,-380.57 1036.99,-381.12 1039.64,-387.59"/>
<text text-anchor="middle" x="994.78" y="-405.8" font-family="Times,serif" font-size="14.00">R</text>
</g>
<!-- node0x7feacdc065b0 -->
<g id="node15" class="node">
<title>node0x7feacdc065b0</title>
<polygon fill="#c1ffc1" stroke="black" points="495.54,-273.44 583.78,-261 672.02,-273.44 671.94,-293.56 495.62,-293.56 495.54,-273.44"/>
<text text-anchor="middle" x="583.78" y="-275.3" font-family="Times,serif" font-size="14.00">Print&lt;None&gt;:0:0</text>
</g>
<!-- node0x7feacdc06600&#45;&gt;node0x7feacdc065b0 -->
<g id="edge14" class="edge">
<title>node0x7feacdc06600&#45;&gt;node0x7feacdc065b0</title>
<path fill="none" stroke="green" d="M802.62,-354.41C760.29,-340.01 684.11,-314.11 633.74,-296.99"/>
<polygon fill="green" stroke="green" points="634.62,-293.59 624.03,-293.68 632.37,-300.22 634.62,-293.59"/>
<text text-anchor="middle" x="728.28" y="-318.8" font-family="Times,serif" font-size="14.00">L</text>
</g>
<!-- node0x7feacdc066f0 -->
<g id="node17" class="node">
<title>node0x7feacdc066f0</title>
<polygon fill="#c1ffc1" stroke="black" points="791.12,-273.44 833.78,-261 876.44,-273.44 876.4,-293.56 791.16,-293.56 791.12,-273.44"/>
<text text-anchor="middle" x="833.78" y="-275.3" font-family="Times,serif" font-size="14.00">Linker</text>
</g>
<!-- node0x7feacdc06600&#45;&gt;node0x7feacdc066f0 -->
<g id="edge16" class="edge">
<title>node0x7feacdc06600&#45;&gt;node0x7feacdc066f0</title>
<path fill="none" stroke="red" d="M833.78,-347.8C833.78,-335.24 833.78,-318.06 833.78,-304.13"/>
<polygon fill="red" stroke="red" points="837.28,-303.81 833.78,-293.81 830.28,-303.81 837.28,-303.81"/>
<text text-anchor="middle" x="838.78" y="-318.8" font-family="Times,serif" font-size="14.00">R</text>
</g>
<!-- node0x7feacdc06560 -->
<g id="node16" class="node">
<title>node0x7feacdc06560</title>
<ellipse fill="aquamarine" stroke="black" cx="504.78" cy="-192" rx="53.09" ry="18"/>
<text text-anchor="middle" x="504.78" y="-188.3" font-family="Times,serif" font-size="14.00">ID&lt;x&gt;:7:18</text>
</g>
<!-- node0x7feacdc065b0&#45;&gt;node0x7feacdc06560 -->
<g id="edge15" class="edge">
<title>node0x7feacdc065b0&#45;&gt;node0x7feacdc06560</title>
<path fill="none" stroke="green" d="M569.66,-262.8C557.9,-250.15 540.94,-231.9 527.31,-217.24"/>
<polygon fill="green" stroke="green" points="529.5,-214.46 520.13,-209.52 524.38,-219.22 529.5,-214.46"/>
<text text-anchor="middle" x="554.28" y="-231.8" font-family="Times,serif" font-size="14.00">L</text>
</g>
<!-- node0x7feacdc06650 -->
<g id="node18" class="node">
<title>node0x7feacdc06650</title>
<polygon fill="#c1ffc1" stroke="black" points="575.81,-186.44 714.78,-174 853.75,-186.44 853.62,-206.56 575.94,-206.56 575.81,-186.44"/>
<text text-anchor="middle" x="714.78" y="-188.3" font-family="Times,serif" font-size="14.00">VarDef&lt;Identifier&lt;x&gt;&gt;:8:19</text>
</g>
<!-- node0x7feacdc066f0&#45;&gt;node0x7feacdc06650 -->
<g id="edge17" class="edge">
<title>node0x7feacdc066f0&#45;&gt;node0x7feacdc06650</title>
<path fill="none" stroke="green" d="M816.73,-265.82C797.36,-251.98 765.45,-229.19 742.49,-212.79"/>
<polygon fill="green" stroke="green" points="744.34,-209.81 734.17,-206.85 740.27,-215.51 744.34,-209.81"/>
<text text-anchor="middle" x="786.28" y="-231.8" font-family="Times,serif" font-size="14.00">L</text>
</g>
<!-- node0x7feacdc067e0 -->
<g id="node20" class="node">
<title>node0x7feacdc067e0</title>
<polygon fill="#c1ffc1" stroke="black" points="872.12,-186.44 914.78,-174 957.44,-186.44 957.4,-206.56 872.16,-206.56 872.12,-186.44"/>
<text text-anchor="middle" x="914.78" y="-188.3" font-family="Times,serif" font-size="14.00">Linker</text>
</g>
<!-- node0x7feacdc066f0&#45;&gt;node0x7feacdc067e0 -->
<g id="edge19" class="edge">
<title>node0x7feacdc066f0&#45;&gt;node0x7feacdc067e0</title>
<path fill="none" stroke="red" d="M846.8,-264.34C859.67,-250.84 879.55,-229.97 894.5,-214.29"/>
<polygon fill="red" stroke="red" points="897.43,-216.28 901.8,-206.62 892.37,-211.45 897.43,-216.28"/>
<text text-anchor="middle" x="884.78" y="-231.8" font-family="Times,serif" font-size="14.00">R</text>
</g>
<!-- node0x7feacdc066a0 -->
<g id="node19" class="node">
<title>node0x7feacdc066a0</title>
<ellipse fill="pink" stroke="black" cx="714.78" cy="-105" rx="77.19" ry="18"/>
<text text-anchor="middle" x="714.78" y="-101.3" font-family="Times,serif" font-size="14.00">Number&lt;20&gt;:8:23</text>
</g>
<!-- node0x7feacdc06650&#45;&gt;node0x7feacdc066a0 -->
<g id="edge18" class="edge">
<title>node0x7feacdc06650&#45;&gt;node0x7feacdc066a0</title>
<path fill="none" stroke="green" d="M714.78,-173.8C714.78,-162.16 714.78,-146.55 714.78,-133.24"/>
<polygon fill="green" stroke="green" points="718.28,-133.18 714.78,-123.18 711.28,-133.18 718.28,-133.18"/>
<text text-anchor="middle" x="719.28" y="-144.8" font-family="Times,serif" font-size="14.00">L</text>
</g>
<!-- node0x7feacdc06790 -->
<g id="node21" class="node">
<title>node0x7feacdc06790</title>
<polygon fill="#c1ffc1" stroke="black" points="826.54,-99.44 914.78,-87 1003.02,-99.44 1002.94,-119.56 826.62,-119.56 826.54,-99.44"/>
<text text-anchor="middle" x="914.78" y="-101.3" font-family="Times,serif" font-size="14.00">Print&lt;None&gt;:0:0</text>
</g>
<!-- node0x7feacdc067e0&#45;&gt;node0x7feacdc06790 -->
<g id="edge20" class="edge">
<title>node0x7feacdc067e0&#45;&gt;node0x7feacdc06790</title>
<path fill="none" stroke="green" d="M914.78,-173.8C914.78,-161.24 914.78,-144.06 914.78,-130.13"/>
<polygon fill="green" stroke="green" points="918.28,-129.81 914.78,-119.81 911.28,-129.81 918.28,-129.81"/>
<text text-anchor="middle" x="919.28" y="-144.8" font-family="Times,serif" font-size="14.00">L</text>
</g>
<!-- node0x7feacdc06740 -->
<g id="node22" class="node">
<title>node0x7feacdc06740</title>
<ellipse fill="aquamarine" stroke="black" cx="914.78" cy="-18" rx="53.09" ry="18"/>
<text text-anchor="middle" x="914.78" y="-14.3" font-family="Times,serif" font-size="14.00">ID&lt;x&gt;:9:18</text>
</g>
<!-- node0x7feacdc06790&#45;&gt;node0x7feacdc06740 -->
<g id="edge21" class="edge">
<title>node0x7feacdc06790&#45;&gt;node0x7feacdc06740</title>
<path fill="none" stroke="green" d="M914.78,-86.8C914.78,-75.16 914.78,-59.55 914.78,-46.24"/>
<polygon fill="green" stroke="green" points="918.28,-46.18 914.78,-36.18 911.28,-46.18 918.28,-46.18"/>
<text text-anchor="middle" x="919.28" y="-57.8" font-family="Times,serif" font-size="14.00">L</text>
</g>
<!-- node0x7feacdc068d0 -->
<g id="node24" class="node">
<title>node0x7feacdc068d0</title>
<polygon fill="#c1ffc1" stroke="black" points="945.85,-273.44 1080.78,-261 1215.71,-273.44 1215.59,-293.56 945.97,-293.56 945.85,-273.44"/>
<text text-anchor="middle" x="1080.78" y="-275.3" font-family="Times,serif" font-size="14.00">AssignExpr&lt;MiAssg&gt;:12:8</text>
</g>
<!-- node0x7feacdc06970&#45;&gt;node0x7feacdc068d0 -->
<g id="edge23" class="edge">
<title>node0x7feacdc06970&#45;&gt;node0x7feacdc068d0</title>
<path fill="none" stroke="green" d="M1080.78,-347.8C1080.78,-335.24 1080.78,-318.06 1080.78,-304.13"/>
<polygon fill="green" stroke="green" points="1084.28,-303.81 1080.78,-293.81 1077.28,-303.81 1084.28,-303.81"/>
<text text-anchor="middle" x="1085.28" y="-318.8" font-family="Times,serif" font-size="14.00">L</text>
</g>
<!-- node0x7feacdc06a60 -->
<g id="node27" class="node">
<title>node0x7feacdc06a60</title>
<polygon fill="#c1ffc1" stroke="black" points="1290.12,-273.44 1332.78,-261 1375.44,-273.44 1375.4,-293.56 1290.16,-293.56 1290.12,-273.44"/>
<text text-anchor="middle" x="1332.78" y="-275.3" font-family="Times,serif" font-size="14.00">Linker</text>
</g>
<!-- node0x7feacdc06970&#45;&gt;node0x7feacdc06a60 -->
<g id="edge26" class="edge">
<title>node0x7feacdc06970&#45;&gt;node0x7feacdc06a60</title>
<path fill="none" stroke="red" d="M1108.23,-355.74C1150.05,-341.63 1230.39,-314.54 1282.77,-296.87"/>
<polygon fill="red" stroke="red" points="1284.18,-300.09 1292.53,-293.58 1281.94,-293.46 1284.18,-300.09"/>
<text text-anchor="middle" x="1227.78" y="-318.8" font-family="Times,serif" font-size="14.00">R</text>
</g>
<!-- node0x7feacdc06880 -->
<g id="node25" class="node">
<title>node0x7feacdc06880</title>
<ellipse fill="pink" stroke="black" cx="1052.78" cy="-192" rx="77.19" ry="18"/>
<text text-anchor="middle" x="1052.78" y="-188.3" font-family="Times,serif" font-size="14.00">Number&lt;5&gt;:12:11</text>
</g>
<!-- node0x7feacdc068d0&#45;&gt;node0x7feacdc06880 -->
<g id="edge24" class="edge">
<title>node0x7feacdc068d0&#45;&gt;node0x7feacdc06880</title>
<path fill="none" stroke="green" d="M1075.25,-261.21C1071.36,-249.41 1066.08,-233.38 1061.62,-219.82"/>
<polygon fill="green" stroke="green" points="1064.85,-218.45 1058.4,-210.05 1058.2,-220.64 1064.85,-218.45"/>
<text text-anchor="middle" x="1073.28" y="-231.8" font-family="Times,serif" font-size="14.00">L</text>
</g>
<!-- node0x7feacdc06920 -->
<g id="node26" class="node">
<title>node0x7feacdc06920</title>
<ellipse fill="aquamarine" stroke="black" cx="1201.78" cy="-192" rx="53.09" ry="18"/>
<text text-anchor="middle" x="1201.78" y="-188.3" font-family="Times,serif" font-size="14.00">ID&lt;x&gt;:12:6</text>
</g>
<!-- node0x7feacdc068d0&#45;&gt;node0x7feacdc06920 -->
<g id="edge25" class="edge">
<title>node0x7feacdc068d0&#45;&gt;node0x7feacdc06920</title>
<path fill="none" stroke="red" d="M1102.41,-262.8C1121.53,-249.37 1149.63,-229.63 1171.07,-214.57"/>
<polygon fill="red" stroke="red" points="1173.35,-217.25 1179.52,-208.64 1169.32,-211.52 1173.35,-217.25"/>
<text text-anchor="middle" x="1153.78" y="-231.8" font-family="Times,serif" font-size="14.00">R</text>
</g>
<!-- node0x7feacdc06a10 -->
<g id="node28" class="node">
<title>node0x7feacdc06a10</title>
<polygon fill="#c1ffc1" stroke="black" points="1273.54,-186.44 1361.78,-174 1450.02,-186.44 1449.94,-206.56 1273.62,-206.56 1273.54,-186.44"/>
<text text-anchor="middle" x="1361.78" y="-188.3" font-family="Times,serif" font-size="14.00">Print&lt;None&gt;:0:0</text>
</g>
<!-- node0x7feacdc06a60&#45;&gt;node0x7feacdc06a10 -->
<g id="edge27" class="edge">
<title>node0x7feacdc06a60&#45;&gt;node0x7feacdc06a10</title>
<path fill="none" stroke="green" d="M1338.1,-262.41C1342.47,-249.61 1348.73,-231.27 1353.71,-216.65"/>
<polygon fill="green" stroke="green" points="1357.15,-217.4 1357.07,-206.8 1350.53,-215.14 1357.15,-217.4"/>
<text text-anchor="middle" x="1354.28" y="-231.8" font-family="Times,serif" font-size="14.00">L</text>
</g>
<!-- node0x7feacdc069c0 -->
<g id="node29" class="node">
<title>node0x7feacdc069c0</title>
<ellipse fill="aquamarine" stroke="black" cx="1361.78" cy="-105" rx="57.69" ry="18"/>
<text text-anchor="middle" x="1361.78" y="-101.3" font-family="Times,serif" font-size="14.00">ID&lt;x&gt;:13:14</text>
</g>
<!-- node0x7feacdc06a10&#45;&gt;node0x7feacdc069c0 -->
<g id="edge28" class="edge">
<title>node0x7feacdc06a10&#45;&gt;node0x7feacdc069c0</title>
<path fill="none" stroke="green" d="M1361.78,-173.8C1361.78,-162.16 1361.78,-146.55 1361.78,-133.24"/>
<polygon fill="green" stroke="green" points="1365.28,-133.18 1361.78,-123.18 1358.28,-133.18 1365.28,-133.18"/>
<text text-anchor="middle" x="1366.28" y="-144.8" font-family="Times,serif" font-size="14.00">L</text>
</g>
</g>
</svg>
