<?xml version="1.0" encoding="UTF-8" standalone="no"?>
<!DOCTYPE svg PUBLIC "-//W3C//DTD SVG 1.1//EN"
 "http://www.w3.org/Graphics/SVG/1.1/DTD/svg11.dtd">
<!-- Generated by graphviz version 2.44.1 (20200629.0846)
 -->
<!-- Title: structure Pages: 1 -->
<svg width="1085pt" height="1088pt"
 viewBox="0.00 0.00 1084.78 1088.00" xmlns="http://www.w3.org/2000/svg" xmlns:xlink="http://www.w3.org/1999/xlink">
<g id="graph0" class="graph" transform="scale(1 1) rotate(0) translate(4 1084)">
<title>structure</title>
<polygon fill="white" stroke="transparent" points="-4,4 -4,-1084 1080.78,-1084 1080.78,4 -4,4"/>
<!-- node0x7ffb48c06420 -->
<g id="node1" class="node">
<title>node0x7ffb48c06420</title>
<polygon fill="#c1ffc1" stroke="black" points="340.12,-1056.44 382.78,-1044 425.44,-1056.44 425.4,-1076.56 340.16,-1076.56 340.12,-1056.44"/>
<text text-anchor="middle" x="382.78" y="-1058.3" font-family="Times,serif" font-size="14.00">Linker</text>
</g>
<!-- node0x7ffb48c063d0 -->
<g id="node2" class="node">
<title>node0x7ffb48c063d0</title>
<polygon fill="#c1ffc1" stroke="black" points="61.45,-969.44 255.78,-957 450.11,-969.44 449.93,-989.56 61.63,-989.56 61.45,-969.44"/>
<text text-anchor="middle" x="255.78" y="-971.3" font-family="Times,serif" font-size="14.00">FuncDecl&lt;Identifier&lt;giveYouUp&gt;&gt;:0:13</text>
</g>
<!-- node0x7ffb48c06420&#45;&gt;node0x7ffb48c063d0 -->
<g id="edge1" class="edge">
<title>node0x7ffb48c06420&#45;&gt;node0x7ffb48c063d0</title>
<path fill="none" stroke="green" d="M364.85,-1049C344.03,-1035.06 309.38,-1011.87 284.72,-995.37"/>
<polygon fill="green" stroke="green" points="286.39,-992.28 276.14,-989.62 282.5,-998.09 286.39,-992.28"/>
<text text-anchor="middle" x="332.28" y="-1014.8" font-family="Times,serif" font-size="14.00">L</text>
</g>
<!-- node0x7ffb48c06b00 -->
<g id="node9" class="node">
<title>node0x7ffb48c06b00</title>
<polygon fill="#c1ffc1" stroke="black" points="468.12,-969.44 510.78,-957 553.44,-969.44 553.4,-989.56 468.16,-989.56 468.12,-969.44"/>
<text text-anchor="middle" x="510.78" y="-971.3" font-family="Times,serif" font-size="14.00">Linker</text>
</g>
<!-- node0x7ffb48c06420&#45;&gt;node0x7ffb48c06b00 -->
<g id="edge8" class="edge">
<title>node0x7ffb48c06420&#45;&gt;node0x7ffb48c06b00</title>
<path fill="none" stroke="red" d="M400.58,-1049.18C421.59,-1035.23 456.84,-1011.82 481.81,-995.24"/>
<polygon fill="red" stroke="red" points="483.78,-998.13 490.17,-989.69 479.9,-992.3 483.78,-998.13"/>
<text text-anchor="middle" x="459.78" y="-1014.8" font-family="Times,serif" font-size="14.00">R</text>
</g>
<!-- node0x7ffb48c05d60 -->
<g id="node3" class="node">
<title>node0x7ffb48c05d60</title>
<polygon fill="#c1ffc1" stroke="black" points="0.22,-882.44 90.78,-870 181.34,-882.44 181.26,-902.56 0.3,-902.56 0.22,-882.44"/>
<text text-anchor="middle" x="90.78" y="-884.3" font-family="Times,serif" font-size="14.00">None&lt;None&gt;:0:0</text>
</g>
<!-- node0x7ffb48c063d0&#45;&gt;node0x7ffb48c05d60 -->
<g id="edge2" class="edge">
<title>node0x7ffb48c063d0&#45;&gt;node0x7ffb48c05d60</title>
<path fill="none" stroke="green" d="M226.28,-958.8C198.35,-944.41 156.35,-922.78 126.52,-907.41"/>
<polygon fill="green" stroke="green" points="127.79,-904.13 117.3,-902.66 124.59,-910.35 127.79,-904.13"/>
<text text-anchor="middle" x="188.28" y="-927.8" font-family="Times,serif" font-size="14.00">L</text>
</g>
<!-- node0x7ffb48c06380 -->
<g id="node4" class="node">
<title>node0x7ffb48c06380</title>
<polygon fill="yellow" stroke="black" points="199.38,-882.44 258.78,-870 318.18,-882.44 318.12,-902.56 199.44,-902.56 199.38,-882.44"/>
<text text-anchor="middle" x="258.78" y="-884.3" font-family="Times,serif" font-size="14.00">Linker(ns)</text>
</g>
<!-- node0x7ffb48c063d0&#45;&gt;node0x7ffb48c06380 -->
<g id="edge3" class="edge">
<title>node0x7ffb48c063d0&#45;&gt;node0x7ffb48c06380</title>
<path fill="none" stroke="red" d="M256.39,-956.8C256.83,-944.24 257.44,-927.06 257.93,-913.13"/>
<polygon fill="red" stroke="red" points="261.44,-912.93 258.29,-902.81 254.44,-912.68 261.44,-912.93"/>
<text text-anchor="middle" x="262.78" y="-927.8" font-family="Times,serif" font-size="14.00">R</text>
</g>
<!-- node0x7ffb48c06330 -->
<g id="node5" class="node">
<title>node0x7ffb48c06330</title>
<polygon fill="#c1ffc1" stroke="black" points="170.54,-795.44 258.78,-783 347.02,-795.44 346.94,-815.56 170.62,-815.56 170.54,-795.44"/>
<text text-anchor="middle" x="258.78" y="-797.3" font-family="Times,serif" font-size="14.00">Print&lt;None&gt;:0:0</text>
</g>
<!-- node0x7ffb48c06380&#45;&gt;node0x7ffb48c06330 -->
<g id="edge4" class="edge">
<title>node0x7ffb48c06380&#45;&gt;node0x7ffb48c06330</title>
<path fill="none" stroke="green" d="M258.78,-869.8C258.78,-857.24 258.78,-840.06 258.78,-826.13"/>
<polygon fill="green" stroke="green" points="262.28,-825.81 258.78,-815.81 255.28,-825.81 262.28,-825.81"/>
<text text-anchor="middle" x="263.28" y="-840.8" font-family="Times,serif" font-size="14.00">L</text>
</g>
<!-- node0x7ffb48c062e0 -->
<g id="node6" class="node">
<title>node0x7ffb48c062e0</title>
<polygon fill="#c1ffc1" stroke="black" points="100.75,-708.44 258.78,-696 416.81,-708.44 416.66,-728.56 100.9,-728.56 100.75,-708.44"/>
<text text-anchor="middle" x="258.78" y="-710.3" font-family="Times,serif" font-size="14.00">FuncCall&lt;Identifier&lt;fact&gt;&gt;:1:14</text>
</g>
<!-- node0x7ffb48c06330&#45;&gt;node0x7ffb48c062e0 -->
<g id="edge5" class="edge">
<title>node0x7ffb48c06330&#45;&gt;node0x7ffb48c062e0</title>
<path fill="none" stroke="green" d="M258.78,-782.8C258.78,-770.24 258.78,-753.06 258.78,-739.13"/>
<polygon fill="green" stroke="green" points="262.28,-738.81 258.78,-728.81 255.28,-738.81 262.28,-738.81"/>
<text text-anchor="middle" x="263.28" y="-753.8" font-family="Times,serif" font-size="14.00">L</text>
</g>
<!-- node0x7ffb48c06290 -->
<g id="node7" class="node">
<title>node0x7ffb48c06290</title>
<polygon fill="#c1ffc1" stroke="black" points="216.12,-621.44 258.78,-609 301.44,-621.44 301.4,-641.56 216.16,-641.56 216.12,-621.44"/>
<text text-anchor="middle" x="258.78" y="-623.3" font-family="Times,serif" font-size="14.00">Linker</text>
</g>
<!-- node0x7ffb48c062e0&#45;&gt;node0x7ffb48c06290 -->
<g id="edge6" class="edge">
<title>node0x7ffb48c062e0&#45;&gt;node0x7ffb48c06290</title>
<path fill="none" stroke="green" d="M258.78,-695.8C258.78,-683.24 258.78,-666.06 258.78,-652.13"/>
<polygon fill="green" stroke="green" points="262.28,-651.81 258.78,-641.81 255.28,-651.81 262.28,-651.81"/>
<text text-anchor="middle" x="263.28" y="-666.8" font-family="Times,serif" font-size="14.00">L</text>
</g>
<!-- node0x7ffb48c06240 -->
<g id="node8" class="node">
<title>node0x7ffb48c06240</title>
<polygon fill="#c1ffc1" stroke="black" points="168.83,-534.44 258.78,-522 348.74,-534.44 348.65,-554.56 168.91,-554.56 168.83,-534.44"/>
<text text-anchor="middle" x="258.78" y="-536.3" font-family="Times,serif" font-size="14.00">Input&lt;None&gt;:0:0</text>
</g>
<!-- node0x7ffb48c06290&#45;&gt;node0x7ffb48c06240 -->
<g id="edge7" class="edge">
<title>node0x7ffb48c06290&#45;&gt;node0x7ffb48c06240</title>
<path fill="none" stroke="green" d="M258.78,-608.8C258.78,-596.24 258.78,-579.06 258.78,-565.13"/>
<polygon fill="green" stroke="green" points="262.28,-564.81 258.78,-554.81 255.28,-564.81 262.28,-564.81"/>
<text text-anchor="middle" x="263.28" y="-579.8" font-family="Times,serif" font-size="14.00">L</text>
</g>
<!-- node0x7ffb48c06ab0 -->
<g id="node10" class="node">
<title>node0x7ffb48c06ab0</title>
<polygon fill="#c1ffc1" stroke="black" points="349.93,-882.44 510.78,-870 671.63,-882.44 671.48,-902.56 350.08,-902.56 349.93,-882.44"/>
<text text-anchor="middle" x="510.78" y="-884.3" font-family="Times,serif" font-size="14.00">FuncDecl&lt;Identifier&lt;fact&gt;&gt;:4:14</text>
</g>
<!-- node0x7ffb48c06b00&#45;&gt;node0x7ffb48c06ab0 -->
<g id="edge9" class="edge">
<title>node0x7ffb48c06b00&#45;&gt;node0x7ffb48c06ab0</title>
<path fill="none" stroke="green" d="M510.78,-956.8C510.78,-944.24 510.78,-927.06 510.78,-913.13"/>
<polygon fill="green" stroke="green" points="514.28,-912.81 510.78,-902.81 507.28,-912.81 514.28,-912.81"/>
<text text-anchor="middle" x="515.28" y="-927.8" font-family="Times,serif" font-size="14.00">L</text>
</g>
<!-- node0x7ffb48c06470 -->
<g id="node11" class="node">
<title>node0x7ffb48c06470</title>
<polygon fill="#c1ffc1" stroke="black" points="467.12,-795.44 509.78,-783 552.44,-795.44 552.4,-815.56 467.16,-815.56 467.12,-795.44"/>
<text text-anchor="middle" x="509.78" y="-797.3" font-family="Times,serif" font-size="14.00">Linker</text>
</g>
<!-- node0x7ffb48c06ab0&#45;&gt;node0x7ffb48c06470 -->
<g id="edge10" class="edge">
<title>node0x7ffb48c06ab0&#45;&gt;node0x7ffb48c06470</title>
<path fill="none" stroke="green" d="M510.58,-869.8C510.43,-857.24 510.23,-840.06 510.07,-826.13"/>
<polygon fill="green" stroke="green" points="513.56,-825.77 509.94,-815.81 506.56,-825.85 513.56,-825.77"/>
<text text-anchor="middle" x="515.28" y="-840.8" font-family="Times,serif" font-size="14.00">L</text>
</g>
<!-- node0x7ffb48c06a60 -->
<g id="node13" class="node">
<title>node0x7ffb48c06a60</title>
<polygon fill="yellow" stroke="black" points="591.38,-795.44 650.78,-783 710.18,-795.44 710.12,-815.56 591.44,-815.56 591.38,-795.44"/>
<text text-anchor="middle" x="650.78" y="-797.3" font-family="Times,serif" font-size="14.00">Linker(ns)</text>
</g>
<!-- node0x7ffb48c06ab0&#45;&gt;node0x7ffb48c06a60 -->
<g id="edge12" class="edge">
<title>node0x7ffb48c06ab0&#45;&gt;node0x7ffb48c06a60</title>
<path fill="none" stroke="red" d="M535.81,-871.8C559.21,-857.6 594.23,-836.34 619.46,-821.01"/>
<polygon fill="red" stroke="red" points="621.55,-823.84 628.28,-815.66 617.92,-817.86 621.55,-823.84"/>
<text text-anchor="middle" x="594.78" y="-840.8" font-family="Times,serif" font-size="14.00">R</text>
</g>
<!-- node0x7ffb48c064c0 -->
<g id="node12" class="node">
<title>node0x7ffb48c064c0</title>
<ellipse fill="aquamarine" stroke="black" cx="502.78" cy="-714" rx="64.99" ry="18"/>
<text text-anchor="middle" x="502.78" y="-710.3" font-family="Times,serif" font-size="14.00">ID&lt;num&gt;:4:19</text>
</g>
<!-- node0x7ffb48c06470&#45;&gt;node0x7ffb48c064c0 -->
<g id="edge11" class="edge">
<title>node0x7ffb48c06470&#45;&gt;node0x7ffb48c064c0</title>
<path fill="none" stroke="green" d="M508.4,-783.21C507.44,-771.52 506.13,-755.69 505.02,-742.22"/>
<polygon fill="green" stroke="green" points="508.49,-741.73 504.19,-732.05 501.52,-742.3 508.49,-741.73"/>
<text text-anchor="middle" x="511.28" y="-753.8" font-family="Times,serif" font-size="14.00">L</text>
</g>
<!-- node0x7ffb48c06a10 -->
<g id="node14" class="node">
<title>node0x7ffb48c06a10</title>
<polygon fill="#c1ffc1" stroke="black" points="585.82,-708.44 664.78,-696 743.74,-708.44 743.67,-728.56 585.89,-728.56 585.82,-708.44"/>
<text text-anchor="middle" x="664.78" y="-710.3" font-family="Times,serif" font-size="14.00">IfStmt&lt;If&gt;:5:6</text>
</g>
<!-- node0x7ffb48c06a60&#45;&gt;node0x7ffb48c06a10 -->
<g id="edge13" class="edge">
<title>node0x7ffb48c06a60&#45;&gt;node0x7ffb48c06a10</title>
<path fill="none" stroke="green" d="M653.55,-783.21C655.64,-770.48 658.55,-752.84 660.88,-738.68"/>
<polygon fill="green" stroke="green" points="664.36,-739.11 662.53,-728.68 657.45,-737.97 664.36,-739.11"/>
<text text-anchor="middle" x="663.28" y="-753.8" font-family="Times,serif" font-size="14.00">L</text>
</g>
<!-- node0x7ffb48c065b0 -->
<g id="node15" class="node">
<title>node0x7ffb48c065b0</title>
<polygon fill="#c1ffc1" stroke="black" points="466.52,-621.44 592.78,-609 719.04,-621.44 718.92,-641.56 466.64,-641.56 466.52,-621.44"/>
<text text-anchor="middle" x="592.78" y="-623.3" font-family="Times,serif" font-size="14.00">CmpOperator&lt;Leq&gt;:5:30</text>
</g>
<!-- node0x7ffb48c06a10&#45;&gt;node0x7ffb48c065b0 -->
<g id="edge14" class="edge">
<title>node0x7ffb48c06a10&#45;&gt;node0x7ffb48c065b0</title>
<path fill="none" stroke="green" d="M651.91,-697.8C640.51,-684.35 623.75,-664.56 610.98,-649.48"/>
<polygon fill="green" stroke="green" points="613.49,-647.03 604.35,-641.66 608.15,-651.55 613.49,-647.03"/>
<text text-anchor="middle" x="638.28" y="-666.8" font-family="Times,serif" font-size="14.00">L</text>
</g>
<!-- node0x7ffb48c069c0 -->
<g id="node18" class="node">
<title>node0x7ffb48c069c0</title>
<polygon fill="#c1ffc1" stroke="black" points="737.12,-621.44 779.78,-609 822.44,-621.44 822.4,-641.56 737.16,-641.56 737.12,-621.44"/>
<text text-anchor="middle" x="779.78" y="-623.3" font-family="Times,serif" font-size="14.00">Linker</text>
</g>
<!-- node0x7ffb48c06a10&#45;&gt;node0x7ffb48c069c0 -->
<g id="edge17" class="edge">
<title>node0x7ffb48c06a10&#45;&gt;node0x7ffb48c069c0</title>
<path fill="none" stroke="red" d="M683.77,-698.96C702.61,-685.04 731.66,-663.57 752.87,-647.89"/>
<polygon fill="red" stroke="red" points="755.18,-650.53 761.14,-641.77 751.02,-644.9 755.18,-650.53"/>
<text text-anchor="middle" x="734.78" y="-666.8" font-family="Times,serif" font-size="14.00">R</text>
</g>
<!-- node0x7ffb48c06510 -->
<g id="node16" class="node">
<title>node0x7ffb48c06510</title>
<ellipse fill="aquamarine" stroke="black" cx="454.78" cy="-540" rx="64.99" ry="18"/>
<text text-anchor="middle" x="454.78" y="-536.3" font-family="Times,serif" font-size="14.00">ID&lt;num&gt;:5:26</text>
</g>
<!-- node0x7ffb48c065b0&#45;&gt;node0x7ffb48c06510 -->
<g id="edge15" class="edge">
<title>node0x7ffb48c065b0&#45;&gt;node0x7ffb48c06510</title>
<path fill="none" stroke="green" d="M568.74,-611.19C546.73,-597.64 513.92,-577.42 489.14,-562.16"/>
<polygon fill="green" stroke="green" points="490.76,-559.05 480.41,-556.79 487.09,-565.01 490.76,-559.05"/>
<text text-anchor="middle" x="537.28" y="-579.8" font-family="Times,serif" font-size="14.00">L</text>
</g>
<!-- node0x7ffb48c06560 -->
<g id="node17" class="node">
<title>node0x7ffb48c06560</title>
<ellipse fill="pink" stroke="black" cx="610.78" cy="-540" rx="73.39" ry="18"/>
<text text-anchor="middle" x="610.78" y="-536.3" font-family="Times,serif" font-size="14.00">Number&lt;1&gt;:5:33</text>
</g>
<!-- node0x7ffb48c065b0&#45;&gt;node0x7ffb48c06560 -->
<g id="edge16" class="edge">
<title>node0x7ffb48c065b0&#45;&gt;node0x7ffb48c06560</title>
<path fill="none" stroke="red" d="M596.34,-609.21C598.81,-597.52 602.16,-581.69 605.02,-568.22"/>
<polygon fill="red" stroke="red" points="608.52,-568.56 607.17,-558.05 601.67,-567.11 608.52,-568.56"/>
<text text-anchor="middle" x="608.78" y="-579.8" font-family="Times,serif" font-size="14.00">R</text>
</g>
<!-- node0x7ffb48c066a0 -->
<g id="node19" class="node">
<title>node0x7ffb48c066a0</title>
<polygon fill="yellow" stroke="black" points="703.38,-534.44 762.78,-522 822.18,-534.44 822.12,-554.56 703.44,-554.56 703.38,-534.44"/>
<text text-anchor="middle" x="762.78" y="-536.3" font-family="Times,serif" font-size="14.00">Linker(ns)</text>
</g>
<!-- node0x7ffb48c069c0&#45;&gt;node0x7ffb48c066a0 -->
<g id="edge18" class="edge">
<title>node0x7ffb48c069c0&#45;&gt;node0x7ffb48c066a0</title>
<path fill="none" stroke="green" d="M772.55,-611.01C769.96,-604.93 767.3,-597.77 765.78,-591 763.91,-582.62 763.03,-573.27 762.66,-564.94"/>
<polygon fill="green" stroke="green" points="766.16,-564.66 762.43,-554.75 759.16,-564.82 766.16,-564.66"/>
<text text-anchor="middle" x="770.28" y="-579.8" font-family="Times,serif" font-size="14.00">L</text>
</g>
<!-- node0x7ffb48c06970 -->
<g id="node22" class="node">
<title>node0x7ffb48c06970</title>
<polygon fill="yellow" stroke="black" points="869.38,-534.44 928.78,-522 988.18,-534.44 988.12,-554.56 869.44,-554.56 869.38,-534.44"/>
<text text-anchor="middle" x="928.78" y="-536.3" font-family="Times,serif" font-size="14.00">Linker(ns)</text>
</g>
<!-- node0x7ffb48c069c0&#45;&gt;node0x7ffb48c06970 -->
<g id="edge21" class="edge">
<title>node0x7ffb48c069c0&#45;&gt;node0x7ffb48c06970</title>
<path fill="none" stroke="red" d="M799.57,-614.71C824.25,-600.63 866.78,-576.37 896.27,-559.55"/>
<polygon fill="red" stroke="red" points="898.02,-562.58 904.97,-554.58 894.55,-556.5 898.02,-562.58"/>
<text text-anchor="middle" x="868.78" y="-579.8" font-family="Times,serif" font-size="14.00">R</text>
</g>
<!-- node0x7ffb48c06650 -->
<g id="node20" class="node">
<title>node0x7ffb48c06650</title>
<polygon fill="#c1ffc1" stroke="black" points="573.7,-447.44 690.78,-435 807.87,-447.44 807.76,-467.56 573.81,-467.56 573.7,-447.44"/>
<text text-anchor="middle" x="690.78" y="-449.3" font-family="Times,serif" font-size="14.00">ReturnStmt&lt;None&gt;:0:0</text>
</g>
<!-- node0x7ffb48c066a0&#45;&gt;node0x7ffb48c06650 -->
<g id="edge19" class="edge">
<title>node0x7ffb48c066a0&#45;&gt;node0x7ffb48c06650</title>
<path fill="none" stroke="green" d="M750.24,-524.19C738.89,-510.79 722.02,-490.88 709.14,-475.68"/>
<polygon fill="green" stroke="green" points="711.6,-473.16 702.46,-467.79 706.26,-477.69 711.6,-473.16"/>
<text text-anchor="middle" x="736.28" y="-492.8" font-family="Times,serif" font-size="14.00">L</text>
</g>
<!-- node0x7ffb48c06600 -->
<g id="node21" class="node">
<title>node0x7ffb48c06600</title>
<ellipse fill="pink" stroke="black" cx="690.78" cy="-366" rx="73.39" ry="18"/>
<text text-anchor="middle" x="690.78" y="-362.3" font-family="Times,serif" font-size="14.00">Number&lt;1&gt;:6:39</text>
</g>
<!-- node0x7ffb48c06650&#45;&gt;node0x7ffb48c06600 -->
<g id="edge20" class="edge">
<title>node0x7ffb48c06650&#45;&gt;node0x7ffb48c06600</title>
<path fill="none" stroke="green" d="M690.78,-434.8C690.78,-423.16 690.78,-407.55 690.78,-394.24"/>
<polygon fill="green" stroke="green" points="694.28,-394.18 690.78,-384.18 687.28,-394.18 694.28,-394.18"/>
<text text-anchor="middle" x="695.28" y="-405.8" font-family="Times,serif" font-size="14.00">L</text>
</g>
<!-- node0x7ffb48c06920 -->
<g id="node23" class="node">
<title>node0x7ffb48c06920</title>
<polygon fill="#c1ffc1" stroke="black" points="826.7,-447.44 943.78,-435 1060.87,-447.44 1060.76,-467.56 826.81,-467.56 826.7,-447.44"/>
<text text-anchor="middle" x="943.78" y="-449.3" font-family="Times,serif" font-size="14.00">ReturnStmt&lt;None&gt;:0:0</text>
</g>
<!-- node0x7ffb48c06970&#45;&gt;node0x7ffb48c06920 -->
<g id="edge22" class="edge">
<title>node0x7ffb48c06970&#45;&gt;node0x7ffb48c06920</title>
<path fill="none" stroke="green" d="M931.74,-522.21C933.99,-509.48 937.1,-491.84 939.6,-477.68"/>
<polygon fill="green" stroke="green" points="943.08,-478.13 941.37,-467.68 936.18,-476.92 943.08,-478.13"/>
<text text-anchor="middle" x="942.28" y="-492.8" font-family="Times,serif" font-size="14.00">L</text>
</g>
<!-- node0x7ffb48c068d0 -->
<g id="node24" class="node">
<title>node0x7ffb48c068d0</title>
<polygon fill="#c1ffc1" stroke="black" points="822.66,-360.44 943.78,-348 1064.9,-360.44 1064.79,-380.56 822.78,-380.56 822.66,-360.44"/>
<text text-anchor="middle" x="943.78" y="-362.3" font-family="Times,serif" font-size="14.00">MaOperator&lt;Mul&gt;:8:53</text>
</g>
<!-- node0x7ffb48c06920&#45;&gt;node0x7ffb48c068d0 -->
<g id="edge23" class="edge">
<title>node0x7ffb48c06920&#45;&gt;node0x7ffb48c068d0</title>
<path fill="none" stroke="green" d="M943.78,-434.8C943.78,-422.24 943.78,-405.06 943.78,-391.13"/>
<polygon fill="green" stroke="green" points="947.28,-390.81 943.78,-380.81 940.28,-390.81 947.28,-390.81"/>
<text text-anchor="middle" x="948.28" y="-405.8" font-family="Times,serif" font-size="14.00">L</text>
</g>
<!-- node0x7ffb48c06830 -->
<g id="node25" class="node">
<title>node0x7ffb48c06830</title>
<polygon fill="#c1ffc1" stroke="black" points="612.75,-273.44 770.78,-261 928.81,-273.44 928.66,-293.56 612.9,-293.56 612.75,-273.44"/>
<text text-anchor="middle" x="770.78" y="-275.3" font-family="Times,serif" font-size="14.00">FuncCall&lt;Identifier&lt;fact&gt;&gt;:8:39</text>
</g>
<!-- node0x7ffb48c068d0&#45;&gt;node0x7ffb48c06830 -->
<g id="edge24" class="edge">
<title>node0x7ffb48c068d0&#45;&gt;node0x7ffb48c06830</title>
<path fill="none" stroke="green" d="M914.82,-350.77C885.32,-336.28 839.47,-313.75 807.45,-298.02"/>
<polygon fill="green" stroke="green" points="808.92,-294.84 798.4,-293.57 805.83,-301.12 808.92,-294.84"/>
<text text-anchor="middle" x="872.28" y="-318.8" font-family="Times,serif" font-size="14.00">L</text>
</g>
<!-- node0x7ffb48c06880 -->
<g id="node30" class="node">
<title>node0x7ffb48c06880</title>
<ellipse fill="aquamarine" stroke="black" cx="1011.78" cy="-279" rx="64.99" ry="18"/>
<text text-anchor="middle" x="1011.78" y="-275.3" font-family="Times,serif" font-size="14.00">ID&lt;num&gt;:8:55</text>
</g>
<!-- node0x7ffb48c068d0&#45;&gt;node0x7ffb48c06880 -->
<g id="edge29" class="edge">
<title>node0x7ffb48c068d0&#45;&gt;node0x7ffb48c06880</title>
<path fill="none" stroke="red" d="M956.57,-349.01C966.54,-336.55 980.56,-319.02 991.98,-304.75"/>
<polygon fill="red" stroke="red" points="994.84,-306.78 998.35,-296.79 989.37,-302.41 994.84,-306.78"/>
<text text-anchor="middle" x="987.78" y="-318.8" font-family="Times,serif" font-size="14.00">R</text>
</g>
<!-- node0x7ffb48c067e0 -->
<g id="node26" class="node">
<title>node0x7ffb48c067e0</title>
<polygon fill="#c1ffc1" stroke="black" points="728.12,-186.44 770.78,-174 813.44,-186.44 813.4,-206.56 728.16,-206.56 728.12,-186.44"/>
<text text-anchor="middle" x="770.78" y="-188.3" font-family="Times,serif" font-size="14.00">Linker</text>
</g>
<!-- node0x7ffb48c06830&#45;&gt;node0x7ffb48c067e0 -->
<g id="edge25" class="edge">
<title>node0x7ffb48c06830&#45;&gt;node0x7ffb48c067e0</title>
<path fill="none" stroke="green" d="M770.78,-260.8C770.78,-248.24 770.78,-231.06 770.78,-217.13"/>
<polygon fill="green" stroke="green" points="774.28,-216.81 770.78,-206.81 767.28,-216.81 774.28,-216.81"/>
<text text-anchor="middle" x="775.28" y="-231.8" font-family="Times,serif" font-size="14.00">L</text>
</g>
<!-- node0x7ffb48c06790 -->
<g id="node27" class="node">
<title>node0x7ffb48c06790</title>
<polygon fill="#c1ffc1" stroke="black" points="639.88,-99.44 770.78,-87 901.68,-99.44 901.56,-119.56 640,-119.56 639.88,-99.44"/>
<text text-anchor="middle" x="770.78" y="-101.3" font-family="Times,serif" font-size="14.00">MaOperator&lt;Minus&gt;:8:48</text>
</g>
<!-- node0x7ffb48c067e0&#45;&gt;node0x7ffb48c06790 -->
<g id="edge26" class="edge">
<title>node0x7ffb48c067e0&#45;&gt;node0x7ffb48c06790</title>
<path fill="none" stroke="green" d="M770.78,-173.8C770.78,-161.24 770.78,-144.06 770.78,-130.13"/>
<polygon fill="green" stroke="green" points="774.28,-129.81 770.78,-119.81 767.28,-129.81 774.28,-129.81"/>
<text text-anchor="middle" x="775.28" y="-144.8" font-family="Times,serif" font-size="14.00">L</text>
</g>
<!-- node0x7ffb48c066f0 -->
<g id="node28" class="node">
<title>node0x7ffb48c066f0</title>
<ellipse fill="aquamarine" stroke="black" cx="692.78" cy="-18" rx="64.99" ry="18"/>
<text text-anchor="middle" x="692.78" y="-14.3" font-family="Times,serif" font-size="14.00">ID&lt;num&gt;:8:44</text>
</g>
<!-- node0x7ffb48c06790&#45;&gt;node0x7ffb48c066f0 -->
<g id="edge27" class="edge">
<title>node0x7ffb48c06790&#45;&gt;node0x7ffb48c066f0</title>
<path fill="none" stroke="green" d="M756.11,-88.01C744.57,-75.43 728.29,-57.7 715.13,-43.35"/>
<polygon fill="green" stroke="green" points="717.53,-40.79 708.19,-35.79 712.37,-45.52 717.53,-40.79"/>
<text text-anchor="middle" x="741.28" y="-57.8" font-family="Times,serif" font-size="14.00">L</text>
</g>
<!-- node0x7ffb48c06740 -->
<g id="node29" class="node">
<title>node0x7ffb48c06740</title>
<ellipse fill="pink" stroke="black" cx="848.78" cy="-18" rx="73.39" ry="18"/>
<text text-anchor="middle" x="848.78" y="-14.3" font-family="Times,serif" font-size="14.00">Number&lt;1&gt;:8:50</text>
</g>
<!-- node0x7ffb48c06790&#45;&gt;node0x7ffb48c06740 -->
<g id="edge28" class="edge">
<title>node0x7ffb48c06790&#45;&gt;node0x7ffb48c06740</title>
<path fill="none" stroke="red" d="M785.45,-88.01C797,-75.43 813.27,-57.7 826.43,-43.35"/>
<polygon fill="red" stroke="red" points="829.19,-45.52 833.38,-35.79 824.04,-40.79 829.19,-45.52"/>
<text text-anchor="middle" x="819.78" y="-57.8" font-family="Times,serif" font-size="14.00">R</text>
</g>
</g>
</svg>
