<?xml version="1.0" encoding="UTF-8" standalone="no"?>
<!DOCTYPE svg PUBLIC "-//W3C//DTD SVG 1.1//EN"
 "http://www.w3.org/Graphics/SVG/1.1/DTD/svg11.dtd">
<!-- Generated by graphviz version 2.44.1 (20200629.0846)
 -->
<!-- Title: structure Pages: 1 -->
<svg width="1302pt" height="914pt"
 viewBox="0.00 0.00 1301.78 914.00" xmlns="http://www.w3.org/2000/svg" xmlns:xlink="http://www.w3.org/1999/xlink">
<g id="graph0" class="graph" transform="scale(1 1) rotate(0) translate(4 910)">
<title>structure</title>
<polygon fill="white" stroke="transparent" points="-4,4 -4,-910 1297.78,-910 1297.78,4 -4,4"/>
<!-- node0x7fa14ed04a10 -->
<g id="node1" class="node">
<title>node0x7fa14ed04a10</title>
<polygon fill="#c1ffc1" stroke="black" points="343.12,-882.44 385.78,-870 428.44,-882.44 428.4,-902.56 343.16,-902.56 343.12,-882.44"/>
<text text-anchor="middle" x="385.78" y="-884.3" font-family="Times,serif" font-size="14.00">Linker</text>
</g>
<!-- node0x7fa14ed049c0 -->
<g id="node2" class="node">
<title>node0x7fa14ed049c0</title>
<polygon fill="#c1ffc1" stroke="black" points="64.45,-795.44 258.78,-783 453.11,-795.44 452.93,-815.56 64.63,-815.56 64.45,-795.44"/>
<text text-anchor="middle" x="258.78" y="-797.3" font-family="Times,serif" font-size="14.00">FuncDecl&lt;Identifier&lt;giveYouUp&gt;&gt;:0:13</text>
</g>
<!-- node0x7fa14ed04a10&#45;&gt;node0x7fa14ed049c0 -->
<g id="edge1" class="edge">
<title>node0x7fa14ed04a10&#45;&gt;node0x7fa14ed049c0</title>
<path fill="none" stroke="green" d="M367.85,-875C347.03,-861.06 312.38,-837.87 287.72,-821.37"/>
<polygon fill="green" stroke="green" points="289.39,-818.28 279.14,-815.62 285.5,-824.09 289.39,-818.28"/>
<text text-anchor="middle" x="335.28" y="-840.8" font-family="Times,serif" font-size="14.00">L</text>
</g>
<!-- node0x7fa14ed05140 -->
<g id="node9" class="node">
<title>node0x7fa14ed05140</title>
<polygon fill="#c1ffc1" stroke="black" points="471.12,-795.44 513.78,-783 556.44,-795.44 556.4,-815.56 471.16,-815.56 471.12,-795.44"/>
<text text-anchor="middle" x="513.78" y="-797.3" font-family="Times,serif" font-size="14.00">Linker</text>
</g>
<!-- node0x7fa14ed04a10&#45;&gt;node0x7fa14ed05140 -->
<g id="edge8" class="edge">
<title>node0x7fa14ed04a10&#45;&gt;node0x7fa14ed05140</title>
<path fill="none" stroke="red" d="M403.58,-875.18C424.59,-861.23 459.84,-837.82 484.81,-821.24"/>
<polygon fill="red" stroke="red" points="486.78,-824.13 493.17,-815.69 482.9,-818.3 486.78,-824.13"/>
<text text-anchor="middle" x="462.78" y="-840.8" font-family="Times,serif" font-size="14.00">R</text>
</g>
<!-- node0x7fa14ed04350 -->
<g id="node3" class="node">
<title>node0x7fa14ed04350</title>
<polygon fill="#c1ffc1" stroke="black" points="0.22,-708.44 90.78,-696 181.34,-708.44 181.26,-728.56 0.3,-728.56 0.22,-708.44"/>
<text text-anchor="middle" x="90.78" y="-710.3" font-family="Times,serif" font-size="14.00">None&lt;None&gt;:0:0</text>
</g>
<!-- node0x7fa14ed049c0&#45;&gt;node0x7fa14ed04350 -->
<g id="edge2" class="edge">
<title>node0x7fa14ed049c0&#45;&gt;node0x7fa14ed04350</title>
<path fill="none" stroke="green" d="M228.75,-784.8C200.18,-770.35 157.17,-748.59 126.78,-733.21"/>
<polygon fill="green" stroke="green" points="128.29,-730.05 117.78,-728.66 125.12,-736.3 128.29,-730.05"/>
<text text-anchor="middle" x="190.28" y="-753.8" font-family="Times,serif" font-size="14.00">L</text>
</g>
<!-- node0x7fa14ed04970 -->
<g id="node4" class="node">
<title>node0x7fa14ed04970</title>
<polygon fill="yellow" stroke="black" points="199.38,-708.44 258.78,-696 318.18,-708.44 318.12,-728.56 199.44,-728.56 199.38,-708.44"/>
<text text-anchor="middle" x="258.78" y="-710.3" font-family="Times,serif" font-size="14.00">Linker(ns)</text>
</g>
<!-- node0x7fa14ed049c0&#45;&gt;node0x7fa14ed04970 -->
<g id="edge3" class="edge">
<title>node0x7fa14ed049c0&#45;&gt;node0x7fa14ed04970</title>
<path fill="none" stroke="red" d="M258.78,-782.8C258.78,-770.24 258.78,-753.06 258.78,-739.13"/>
<polygon fill="red" stroke="red" points="262.28,-738.81 258.78,-728.81 255.28,-738.81 262.28,-738.81"/>
<text text-anchor="middle" x="263.78" y="-753.8" font-family="Times,serif" font-size="14.00">R</text>
</g>
<!-- node0x7fa14ed04920 -->
<g id="node5" class="node">
<title>node0x7fa14ed04920</title>
<polygon fill="#c1ffc1" stroke="black" points="168.54,-621.44 256.78,-609 345.02,-621.44 344.94,-641.56 168.62,-641.56 168.54,-621.44"/>
<text text-anchor="middle" x="256.78" y="-623.3" font-family="Times,serif" font-size="14.00">Print&lt;None&gt;:0:0</text>
</g>
<!-- node0x7fa14ed04970&#45;&gt;node0x7fa14ed04920 -->
<g id="edge4" class="edge">
<title>node0x7fa14ed04970&#45;&gt;node0x7fa14ed04920</title>
<path fill="none" stroke="green" d="M258.38,-695.8C258.08,-683.24 257.68,-666.06 257.35,-652.13"/>
<polygon fill="green" stroke="green" points="260.84,-651.73 257.11,-641.81 253.84,-651.89 260.84,-651.73"/>
<text text-anchor="middle" x="263.28" y="-666.8" font-family="Times,serif" font-size="14.00">L</text>
</g>
<!-- node0x7fa14ed048d0 -->
<g id="node6" class="node">
<title>node0x7fa14ed048d0</title>
<polygon fill="#c1ffc1" stroke="black" points="89.75,-534.44 247.78,-522 405.81,-534.44 405.66,-554.56 89.9,-554.56 89.75,-534.44"/>
<text text-anchor="middle" x="247.78" y="-536.3" font-family="Times,serif" font-size="14.00">FuncCall&lt;Identifier&lt;fact&gt;&gt;:1:10</text>
</g>
<!-- node0x7fa14ed04920&#45;&gt;node0x7fa14ed048d0 -->
<g id="edge5" class="edge">
<title>node0x7fa14ed04920&#45;&gt;node0x7fa14ed048d0</title>
<path fill="none" stroke="green" d="M255,-609.21C253.66,-596.48 251.79,-578.84 250.29,-564.68"/>
<polygon fill="green" stroke="green" points="253.76,-564.25 249.23,-554.68 246.8,-564.99 253.76,-564.25"/>
<text text-anchor="middle" x="258.28" y="-579.8" font-family="Times,serif" font-size="14.00">L</text>
</g>
<!-- node0x7fa14ed04880 -->
<g id="node7" class="node">
<title>node0x7fa14ed04880</title>
<polygon fill="#c1ffc1" stroke="black" points="168.12,-447.44 210.78,-435 253.44,-447.44 253.4,-467.56 168.16,-467.56 168.12,-447.44"/>
<text text-anchor="middle" x="210.78" y="-449.3" font-family="Times,serif" font-size="14.00">Linker</text>
</g>
<!-- node0x7fa14ed048d0&#45;&gt;node0x7fa14ed04880 -->
<g id="edge6" class="edge">
<title>node0x7fa14ed048d0&#45;&gt;node0x7fa14ed04880</title>
<path fill="none" stroke="green" d="M240.47,-522.21C234.82,-509.23 226.95,-491.14 220.73,-476.85"/>
<polygon fill="green" stroke="green" points="223.93,-475.45 216.73,-467.68 217.52,-478.24 223.93,-475.45"/>
<text text-anchor="middle" x="236.28" y="-492.8" font-family="Times,serif" font-size="14.00">L</text>
</g>
<!-- node0x7fa14ed04830 -->
<g id="node8" class="node">
<title>node0x7fa14ed04830</title>
<polygon fill="#c1ffc1" stroke="black" points="71.83,-360.44 161.78,-348 251.74,-360.44 251.65,-380.56 71.91,-380.56 71.83,-360.44"/>
<text text-anchor="middle" x="161.78" y="-362.3" font-family="Times,serif" font-size="14.00">Input&lt;None&gt;:0:0</text>
</g>
<!-- node0x7fa14ed04880&#45;&gt;node0x7fa14ed04830 -->
<g id="edge7" class="edge">
<title>node0x7fa14ed04880&#45;&gt;node0x7fa14ed04830</title>
<path fill="none" stroke="green" d="M202.25,-437.19C194.66,-424.04 183.46,-404.61 174.77,-389.53"/>
<polygon fill="green" stroke="green" points="177.76,-387.71 169.73,-380.79 171.69,-391.2 177.76,-387.71"/>
<text text-anchor="middle" x="194.28" y="-405.8" font-family="Times,serif" font-size="14.00">L</text>
</g>
<!-- node0x7fa14ed050f0 -->
<g id="node10" class="node">
<title>node0x7fa14ed050f0</title>
<polygon fill="#c1ffc1" stroke="black" points="352.93,-708.44 513.78,-696 674.63,-708.44 674.48,-728.56 353.08,-728.56 352.93,-708.44"/>
<text text-anchor="middle" x="513.78" y="-710.3" font-family="Times,serif" font-size="14.00">FuncDecl&lt;Identifier&lt;fact&gt;&gt;:4:14</text>
</g>
<!-- node0x7fa14ed05140&#45;&gt;node0x7fa14ed050f0 -->
<g id="edge9" class="edge">
<title>node0x7fa14ed05140&#45;&gt;node0x7fa14ed050f0</title>
<path fill="none" stroke="green" d="M513.78,-782.8C513.78,-770.24 513.78,-753.06 513.78,-739.13"/>
<polygon fill="green" stroke="green" points="517.28,-738.81 513.78,-728.81 510.28,-738.81 517.28,-738.81"/>
<text text-anchor="middle" x="518.28" y="-753.8" font-family="Times,serif" font-size="14.00">L</text>
</g>
<!-- node0x7fa14ed04a60 -->
<g id="node11" class="node">
<title>node0x7fa14ed04a60</title>
<polygon fill="#c1ffc1" stroke="black" points="471.12,-621.44 513.78,-609 556.44,-621.44 556.4,-641.56 471.16,-641.56 471.12,-621.44"/>
<text text-anchor="middle" x="513.78" y="-623.3" font-family="Times,serif" font-size="14.00">Linker</text>
</g>
<!-- node0x7fa14ed050f0&#45;&gt;node0x7fa14ed04a60 -->
<g id="edge10" class="edge">
<title>node0x7fa14ed050f0&#45;&gt;node0x7fa14ed04a60</title>
<path fill="none" stroke="green" d="M513.78,-695.8C513.78,-683.24 513.78,-666.06 513.78,-652.13"/>
<polygon fill="green" stroke="green" points="517.28,-651.81 513.78,-641.81 510.28,-651.81 517.28,-651.81"/>
<text text-anchor="middle" x="518.28" y="-666.8" font-family="Times,serif" font-size="14.00">L</text>
</g>
<!-- node0x7fa14ed04dd0 -->
<g id="node13" class="node">
<title>node0x7fa14ed04dd0</title>
<polygon fill="yellow" stroke="black" points="617.38,-621.44 676.78,-609 736.18,-621.44 736.12,-641.56 617.44,-641.56 617.38,-621.44"/>
<text text-anchor="middle" x="676.78" y="-623.3" font-family="Times,serif" font-size="14.00">Linker(ns)</text>
</g>
<!-- node0x7fa14ed050f0&#45;&gt;node0x7fa14ed04dd0 -->
<g id="edge12" class="edge">
<title>node0x7fa14ed050f0&#45;&gt;node0x7fa14ed04dd0</title>
<path fill="none" stroke="red" d="M542.17,-698.19C569.75,-683.82 611.68,-661.95 641.41,-646.45"/>
<polygon fill="red" stroke="red" points="643.35,-649.38 650.6,-641.65 640.11,-643.17 643.35,-649.38"/>
<text text-anchor="middle" x="610.78" y="-666.8" font-family="Times,serif" font-size="14.00">R</text>
</g>
<!-- node0x7fa14ed04ab0 -->
<g id="node12" class="node">
<title>node0x7fa14ed04ab0</title>
<ellipse fill="aquamarine" stroke="black" cx="513.78" cy="-540" rx="64.99" ry="18"/>
<text text-anchor="middle" x="513.78" y="-536.3" font-family="Times,serif" font-size="14.00">ID&lt;num&gt;:4:19</text>
</g>
<!-- node0x7fa14ed04a60&#45;&gt;node0x7fa14ed04ab0 -->
<g id="edge11" class="edge">
<title>node0x7fa14ed04a60&#45;&gt;node0x7fa14ed04ab0</title>
<path fill="none" stroke="green" d="M513.78,-608.8C513.78,-597.16 513.78,-581.55 513.78,-568.24"/>
<polygon fill="green" stroke="green" points="517.28,-568.18 513.78,-558.18 510.28,-568.18 517.28,-568.18"/>
<text text-anchor="middle" x="518.28" y="-579.8" font-family="Times,serif" font-size="14.00">L</text>
</g>
<!-- node0x7fa14ed04d80 -->
<g id="node14" class="node">
<title>node0x7fa14ed04d80</title>
<polygon fill="#c1ffc1" stroke="black" points="597.82,-534.44 676.78,-522 755.74,-534.44 755.67,-554.56 597.89,-554.56 597.82,-534.44"/>
<text text-anchor="middle" x="676.78" y="-536.3" font-family="Times,serif" font-size="14.00">IfStmt&lt;If&gt;:5:2</text>
</g>
<!-- node0x7fa14ed04dd0&#45;&gt;node0x7fa14ed04d80 -->
<g id="edge13" class="edge">
<title>node0x7fa14ed04dd0&#45;&gt;node0x7fa14ed04d80</title>
<path fill="none" stroke="green" d="M676.78,-608.8C676.78,-596.24 676.78,-579.06 676.78,-565.13"/>
<polygon fill="green" stroke="green" points="680.28,-564.81 676.78,-554.81 673.28,-564.81 680.28,-564.81"/>
<text text-anchor="middle" x="681.28" y="-579.8" font-family="Times,serif" font-size="14.00">L</text>
</g>
<!-- node0x7fa14ed050a0 -->
<g id="node23" class="node">
<title>node0x7fa14ed050a0</title>
<polygon fill="#c1ffc1" stroke="black" points="793.12,-534.44 835.78,-522 878.44,-534.44 878.4,-554.56 793.16,-554.56 793.12,-534.44"/>
<text text-anchor="middle" x="835.78" y="-536.3" font-family="Times,serif" font-size="14.00">Linker</text>
</g>
<!-- node0x7fa14ed04dd0&#45;&gt;node0x7fa14ed050a0 -->
<g id="edge22" class="edge">
<title>node0x7fa14ed04dd0&#45;&gt;node0x7fa14ed050a0</title>
<path fill="none" stroke="red" d="M699.9,-613.64C726.52,-599.41 770.51,-575.9 801.2,-559.49"/>
<polygon fill="red" stroke="red" points="803.09,-562.44 810.26,-554.64 799.79,-556.27 803.09,-562.44"/>
<text text-anchor="middle" x="771.78" y="-579.8" font-family="Times,serif" font-size="14.00">R</text>
</g>
<!-- node0x7fa14ed04ba0 -->
<g id="node15" class="node">
<title>node0x7fa14ed04ba0</title>
<polygon fill="#c1ffc1" stroke="black" points="364.52,-447.44 490.78,-435 617.04,-447.44 616.92,-467.56 364.64,-467.56 364.52,-447.44"/>
<text text-anchor="middle" x="490.78" y="-449.3" font-family="Times,serif" font-size="14.00">CmpOperator&lt;Leq&gt;:5:26</text>
</g>
<!-- node0x7fa14ed04d80&#45;&gt;node0x7fa14ed04ba0 -->
<g id="edge14" class="edge">
<title>node0x7fa14ed04d80&#45;&gt;node0x7fa14ed04ba0</title>
<path fill="none" stroke="green" d="M648.94,-526.27C617.3,-511.82 565.47,-488.13 529.81,-471.84"/>
<polygon fill="green" stroke="green" points="531.22,-468.63 520.67,-467.66 528.31,-475 531.22,-468.63"/>
<text text-anchor="middle" x="600.28" y="-492.8" font-family="Times,serif" font-size="14.00">L</text>
</g>
<!-- node0x7fa14ed04d30 -->
<g id="node18" class="node">
<title>node0x7fa14ed04d30</title>
<polygon fill="#c1ffc1" stroke="black" points="635.12,-447.44 677.78,-435 720.44,-447.44 720.4,-467.56 635.16,-467.56 635.12,-447.44"/>
<text text-anchor="middle" x="677.78" y="-449.3" font-family="Times,serif" font-size="14.00">Linker</text>
</g>
<!-- node0x7fa14ed04d80&#45;&gt;node0x7fa14ed04d30 -->
<g id="edge17" class="edge">
<title>node0x7fa14ed04d80&#45;&gt;node0x7fa14ed04d30</title>
<path fill="none" stroke="red" d="M676.98,-521.8C677.13,-509.24 677.33,-492.06 677.5,-478.13"/>
<polygon fill="red" stroke="red" points="681,-477.85 677.62,-467.81 674,-477.77 681,-477.85"/>
<text text-anchor="middle" x="682.78" y="-492.8" font-family="Times,serif" font-size="14.00">R</text>
</g>
<!-- node0x7fa14ed04b00 -->
<g id="node16" class="node">
<title>node0x7fa14ed04b00</title>
<ellipse fill="aquamarine" stroke="black" cx="334.78" cy="-366" rx="64.99" ry="18"/>
<text text-anchor="middle" x="334.78" y="-362.3" font-family="Times,serif" font-size="14.00">ID&lt;num&gt;:5:22</text>
</g>
<!-- node0x7fa14ed04ba0&#45;&gt;node0x7fa14ed04b00 -->
<g id="edge15" class="edge">
<title>node0x7fa14ed04ba0&#45;&gt;node0x7fa14ed04b00</title>
<path fill="none" stroke="green" d="M464.32,-437.58C438.9,-423.73 400.28,-402.69 371.81,-387.18"/>
<polygon fill="green" stroke="green" points="373.41,-384.06 362.96,-382.35 370.06,-390.21 373.41,-384.06"/>
<text text-anchor="middle" x="427.28" y="-405.8" font-family="Times,serif" font-size="14.00">L</text>
</g>
<!-- node0x7fa14ed04b50 -->
<g id="node17" class="node">
<title>node0x7fa14ed04b50</title>
<ellipse fill="pink" stroke="black" cx="490.78" cy="-366" rx="73.39" ry="18"/>
<text text-anchor="middle" x="490.78" y="-362.3" font-family="Times,serif" font-size="14.00">Number&lt;1&gt;:5:29</text>
</g>
<!-- node0x7fa14ed04ba0&#45;&gt;node0x7fa14ed04b50 -->
<g id="edge16" class="edge">
<title>node0x7fa14ed04ba0&#45;&gt;node0x7fa14ed04b50</title>
<path fill="none" stroke="red" d="M490.78,-434.8C490.78,-423.16 490.78,-407.55 490.78,-394.24"/>
<polygon fill="red" stroke="red" points="494.28,-394.18 490.78,-384.18 487.28,-394.18 494.28,-394.18"/>
<text text-anchor="middle" x="495.78" y="-405.8" font-family="Times,serif" font-size="14.00">R</text>
</g>
<!-- node0x7fa14ed04c90 -->
<g id="node19" class="node">
<title>node0x7fa14ed04c90</title>
<polygon fill="yellow" stroke="black" points="582.38,-360.44 641.78,-348 701.18,-360.44 701.12,-380.56 582.44,-380.56 582.38,-360.44"/>
<text text-anchor="middle" x="641.78" y="-362.3" font-family="Times,serif" font-size="14.00">Linker(ns)</text>
</g>
<!-- node0x7fa14ed04d30&#45;&gt;node0x7fa14ed04c90 -->
<g id="edge18" class="edge">
<title>node0x7fa14ed04d30&#45;&gt;node0x7fa14ed04c90</title>
<path fill="none" stroke="green" d="M671.35,-436.8C665.86,-423.85 657.88,-405.01 651.6,-390.17"/>
<polygon fill="green" stroke="green" points="654.69,-388.5 647.57,-380.66 648.24,-391.23 654.69,-388.5"/>
<text text-anchor="middle" x="667.28" y="-405.8" font-family="Times,serif" font-size="14.00">L</text>
</g>
<!-- node0x7fa14ed04ce0 -->
<g id="node22" class="node">
<title>node0x7fa14ed04ce0</title>
<polygon fill="#c1ffc1" stroke="black" points="719.22,-360.44 809.78,-348 900.34,-360.44 900.26,-380.56 719.3,-380.56 719.22,-360.44"/>
<text text-anchor="middle" x="809.78" y="-362.3" font-family="Times,serif" font-size="14.00">None&lt;None&gt;:0:0</text>
</g>
<!-- node0x7fa14ed04d30&#45;&gt;node0x7fa14ed04ce0 -->
<g id="edge21" class="edge">
<title>node0x7fa14ed04d30&#45;&gt;node0x7fa14ed04ce0</title>
<path fill="none" stroke="red" d="M696.14,-440.18C717.81,-426.23 754.16,-402.82 779.9,-386.24"/>
<polygon fill="red" stroke="red" points="782.01,-389.04 788.53,-380.69 778.22,-383.16 782.01,-389.04"/>
<text text-anchor="middle" x="756.78" y="-405.8" font-family="Times,serif" font-size="14.00">R</text>
</g>
<!-- node0x7fa14ed04c40 -->
<g id="node20" class="node">
<title>node0x7fa14ed04c40</title>
<polygon fill="#c1ffc1" stroke="black" points="524.7,-273.44 641.78,-261 758.87,-273.44 758.76,-293.56 524.81,-293.56 524.7,-273.44"/>
<text text-anchor="middle" x="641.78" y="-275.3" font-family="Times,serif" font-size="14.00">ReturnStmt&lt;None&gt;:0:0</text>
</g>
<!-- node0x7fa14ed04c90&#45;&gt;node0x7fa14ed04c40 -->
<g id="edge19" class="edge">
<title>node0x7fa14ed04c90&#45;&gt;node0x7fa14ed04c40</title>
<path fill="none" stroke="green" d="M641.78,-347.8C641.78,-335.24 641.78,-318.06 641.78,-304.13"/>
<polygon fill="green" stroke="green" points="645.28,-303.81 641.78,-293.81 638.28,-303.81 645.28,-303.81"/>
<text text-anchor="middle" x="646.28" y="-318.8" font-family="Times,serif" font-size="14.00">L</text>
</g>
<!-- node0x7fa14ed04bf0 -->
<g id="node21" class="node">
<title>node0x7fa14ed04bf0</title>
<ellipse fill="pink" stroke="black" cx="641.78" cy="-192" rx="73.39" ry="18"/>
<text text-anchor="middle" x="641.78" y="-188.3" font-family="Times,serif" font-size="14.00">Number&lt;1&gt;:6:41</text>
</g>
<!-- node0x7fa14ed04c40&#45;&gt;node0x7fa14ed04bf0 -->
<g id="edge20" class="edge">
<title>node0x7fa14ed04c40&#45;&gt;node0x7fa14ed04bf0</title>
<path fill="none" stroke="green" d="M641.78,-260.8C641.78,-249.16 641.78,-233.55 641.78,-220.24"/>
<polygon fill="green" stroke="green" points="645.28,-220.18 641.78,-210.18 638.28,-220.18 645.28,-220.18"/>
<text text-anchor="middle" x="646.28" y="-231.8" font-family="Times,serif" font-size="14.00">L</text>
</g>
<!-- node0x7fa14ed05050 -->
<g id="node24" class="node">
<title>node0x7fa14ed05050</title>
<polygon fill="#c1ffc1" stroke="black" points="830.7,-447.44 947.78,-435 1064.87,-447.44 1064.76,-467.56 830.81,-467.56 830.7,-447.44"/>
<text text-anchor="middle" x="947.78" y="-449.3" font-family="Times,serif" font-size="14.00">ReturnStmt&lt;None&gt;:0:0</text>
</g>
<!-- node0x7fa14ed050a0&#45;&gt;node0x7fa14ed05050 -->
<g id="edge23" class="edge">
<title>node0x7fa14ed050a0&#45;&gt;node0x7fa14ed05050</title>
<path fill="none" stroke="green" d="M852.31,-526.46C870.57,-512.6 900.23,-490.09 921.65,-473.83"/>
<polygon fill="green" stroke="green" points="923.85,-476.56 929.7,-467.72 919.62,-470.98 923.85,-476.56"/>
<text text-anchor="middle" x="903.28" y="-492.8" font-family="Times,serif" font-size="14.00">L</text>
</g>
<!-- node0x7fa14ed05000 -->
<g id="node25" class="node">
<title>node0x7fa14ed05000</title>
<polygon fill="#c1ffc1" stroke="black" points="918.66,-360.44 1039.78,-348 1160.9,-360.44 1160.79,-380.56 918.78,-380.56 918.66,-360.44"/>
<text text-anchor="middle" x="1039.78" y="-362.3" font-family="Times,serif" font-size="14.00">MaOperator&lt;Mul&gt;:7:45</text>
</g>
<!-- node0x7fa14ed05050&#45;&gt;node0x7fa14ed05000 -->
<g id="edge24" class="edge">
<title>node0x7fa14ed05050&#45;&gt;node0x7fa14ed05000</title>
<path fill="none" stroke="green" d="M964.66,-436.41C979.46,-422.74 1001.09,-402.75 1017.35,-387.73"/>
<polygon fill="green" stroke="green" points="1019.87,-390.16 1024.84,-380.8 1015.12,-385.02 1019.87,-390.16"/>
<text text-anchor="middle" x="1004.28" y="-405.8" font-family="Times,serif" font-size="14.00">L</text>
</g>
<!-- node0x7fa14ed04f60 -->
<g id="node26" class="node">
<title>node0x7fa14ed04f60</title>
<polygon fill="#c1ffc1" stroke="black" points="829.75,-273.44 987.78,-261 1145.81,-273.44 1145.66,-293.56 829.9,-293.56 829.75,-273.44"/>
<text text-anchor="middle" x="987.78" y="-275.3" font-family="Times,serif" font-size="14.00">FuncCall&lt;Identifier&lt;fact&gt;&gt;:7:31</text>
</g>
<!-- node0x7fa14ed05000&#45;&gt;node0x7fa14ed04f60 -->
<g id="edge25" class="edge">
<title>node0x7fa14ed05000&#45;&gt;node0x7fa14ed04f60</title>
<path fill="none" stroke="green" d="M1029.76,-348.61C1021.77,-335.55 1010.49,-317.12 1001.64,-302.65"/>
<polygon fill="green" stroke="green" points="1004.43,-300.51 996.23,-293.81 998.46,-304.17 1004.43,-300.51"/>
<text text-anchor="middle" x="1022.28" y="-318.8" font-family="Times,serif" font-size="14.00">L</text>
</g>
<!-- node0x7fa14ed04fb0 -->
<g id="node31" class="node">
<title>node0x7fa14ed04fb0</title>
<ellipse fill="aquamarine" stroke="black" cx="1228.78" cy="-279" rx="64.99" ry="18"/>
<text text-anchor="middle" x="1228.78" y="-275.3" font-family="Times,serif" font-size="14.00">ID&lt;num&gt;:7:47</text>
</g>
<!-- node0x7fa14ed05000&#45;&gt;node0x7fa14ed04fb0 -->
<g id="edge30" class="edge">
<title>node0x7fa14ed05000&#45;&gt;node0x7fa14ed04fb0</title>
<path fill="none" stroke="red" d="M1070.57,-351.15C1102.12,-336.96 1151.41,-314.8 1186.58,-298.98"/>
<polygon fill="red" stroke="red" points="1188.42,-301.99 1196.1,-294.7 1185.55,-295.61 1188.42,-301.99"/>
<text text-anchor="middle" x="1150.78" y="-318.8" font-family="Times,serif" font-size="14.00">R</text>
</g>
<!-- node0x7fa14ed04f10 -->
<g id="node27" class="node">
<title>node0x7fa14ed04f10</title>
<polygon fill="#c1ffc1" stroke="black" points="945.12,-186.44 987.78,-174 1030.44,-186.44 1030.4,-206.56 945.16,-206.56 945.12,-186.44"/>
<text text-anchor="middle" x="987.78" y="-188.3" font-family="Times,serif" font-size="14.00">Linker</text>
</g>
<!-- node0x7fa14ed04f60&#45;&gt;node0x7fa14ed04f10 -->
<g id="edge26" class="edge">
<title>node0x7fa14ed04f60&#45;&gt;node0x7fa14ed04f10</title>
<path fill="none" stroke="green" d="M987.78,-260.8C987.78,-248.24 987.78,-231.06 987.78,-217.13"/>
<polygon fill="green" stroke="green" points="991.28,-216.81 987.78,-206.81 984.28,-216.81 991.28,-216.81"/>
<text text-anchor="middle" x="992.28" y="-231.8" font-family="Times,serif" font-size="14.00">L</text>
</g>
<!-- node0x7fa14ed04ec0 -->
<g id="node28" class="node">
<title>node0x7fa14ed04ec0</title>
<polygon fill="#c1ffc1" stroke="black" points="856.88,-99.44 987.78,-87 1118.68,-99.44 1118.56,-119.56 857,-119.56 856.88,-99.44"/>
<text text-anchor="middle" x="987.78" y="-101.3" font-family="Times,serif" font-size="14.00">MaOperator&lt;Minus&gt;:7:40</text>
</g>
<!-- node0x7fa14ed04f10&#45;&gt;node0x7fa14ed04ec0 -->
<g id="edge27" class="edge">
<title>node0x7fa14ed04f10&#45;&gt;node0x7fa14ed04ec0</title>
<path fill="none" stroke="green" d="M987.78,-173.8C987.78,-161.24 987.78,-144.06 987.78,-130.13"/>
<polygon fill="green" stroke="green" points="991.28,-129.81 987.78,-119.81 984.28,-129.81 991.28,-129.81"/>
<text text-anchor="middle" x="992.28" y="-144.8" font-family="Times,serif" font-size="14.00">L</text>
</g>
<!-- node0x7fa14ed04e20 -->
<g id="node29" class="node">
<title>node0x7fa14ed04e20</title>
<ellipse fill="aquamarine" stroke="black" cx="909.78" cy="-18" rx="64.99" ry="18"/>
<text text-anchor="middle" x="909.78" y="-14.3" font-family="Times,serif" font-size="14.00">ID&lt;num&gt;:7:36</text>
</g>
<!-- node0x7fa14ed04ec0&#45;&gt;node0x7fa14ed04e20 -->
<g id="edge28" class="edge">
<title>node0x7fa14ed04ec0&#45;&gt;node0x7fa14ed04e20</title>
<path fill="none" stroke="green" d="M973.11,-88.01C961.57,-75.43 945.29,-57.7 932.13,-43.35"/>
<polygon fill="green" stroke="green" points="934.53,-40.79 925.19,-35.79 929.37,-45.52 934.53,-40.79"/>
<text text-anchor="middle" x="958.28" y="-57.8" font-family="Times,serif" font-size="14.00">L</text>
</g>
<!-- node0x7fa14ed04e70 -->
<g id="node30" class="node">
<title>node0x7fa14ed04e70</title>
<ellipse fill="pink" stroke="black" cx="1065.78" cy="-18" rx="73.39" ry="18"/>
<text text-anchor="middle" x="1065.78" y="-14.3" font-family="Times,serif" font-size="14.00">Number&lt;1&gt;:7:42</text>
</g>
<!-- node0x7fa14ed04ec0&#45;&gt;node0x7fa14ed04e70 -->
<g id="edge29" class="edge">
<title>node0x7fa14ed04ec0&#45;&gt;node0x7fa14ed04e70</title>
<path fill="none" stroke="red" d="M1002.45,-88.01C1014,-75.43 1030.27,-57.7 1043.43,-43.35"/>
<polygon fill="red" stroke="red" points="1046.19,-45.52 1050.38,-35.79 1041.04,-40.79 1046.19,-45.52"/>
<text text-anchor="middle" x="1036.78" y="-57.8" font-family="Times,serif" font-size="14.00">R</text>
</g>
</g>
</svg>
