<?xml version="1.0" encoding="UTF-8" standalone="no"?>
<!DOCTYPE svg PUBLIC "-//W3C//DTD SVG 1.1//EN"
 "http://www.w3.org/Graphics/SVG/1.1/DTD/svg11.dtd">
<!-- Generated by graphviz version 2.44.1 (20200629.0846)
 -->
<!-- Title: structure Pages: 1 -->
<svg width="800pt" height="548pt"
 viewBox="0.00 0.00 800.34 548.00" xmlns="http://www.w3.org/2000/svg" xmlns:xlink="http://www.w3.org/1999/xlink">
<g id="graph0" class="graph" transform="scale(1 1) rotate(0) translate(4 544)">
<title>structure</title>
<polygon fill="white" stroke="transparent" points="-4,4 -4,-544 796.34,-544 796.34,4 -4,4"/>
<!-- node0x7f8d65f04450 -->
<g id="node1" class="node">
<title>node0x7f8d65f04450</title>
<polygon fill="#c1ffc1" stroke="black" points="110.81,-516.44 171.92,-504 233.03,-516.44 232.98,-536.56 110.87,-536.56 110.81,-516.44"/>
<text text-anchor="middle" x="171.92" y="-518.3" font-family="Times,serif" font-size="14.00">Linker&lt;0&gt;</text>
</g>
<!-- node0x7f8d65f04410 -->
<g id="node2" class="node">
<title>node0x7f8d65f04410</title>
<polygon fill="#c1ffc1" stroke="black" points="0.08,-444.44 171.92,-432 343.77,-444.44 343.61,-464.56 0.24,-464.56 0.08,-444.44"/>
<text text-anchor="middle" x="171.92" y="-446.3" font-family="Times,serif" font-size="14.00">FuncDecl&lt;Identifier&lt;giveYouUp&gt;&gt;</text>
</g>
<!-- node0x7f8d65f04450&#45;&gt;node0x7f8d65f04410 -->
<g id="edge1" class="edge">
<title>node0x7f8d65f04450&#45;&gt;node0x7f8d65f04410</title>
<path fill="none" stroke="black" d="M171.92,-503.7C171.92,-494.99 171.92,-484.3 171.92,-474.83"/>
<polygon fill="black" stroke="black" points="175.42,-474.82 171.92,-464.82 168.42,-474.82 175.42,-474.82"/>
</g>
<!-- node0x7f8d65f04090 -->
<g id="node3" class="node">
<title>node0x7f8d65f04090</title>
<polygon fill="#c1ffc1" stroke="black" points="22.1,-372.44 95.92,-360 169.74,-372.44 169.67,-392.56 22.17,-392.56 22.1,-372.44"/>
<text text-anchor="middle" x="95.92" y="-374.3" font-family="Times,serif" font-size="14.00">None&lt;None&gt;</text>
</g>
<!-- node0x7f8d65f04410&#45;&gt;node0x7f8d65f04090 -->
<g id="edge2" class="edge">
<title>node0x7f8d65f04410&#45;&gt;node0x7f8d65f04090</title>
<path fill="none" stroke="black" d="M154.68,-433.12C143.93,-423.22 129.99,-410.38 118.38,-399.69"/>
<polygon fill="black" stroke="black" points="120.52,-396.9 110.79,-392.7 115.78,-402.04 120.52,-396.9"/>
</g>
<!-- node0x7f8d65f04150 -->
<g id="node4" class="node">
<title>node0x7f8d65f04150</title>
<polygon fill="#c1ffc1" stroke="black" points="187.81,-372.44 248.92,-360 310.03,-372.44 309.98,-392.56 187.87,-392.56 187.81,-372.44"/>
<text text-anchor="middle" x="248.92" y="-374.3" font-family="Times,serif" font-size="14.00">Linker&lt;0&gt;</text>
</g>
<!-- node0x7f8d65f04410&#45;&gt;node0x7f8d65f04150 -->
<g id="edge3" class="edge">
<title>node0x7f8d65f04410&#45;&gt;node0x7f8d65f04150</title>
<path fill="none" stroke="black" d="M189.39,-433.12C200.28,-423.22 214.41,-410.38 226.16,-399.69"/>
<polygon fill="black" stroke="black" points="228.81,-402.01 233.86,-392.7 224.1,-396.83 228.81,-402.01"/>
</g>
<!-- node0x7f8d65f040d0 -->
<g id="node5" class="node">
<title>node0x7f8d65f040d0</title>
<polygon fill="#c1ffc1" stroke="black" points="2.56,-300.44 140.92,-288 279.28,-300.44 279.15,-320.56 2.69,-320.56 2.56,-300.44"/>
<text text-anchor="middle" x="140.92" y="-302.3" font-family="Times,serif" font-size="14.00">VarDef&lt;Identifier&lt;coffee&gt;&gt;</text>
</g>
<!-- node0x7f8d65f04150&#45;&gt;node0x7f8d65f040d0 -->
<g id="edge4" class="edge">
<title>node0x7f8d65f04150&#45;&gt;node0x7f8d65f040d0</title>
<path fill="none" stroke="black" d="M228.86,-364C212.43,-353.35 188.95,-338.13 170.39,-326.1"/>
<polygon fill="black" stroke="black" points="172.28,-323.15 161.98,-320.65 168.47,-329.03 172.28,-323.15"/>
</g>
<!-- node0x7f8d65f04250 -->
<g id="node7" class="node">
<title>node0x7f8d65f04250</title>
<polygon fill="#c1ffc1" stroke="black" points="296.81,-300.44 357.92,-288 419.03,-300.44 418.98,-320.56 296.87,-320.56 296.81,-300.44"/>
<text text-anchor="middle" x="357.92" y="-302.3" font-family="Times,serif" font-size="14.00">Linker&lt;0&gt;</text>
</g>
<!-- node0x7f8d65f04150&#45;&gt;node0x7f8d65f04250 -->
<g id="edge6" class="edge">
<title>node0x7f8d65f04150&#45;&gt;node0x7f8d65f04250</title>
<path fill="none" stroke="black" d="M269.17,-364C285.75,-353.35 309.45,-338.13 328.19,-326.1"/>
<polygon fill="black" stroke="black" points="330.14,-329 336.67,-320.65 326.36,-323.11 330.14,-329"/>
</g>
<!-- node0x7f8d65f04110 -->
<g id="node6" class="node">
<title>node0x7f8d65f04110</title>
<ellipse fill="pink" stroke="black" cx="140.92" cy="-234" rx="63.89" ry="18"/>
<text text-anchor="middle" x="140.92" y="-230.3" font-family="Times,serif" font-size="14.00">Number&lt;123&gt;</text>
</g>
<!-- node0x7f8d65f040d0&#45;&gt;node0x7f8d65f04110 -->
<g id="edge5" class="edge">
<title>node0x7f8d65f040d0&#45;&gt;node0x7f8d65f04110</title>
<path fill="none" stroke="black" d="M140.92,-287.7C140.92,-279.98 140.92,-270.71 140.92,-262.11"/>
<polygon fill="black" stroke="black" points="144.42,-262.1 140.92,-252.1 137.42,-262.1 144.42,-262.1"/>
</g>
<!-- node0x7f8d65f041d0 -->
<g id="node8" class="node">
<title>node0x7f8d65f041d0</title>
<polygon fill="#c1ffc1" stroke="black" points="233.48,-228.44 345.92,-216 458.37,-228.44 458.26,-248.56 233.58,-248.56 233.48,-228.44"/>
<text text-anchor="middle" x="345.92" y="-230.3" font-family="Times,serif" font-size="14.00">AssignExpr&lt;AdAssg&gt;</text>
</g>
<!-- node0x7f8d65f04250&#45;&gt;node0x7f8d65f041d0 -->
<g id="edge7" class="edge">
<title>node0x7f8d65f04250&#45;&gt;node0x7f8d65f041d0</title>
<path fill="none" stroke="black" d="M355.08,-288.41C353.55,-279.5 351.64,-268.37 349.96,-258.58"/>
<polygon fill="black" stroke="black" points="353.4,-257.91 348.26,-248.65 346.5,-259.1 353.4,-257.91"/>
</g>
<!-- node0x7f8d65f04310 -->
<g id="node11" class="node">
<title>node0x7f8d65f04310</title>
<polygon fill="#c1ffc1" stroke="black" points="476.81,-228.44 537.92,-216 599.03,-228.44 598.98,-248.56 476.87,-248.56 476.81,-228.44"/>
<text text-anchor="middle" x="537.92" y="-230.3" font-family="Times,serif" font-size="14.00">Linker&lt;0&gt;</text>
</g>
<!-- node0x7f8d65f04250&#45;&gt;node0x7f8d65f04310 -->
<g id="edge10" class="edge">
<title>node0x7f8d65f04250&#45;&gt;node0x7f8d65f04310</title>
<path fill="none" stroke="black" d="M386.84,-293.75C415.61,-282.57 460.13,-265.25 493.4,-252.31"/>
<polygon fill="black" stroke="black" points="494.85,-255.51 502.9,-248.62 492.31,-248.98 494.85,-255.51"/>
</g>
<!-- node0x7f8d65f04190 -->
<g id="node9" class="node">
<title>node0x7f8d65f04190</title>
<ellipse fill="pink" stroke="black" cx="232.92" cy="-162" rx="55.49" ry="18"/>
<text text-anchor="middle" x="232.92" y="-158.3" font-family="Times,serif" font-size="14.00">Number&lt;1&gt;</text>
</g>
<!-- node0x7f8d65f041d0&#45;&gt;node0x7f8d65f04190 -->
<g id="edge8" class="edge">
<title>node0x7f8d65f041d0&#45;&gt;node0x7f8d65f04190</title>
<path fill="none" stroke="black" d="M322.51,-218.5C306.18,-208.38 284.15,-194.73 266.02,-183.5"/>
<polygon fill="black" stroke="black" points="267.82,-180.5 257.48,-178.21 264.14,-186.45 267.82,-180.5"/>
</g>
<!-- node0x7f8d65f04210 -->
<g id="node10" class="node">
<title>node0x7f8d65f04210</title>
<ellipse fill="aquamarine" stroke="black" cx="358.92" cy="-162" rx="52.79" ry="18"/>
<text text-anchor="middle" x="358.92" y="-158.3" font-family="Times,serif" font-size="14.00">ID&lt;coffee&gt;</text>
</g>
<!-- node0x7f8d65f041d0&#45;&gt;node0x7f8d65f04210 -->
<g id="edge9" class="edge">
<title>node0x7f8d65f041d0&#45;&gt;node0x7f8d65f04210</title>
<path fill="none" stroke="black" d="M349.07,-216.05C350.5,-208.35 352.23,-199.03 353.84,-190.36"/>
<polygon fill="black" stroke="black" points="357.33,-190.75 355.71,-180.28 350.45,-189.47 357.33,-190.75"/>
</g>
<!-- node0x7f8d65f042d0 -->
<g id="node12" class="node">
<title>node0x7f8d65f042d0</title>
<polygon fill="#c1ffc1" stroke="black" points="454.42,-156.44 525.92,-144 597.42,-156.44 597.36,-176.56 454.49,-176.56 454.42,-156.44"/>
<text text-anchor="middle" x="525.92" y="-158.3" font-family="Times,serif" font-size="14.00">Print&lt;None&gt;</text>
</g>
<!-- node0x7f8d65f04310&#45;&gt;node0x7f8d65f042d0 -->
<g id="edge11" class="edge">
<title>node0x7f8d65f04310&#45;&gt;node0x7f8d65f042d0</title>
<path fill="none" stroke="black" d="M535.08,-216.41C533.55,-207.5 531.64,-196.37 529.96,-186.58"/>
<polygon fill="black" stroke="black" points="533.4,-185.91 528.26,-176.65 526.5,-187.1 533.4,-185.91"/>
</g>
<!-- node0x7f8d65f043d0 -->
<g id="node14" class="node">
<title>node0x7f8d65f043d0</title>
<polygon fill="#c1ffc1" stroke="black" points="625.81,-156.44 686.92,-144 748.03,-156.44 747.98,-176.56 625.87,-176.56 625.81,-156.44"/>
<text text-anchor="middle" x="686.92" y="-158.3" font-family="Times,serif" font-size="14.00">Linker&lt;0&gt;</text>
</g>
<!-- node0x7f8d65f04310&#45;&gt;node0x7f8d65f043d0 -->
<g id="edge13" class="edge">
<title>node0x7f8d65f04310&#45;&gt;node0x7f8d65f043d0</title>
<path fill="none" stroke="black" d="M563.2,-221.13C586.67,-210.1 621.93,-193.53 648.82,-180.9"/>
<polygon fill="black" stroke="black" points="650.38,-184.03 657.94,-176.61 647.41,-177.7 650.38,-184.03"/>
</g>
<!-- node0x7f8d65f04290 -->
<g id="node13" class="node">
<title>node0x7f8d65f04290</title>
<ellipse fill="aquamarine" stroke="black" cx="520.92" cy="-90" rx="52.79" ry="18"/>
<text text-anchor="middle" x="520.92" y="-86.3" font-family="Times,serif" font-size="14.00">ID&lt;coffee&gt;</text>
</g>
<!-- node0x7f8d65f042d0&#45;&gt;node0x7f8d65f04290 -->
<g id="edge12" class="edge">
<title>node0x7f8d65f042d0&#45;&gt;node0x7f8d65f04290</title>
<path fill="none" stroke="black" d="M524.71,-144.05C524.16,-136.35 523.5,-127.03 522.88,-118.36"/>
<polygon fill="black" stroke="black" points="526.36,-118 522.16,-108.28 519.38,-118.5 526.36,-118"/>
</g>
<!-- node0x7f8d65f04390 -->
<g id="node15" class="node">
<title>node0x7f8d65f04390</title>
<polygon fill="#c1ffc1" stroke="black" points="591.58,-84.44 691.92,-72 792.27,-84.44 792.17,-104.56 591.67,-104.56 591.58,-84.44"/>
<text text-anchor="middle" x="691.92" y="-86.3" font-family="Times,serif" font-size="14.00">ReturnStmt&lt;None&gt;</text>
</g>
<!-- node0x7f8d65f043d0&#45;&gt;node0x7f8d65f04390 -->
<g id="edge14" class="edge">
<title>node0x7f8d65f043d0&#45;&gt;node0x7f8d65f04390</title>
<path fill="none" stroke="black" d="M688.13,-144.05C688.75,-135.35 689.52,-124.6 690.2,-115.06"/>
<polygon fill="black" stroke="black" points="693.7,-115.19 690.92,-104.97 686.72,-114.69 693.7,-115.19"/>
</g>
<!-- node0x7f8d65f04350 -->
<g id="node16" class="node">
<title>node0x7f8d65f04350</title>
<ellipse fill="aquamarine" stroke="black" cx="691.92" cy="-18" rx="52.79" ry="18"/>
<text text-anchor="middle" x="691.92" y="-14.3" font-family="Times,serif" font-size="14.00">ID&lt;coffee&gt;</text>
</g>
<!-- node0x7f8d65f04390&#45;&gt;node0x7f8d65f04350 -->
<g id="edge15" class="edge">
<title>node0x7f8d65f04390&#45;&gt;node0x7f8d65f04350</title>
<path fill="none" stroke="black" d="M691.92,-71.7C691.92,-63.98 691.92,-54.71 691.92,-46.11"/>
<polygon fill="black" stroke="black" points="695.42,-46.1 691.92,-36.1 688.42,-46.1 695.42,-46.1"/>
</g>
</g>
</svg>
