<?xml version="1.0" encoding="UTF-8" standalone="no"?>
<!DOCTYPE svg PUBLIC "-//W3C//DTD SVG 1.1//EN"
 "http://www.w3.org/Graphics/SVG/1.1/DTD/svg11.dtd">
<!-- Generated by graphviz version 2.44.1 (20200629.0846)
 -->
<!-- Title: structure Pages: 1 -->
<svg width="770pt" height="548pt"
 viewBox="0.00 0.00 770.34 548.00" xmlns="http://www.w3.org/2000/svg" xmlns:xlink="http://www.w3.org/1999/xlink">
<g id="graph0" class="graph" transform="scale(1 1) rotate(0) translate(4 544)">
<title>structure</title>
<polygon fill="white" stroke="transparent" points="-4,4 -4,-544 766.34,-544 766.34,4 -4,4"/>
<!-- node0x7fc493504840 -->
<g id="node1" class="node">
<title>node0x7fc493504840</title>
<polygon fill="#c1ffc1" stroke="black" points="129.26,-516.44 171.92,-504 214.58,-516.44 214.54,-536.56 129.3,-536.56 129.26,-516.44"/>
<text text-anchor="middle" x="171.92" y="-518.3" font-family="Times,serif" font-size="14.00">Linker</text>
</g>
<!-- node0x7fc493504800 -->
<g id="node2" class="node">
<title>node0x7fc493504800</title>
<polygon fill="#c1ffc1" stroke="black" points="0.08,-444.44 171.92,-432 343.77,-444.44 343.61,-464.56 0.24,-464.56 0.08,-444.44"/>
<text text-anchor="middle" x="171.92" y="-446.3" font-family="Times,serif" font-size="14.00">FuncDecl&lt;Identifier&lt;giveYouUp&gt;&gt;</text>
</g>
<!-- node0x7fc493504840&#45;&gt;node0x7fc493504800 -->
<g id="edge1" class="edge">
<title>node0x7fc493504840&#45;&gt;node0x7fc493504800</title>
<path fill="none" stroke="black" d="M171.92,-503.7C171.92,-494.99 171.92,-484.3 171.92,-474.83"/>
<polygon fill="black" stroke="black" points="175.42,-474.82 171.92,-464.82 168.42,-474.82 175.42,-474.82"/>
</g>
<!-- node0x7fc493504140 -->
<g id="node3" class="node">
<title>node0x7fc493504140</title>
<polygon fill="#c1ffc1" stroke="black" points="31.1,-372.44 104.92,-360 178.74,-372.44 178.67,-392.56 31.17,-392.56 31.1,-372.44"/>
<text text-anchor="middle" x="104.92" y="-374.3" font-family="Times,serif" font-size="14.00">None&lt;None&gt;</text>
</g>
<!-- node0x7fc493504800&#45;&gt;node0x7fc493504140 -->
<g id="edge2" class="edge">
<title>node0x7fc493504800&#45;&gt;node0x7fc493504140</title>
<path fill="none" stroke="black" d="M156.38,-432.76C147.14,-423.11 135.31,-410.75 125.32,-400.31"/>
<polygon fill="black" stroke="black" points="127.56,-397.59 118.12,-392.79 122.5,-402.43 127.56,-397.59"/>
</g>
<!-- node0x7fc493504540 -->
<g id="node4" class="node">
<title>node0x7fc493504540</title>
<polygon fill="#c1ffc1" stroke="black" points="196.26,-372.44 238.92,-360 281.58,-372.44 281.54,-392.56 196.3,-392.56 196.26,-372.44"/>
<text text-anchor="middle" x="238.92" y="-374.3" font-family="Times,serif" font-size="14.00">Linker</text>
</g>
<!-- node0x7fc493504800&#45;&gt;node0x7fc493504540 -->
<g id="edge3" class="edge">
<title>node0x7fc493504800&#45;&gt;node0x7fc493504540</title>
<path fill="none" stroke="black" d="M187.46,-432.76C196.7,-423.11 208.53,-410.75 218.52,-400.31"/>
<polygon fill="black" stroke="black" points="221.34,-402.43 225.72,-392.79 216.28,-397.59 221.34,-402.43"/>
</g>
<!-- node0x7fc4935044c0 -->
<g id="node5" class="node">
<title>node0x7fc4935044c0</title>
<polygon fill="#c1ffc1" stroke="black" points="1.56,-300.44 139.92,-288 278.28,-300.44 278.15,-320.56 1.69,-320.56 1.56,-300.44"/>
<text text-anchor="middle" x="139.92" y="-302.3" font-family="Times,serif" font-size="14.00">VarDef&lt;Identifier&lt;coffee&gt;&gt;</text>
</g>
<!-- node0x7fc493504540&#45;&gt;node0x7fc4935044c0 -->
<g id="edge4" class="edge">
<title>node0x7fc493504540&#45;&gt;node0x7fc4935044c0</title>
<path fill="none" stroke="black" d="M221.68,-364.81C206.86,-354.33 185.23,-339.03 167.93,-326.8"/>
<polygon fill="black" stroke="black" points="169.53,-323.65 159.34,-320.73 165.49,-329.36 169.53,-323.65"/>
</g>
<!-- node0x7fc493504640 -->
<g id="node7" class="node">
<title>node0x7fc493504640</title>
<polygon fill="#c1ffc1" stroke="black" points="296.26,-300.44 338.92,-288 381.58,-300.44 381.54,-320.56 296.3,-320.56 296.26,-300.44"/>
<text text-anchor="middle" x="338.92" y="-302.3" font-family="Times,serif" font-size="14.00">Linker</text>
</g>
<!-- node0x7fc493504540&#45;&gt;node0x7fc493504640 -->
<g id="edge6" class="edge">
<title>node0x7fc493504540&#45;&gt;node0x7fc493504640</title>
<path fill="none" stroke="black" d="M256.34,-364.81C271.44,-354.24 293.56,-338.75 311.11,-326.47"/>
<polygon fill="black" stroke="black" points="313.12,-329.33 319.31,-320.73 309.11,-323.6 313.12,-329.33"/>
</g>
<!-- node0x7fc493504500 -->
<g id="node6" class="node">
<title>node0x7fc493504500</title>
<ellipse fill="pink" stroke="black" cx="139.92" cy="-234" rx="63.89" ry="18"/>
<text text-anchor="middle" x="139.92" y="-230.3" font-family="Times,serif" font-size="14.00">Number&lt;123&gt;</text>
</g>
<!-- node0x7fc4935044c0&#45;&gt;node0x7fc493504500 -->
<g id="edge5" class="edge">
<title>node0x7fc4935044c0&#45;&gt;node0x7fc493504500</title>
<path fill="none" stroke="black" d="M139.92,-287.7C139.92,-279.98 139.92,-270.71 139.92,-262.11"/>
<polygon fill="black" stroke="black" points="143.42,-262.1 139.92,-252.1 136.42,-262.1 143.42,-262.1"/>
</g>
<!-- node0x7fc4935045c0 -->
<g id="node8" class="node">
<title>node0x7fc4935045c0</title>
<polygon fill="#c1ffc1" stroke="black" points="223.48,-228.44 335.92,-216 448.37,-228.44 448.26,-248.56 223.58,-248.56 223.48,-228.44"/>
<text text-anchor="middle" x="335.92" y="-230.3" font-family="Times,serif" font-size="14.00">AssignExpr&lt;AdAssg&gt;</text>
</g>
<!-- node0x7fc493504640&#45;&gt;node0x7fc4935045c0 -->
<g id="edge7" class="edge">
<title>node0x7fc493504640&#45;&gt;node0x7fc4935045c0</title>
<path fill="none" stroke="black" d="M338.2,-288.05C337.82,-279.35 337.36,-268.6 336.95,-259.06"/>
<polygon fill="black" stroke="black" points="340.45,-258.81 336.52,-248.97 333.45,-259.11 340.45,-258.81"/>
</g>
<!-- node0x7fc493504700 -->
<g id="node11" class="node">
<title>node0x7fc493504700</title>
<polygon fill="#c1ffc1" stroke="black" points="466.26,-228.44 508.92,-216 551.58,-228.44 551.54,-248.56 466.3,-248.56 466.26,-228.44"/>
<text text-anchor="middle" x="508.92" y="-230.3" font-family="Times,serif" font-size="14.00">Linker</text>
</g>
<!-- node0x7fc493504640&#45;&gt;node0x7fc493504700 -->
<g id="edge10" class="edge">
<title>node0x7fc493504640&#45;&gt;node0x7fc493504700</title>
<path fill="none" stroke="black" d="M363.28,-294.97C390.19,-283.89 434.01,-265.85 466.57,-252.44"/>
<polygon fill="black" stroke="black" points="467.94,-255.66 475.85,-248.62 465.27,-249.19 467.94,-255.66"/>
</g>
<!-- node0x7fc493504580 -->
<g id="node9" class="node">
<title>node0x7fc493504580</title>
<ellipse fill="pink" stroke="black" cx="217.92" cy="-162" rx="55.49" ry="18"/>
<text text-anchor="middle" x="217.92" y="-158.3" font-family="Times,serif" font-size="14.00">Number&lt;1&gt;</text>
</g>
<!-- node0x7fc4935045c0&#45;&gt;node0x7fc493504580 -->
<g id="edge8" class="edge">
<title>node0x7fc4935045c0&#45;&gt;node0x7fc493504580</title>
<path fill="none" stroke="black" d="M311.76,-218.67C294.53,-208.44 271.12,-194.56 252,-183.22"/>
<polygon fill="black" stroke="black" points="253.66,-180.13 243.28,-178.04 250.09,-186.15 253.66,-180.13"/>
</g>
<!-- node0x7fc493504600 -->
<g id="node10" class="node">
<title>node0x7fc493504600</title>
<ellipse fill="aquamarine" stroke="black" cx="343.92" cy="-162" rx="52.79" ry="18"/>
<text text-anchor="middle" x="343.92" y="-158.3" font-family="Times,serif" font-size="14.00">ID&lt;coffee&gt;</text>
</g>
<!-- node0x7fc4935045c0&#45;&gt;node0x7fc493504600 -->
<g id="edge9" class="edge">
<title>node0x7fc4935045c0&#45;&gt;node0x7fc493504600</title>
<path fill="none" stroke="black" d="M337.86,-216.05C338.74,-208.35 339.8,-199.03 340.79,-190.36"/>
<polygon fill="black" stroke="black" points="344.29,-190.61 341.95,-180.28 337.33,-189.81 344.29,-190.61"/>
</g>
<!-- node0x7fc4935046c0 -->
<g id="node12" class="node">
<title>node0x7fc4935046c0</title>
<polygon fill="#c1ffc1" stroke="black" points="429.42,-156.44 500.92,-144 572.42,-156.44 572.36,-176.56 429.49,-176.56 429.42,-156.44"/>
<text text-anchor="middle" x="500.92" y="-158.3" font-family="Times,serif" font-size="14.00">Print&lt;None&gt;</text>
</g>
<!-- node0x7fc493504700&#45;&gt;node0x7fc4935046c0 -->
<g id="edge11" class="edge">
<title>node0x7fc493504700&#45;&gt;node0x7fc4935046c0</title>
<path fill="none" stroke="black" d="M507.03,-216.41C506.02,-207.6 504.76,-196.61 503.65,-186.89"/>
<polygon fill="black" stroke="black" points="507.09,-186.19 502.48,-176.65 500.14,-186.98 507.09,-186.19"/>
</g>
<!-- node0x7fc4935047c0 -->
<g id="node14" class="node">
<title>node0x7fc4935047c0</title>
<polygon fill="#c1ffc1" stroke="black" points="609.26,-156.44 651.92,-144 694.58,-156.44 694.54,-176.56 609.3,-176.56 609.26,-156.44"/>
<text text-anchor="middle" x="651.92" y="-158.3" font-family="Times,serif" font-size="14.00">Linker</text>
</g>
<!-- node0x7fc493504700&#45;&gt;node0x7fc4935047c0 -->
<g id="edge13" class="edge">
<title>node0x7fc493504700&#45;&gt;node0x7fc4935047c0</title>
<path fill="none" stroke="black" d="M530.95,-222.22C553.31,-211.27 588.32,-194.13 614.94,-181.1"/>
<polygon fill="black" stroke="black" points="616.52,-184.22 623.97,-176.68 613.45,-177.94 616.52,-184.22"/>
</g>
<!-- node0x7fc493504680 -->
<g id="node13" class="node">
<title>node0x7fc493504680</title>
<ellipse fill="aquamarine" stroke="black" cx="490.92" cy="-90" rx="52.79" ry="18"/>
<text text-anchor="middle" x="490.92" y="-86.3" font-family="Times,serif" font-size="14.00">ID&lt;coffee&gt;</text>
</g>
<!-- node0x7fc4935046c0&#45;&gt;node0x7fc493504680 -->
<g id="edge12" class="edge">
<title>node0x7fc4935046c0&#45;&gt;node0x7fc493504680</title>
<path fill="none" stroke="black" d="M498.55,-144.41C497.45,-136.71 496.11,-127.34 494.87,-118.62"/>
<polygon fill="black" stroke="black" points="498.29,-117.85 493.41,-108.45 491.36,-118.84 498.29,-117.85"/>
</g>
<!-- node0x7fc493504780 -->
<g id="node15" class="node">
<title>node0x7fc493504780</title>
<polygon fill="#c1ffc1" stroke="black" points="561.58,-84.44 661.92,-72 762.27,-84.44 762.17,-104.56 561.67,-104.56 561.58,-84.44"/>
<text text-anchor="middle" x="661.92" y="-86.3" font-family="Times,serif" font-size="14.00">ReturnStmt&lt;None&gt;</text>
</g>
<!-- node0x7fc4935047c0&#45;&gt;node0x7fc493504780 -->
<g id="edge14" class="edge">
<title>node0x7fc4935047c0&#45;&gt;node0x7fc493504780</title>
<path fill="none" stroke="black" d="M654.29,-144.41C655.56,-135.5 657.15,-124.37 658.55,-114.58"/>
<polygon fill="black" stroke="black" points="662.02,-115.04 659.97,-104.65 655.09,-114.05 662.02,-115.04"/>
</g>
<!-- node0x7fc493504740 -->
<g id="node16" class="node">
<title>node0x7fc493504740</title>
<ellipse fill="aquamarine" stroke="black" cx="661.92" cy="-18" rx="52.79" ry="18"/>
<text text-anchor="middle" x="661.92" y="-14.3" font-family="Times,serif" font-size="14.00">ID&lt;coffee&gt;</text>
</g>
<!-- node0x7fc493504780&#45;&gt;node0x7fc493504740 -->
<g id="edge15" class="edge">
<title>node0x7fc493504780&#45;&gt;node0x7fc493504740</title>
<path fill="none" stroke="black" d="M661.92,-71.7C661.92,-63.98 661.92,-54.71 661.92,-46.11"/>
<polygon fill="black" stroke="black" points="665.42,-46.1 661.92,-36.1 658.42,-46.1 665.42,-46.1"/>
</g>
</g>
</svg>
