<?xml version="1.0" encoding="UTF-8" standalone="no"?>
<!DOCTYPE svg PUBLIC "-//W3C//DTD SVG 1.1//EN"
 "http://www.w3.org/Graphics/SVG/1.1/DTD/svg11.dtd">
<!-- Generated by graphviz version 2.44.1 (20200629.0846)
 -->
<!-- Title: structure Pages: 1 -->
<svg width="1167pt" height="1175pt"
 viewBox="0.00 0.00 1166.58 1175.00" xmlns="http://www.w3.org/2000/svg" xmlns:xlink="http://www.w3.org/1999/xlink">
<g id="graph0" class="graph" transform="scale(1 1) rotate(0) translate(4 1171)">
<title>structure</title>
<polygon fill="white" stroke="transparent" points="-4,4 -4,-1171 1162.58,-1171 1162.58,4 -4,4"/>
<!-- node0x7ff75c009248 -->
<g id="node1" class="node">
<title>node0x7ff75c009248</title>
<polygon fill="#c1ffc1" stroke="black" points="250.48,-1143.44 293.14,-1131 335.79,-1143.44 335.75,-1163.56 250.52,-1163.56 250.48,-1143.44"/>
<text text-anchor="middle" x="293.14" y="-1145.3" font-family="Times,serif" font-size="14.00">Linker</text>
</g>
<!-- node0x7ff75c009290 -->
<g id="node2" class="node">
<title>node0x7ff75c009290</title>
<polygon fill="#c1ffc1" stroke="black" points="-0.14,-1056.44 175.14,-1044 350.41,-1056.44 350.24,-1076.56 0.03,-1076.56 -0.14,-1056.44"/>
<text text-anchor="middle" x="175.14" y="-1058.3" font-family="Times,serif" font-size="14.00">FuncDecl&lt;FDecl&lt;giveYouUp&gt;&gt;:0:0</text>
</g>
<!-- node0x7ff75c009248&#45;&gt;node0x7ff75c009290 -->
<g id="edge1" class="edge">
<title>node0x7ff75c009248&#45;&gt;node0x7ff75c009290</title>
<path fill="none" stroke="green" d="M276.23,-1135.82C257.02,-1121.98 225.38,-1099.19 202.61,-1082.79"/>
<polygon fill="green" stroke="green" points="204.52,-1079.85 194.36,-1076.85 200.43,-1085.53 204.52,-1079.85"/>
<text text-anchor="middle" x="246.64" y="-1101.8" font-family="Times,serif" font-size="14.00">L</text>
</g>
<!-- node0x7ff75c0092d8 -->
<g id="node8" class="node">
<title>node0x7ff75c0092d8</title>
<polygon fill="#c1ffc1" stroke="black" points="368.48,-1056.44 411.14,-1044 453.79,-1056.44 453.75,-1076.56 368.52,-1076.56 368.48,-1056.44"/>
<text text-anchor="middle" x="411.14" y="-1058.3" font-family="Times,serif" font-size="14.00">Linker</text>
</g>
<!-- node0x7ff75c009248&#45;&gt;node0x7ff75c0092d8 -->
<g id="edge7" class="edge">
<title>node0x7ff75c009248&#45;&gt;node0x7ff75c0092d8</title>
<path fill="none" stroke="red" d="M310.04,-1135.82C329.25,-1121.98 360.89,-1099.19 383.66,-1082.79"/>
<polygon fill="red" stroke="red" points="385.84,-1085.53 391.91,-1076.85 381.75,-1079.85 385.84,-1085.53"/>
<text text-anchor="middle" x="365.14" y="-1101.8" font-family="Times,serif" font-size="14.00">R</text>
</g>
<!-- node0x7ff75c009320 -->
<g id="node3" class="node">
<title>node0x7ff75c009320</title>
<polygon fill="yellow" stroke="black" points="115.74,-969.44 175.14,-957 234.53,-969.44 234.48,-989.56 115.79,-989.56 115.74,-969.44"/>
<text text-anchor="middle" x="175.14" y="-971.3" font-family="Times,serif" font-size="14.00">Linker(ns)</text>
</g>
<!-- node0x7ff75c009290&#45;&gt;node0x7ff75c009320 -->
<g id="edge2" class="edge">
<title>node0x7ff75c009290&#45;&gt;node0x7ff75c009320</title>
<path fill="none" stroke="red" d="M175.14,-1043.8C175.14,-1031.24 175.14,-1014.06 175.14,-1000.13"/>
<polygon fill="red" stroke="red" points="178.64,-999.81 175.14,-989.81 171.64,-999.81 178.64,-999.81"/>
<text text-anchor="middle" x="180.14" y="-1014.8" font-family="Times,serif" font-size="14.00">R</text>
</g>
<!-- node0x7ff75c0093b0 -->
<g id="node4" class="node">
<title>node0x7ff75c0093b0</title>
<polygon fill="#c1ffc1" stroke="black" points="86.89,-882.44 175.14,-870 263.38,-882.44 263.3,-902.56 86.98,-902.56 86.89,-882.44"/>
<text text-anchor="middle" x="175.14" y="-884.3" font-family="Times,serif" font-size="14.00">Print&lt;None&gt;:0:0</text>
</g>
<!-- node0x7ff75c009320&#45;&gt;node0x7ff75c0093b0 -->
<g id="edge3" class="edge">
<title>node0x7ff75c009320&#45;&gt;node0x7ff75c0093b0</title>
<path fill="none" stroke="green" d="M175.14,-956.8C175.14,-944.24 175.14,-927.06 175.14,-913.13"/>
<polygon fill="green" stroke="green" points="178.64,-912.81 175.14,-902.81 171.64,-912.81 178.64,-912.81"/>
<text text-anchor="middle" x="179.64" y="-927.8" font-family="Times,serif" font-size="14.00">L</text>
</g>
<!-- node0x7ff75c009488 -->
<g id="node5" class="node">
<title>node0x7ff75c009488</title>
<polygon fill="#c1ffc1" stroke="black" points="38.49,-795.44 175.14,-783 311.78,-795.44 311.65,-815.56 38.62,-815.56 38.49,-795.44"/>
<text text-anchor="middle" x="175.14" y="-797.3" font-family="Times,serif" font-size="14.00">FuncCall&lt;None&lt;fact&gt;&gt;:0:0</text>
</g>
<!-- node0x7ff75c0093b0&#45;&gt;node0x7ff75c009488 -->
<g id="edge4" class="edge">
<title>node0x7ff75c0093b0&#45;&gt;node0x7ff75c009488</title>
<path fill="none" stroke="green" d="M175.14,-869.8C175.14,-857.24 175.14,-840.06 175.14,-826.13"/>
<polygon fill="green" stroke="green" points="178.64,-825.81 175.14,-815.81 171.64,-825.81 178.64,-825.81"/>
<text text-anchor="middle" x="179.64" y="-840.8" font-family="Times,serif" font-size="14.00">L</text>
</g>
<!-- node0x7ff75c0095a8 -->
<g id="node6" class="node">
<title>node0x7ff75c0095a8</title>
<polygon fill="#c1ffc1" stroke="black" points="132.48,-708.44 175.14,-696 217.79,-708.44 217.75,-728.56 132.52,-728.56 132.48,-708.44"/>
<text text-anchor="middle" x="175.14" y="-710.3" font-family="Times,serif" font-size="14.00">Linker</text>
</g>
<!-- node0x7ff75c009488&#45;&gt;node0x7ff75c0095a8 -->
<g id="edge5" class="edge">
<title>node0x7ff75c009488&#45;&gt;node0x7ff75c0095a8</title>
<path fill="none" stroke="green" d="M175.14,-782.8C175.14,-770.24 175.14,-753.06 175.14,-739.13"/>
<polygon fill="green" stroke="green" points="178.64,-738.81 175.14,-728.81 171.64,-738.81 178.64,-738.81"/>
<text text-anchor="middle" x="179.64" y="-753.8" font-family="Times,serif" font-size="14.00">L</text>
</g>
<!-- node0x7ff75c009680 -->
<g id="node7" class="node">
<title>node0x7ff75c009680</title>
<polygon fill="#c1ffc1" stroke="black" points="85.18,-621.44 175.14,-609 265.09,-621.44 265.01,-641.56 85.26,-641.56 85.18,-621.44"/>
<text text-anchor="middle" x="175.14" y="-623.3" font-family="Times,serif" font-size="14.00">Input&lt;None&gt;:0:0</text>
</g>
<!-- node0x7ff75c0095a8&#45;&gt;node0x7ff75c009680 -->
<g id="edge6" class="edge">
<title>node0x7ff75c0095a8&#45;&gt;node0x7ff75c009680</title>
<path fill="none" stroke="green" d="M175.14,-695.8C175.14,-683.24 175.14,-666.06 175.14,-652.13"/>
<polygon fill="green" stroke="green" points="178.64,-651.81 175.14,-641.81 171.64,-651.81 178.64,-651.81"/>
<text text-anchor="middle" x="179.64" y="-666.8" font-family="Times,serif" font-size="14.00">L</text>
</g>
<!-- node0x7ff75c009368 -->
<g id="node9" class="node">
<title>node0x7ff75c009368</title>
<polygon fill="#c1ffc1" stroke="black" points="269.85,-969.44 411.14,-957 552.42,-969.44 552.29,-989.56 269.98,-989.56 269.85,-969.44"/>
<text text-anchor="middle" x="411.14" y="-971.3" font-family="Times,serif" font-size="14.00">FuncDecl&lt;FDecl&lt;fact&gt;&gt;:0:0</text>
</g>
<!-- node0x7ff75c0092d8&#45;&gt;node0x7ff75c009368 -->
<g id="edge8" class="edge">
<title>node0x7ff75c0092d8&#45;&gt;node0x7ff75c009368</title>
<path fill="none" stroke="green" d="M411.14,-1043.8C411.14,-1031.24 411.14,-1014.06 411.14,-1000.13"/>
<polygon fill="green" stroke="green" points="414.64,-999.81 411.14,-989.81 407.64,-999.81 414.64,-999.81"/>
<text text-anchor="middle" x="415.64" y="-1014.8" font-family="Times,serif" font-size="14.00">L</text>
</g>
<!-- node0x7ff75c0093f8 -->
<g id="node10" class="node">
<title>node0x7ff75c0093f8</title>
<polygon fill="#c1ffc1" stroke="black" points="362.48,-882.44 405.14,-870 447.79,-882.44 447.75,-902.56 362.52,-902.56 362.48,-882.44"/>
<text text-anchor="middle" x="405.14" y="-884.3" font-family="Times,serif" font-size="14.00">Linker</text>
</g>
<!-- node0x7ff75c009368&#45;&gt;node0x7ff75c0093f8 -->
<g id="edge9" class="edge">
<title>node0x7ff75c009368&#45;&gt;node0x7ff75c0093f8</title>
<path fill="none" stroke="green" d="M409.92,-956.8C409.03,-944.24 407.82,-927.06 406.84,-913.13"/>
<polygon fill="green" stroke="green" points="410.31,-912.54 406.11,-902.81 403.32,-913.03 410.31,-912.54"/>
<text text-anchor="middle" x="413.64" y="-927.8" font-family="Times,serif" font-size="14.00">L</text>
</g>
<!-- node0x7ff75c009440 -->
<g id="node12" class="node">
<title>node0x7ff75c009440</title>
<polygon fill="yellow" stroke="black" points="536.74,-882.44 596.14,-870 655.53,-882.44 655.48,-902.56 536.79,-902.56 536.74,-882.44"/>
<text text-anchor="middle" x="596.14" y="-884.3" font-family="Times,serif" font-size="14.00">Linker(ns)</text>
</g>
<!-- node0x7ff75c009368&#45;&gt;node0x7ff75c009440 -->
<g id="edge11" class="edge">
<title>node0x7ff75c009368&#45;&gt;node0x7ff75c009440</title>
<path fill="none" stroke="red" d="M442.52,-959.58C474.18,-945.03 523.13,-922.54 557.24,-906.87"/>
<polygon fill="red" stroke="red" points="558.81,-910 566.44,-902.64 555.89,-903.64 558.81,-910"/>
<text text-anchor="middle" x="520.14" y="-927.8" font-family="Times,serif" font-size="14.00">R</text>
</g>
<!-- node0x7ff75c0094d0 -->
<g id="node11" class="node">
<title>node0x7ff75c0094d0</title>
<ellipse fill="aquamarine" stroke="black" cx="395.14" cy="-801" rx="60.39" ry="18"/>
<text text-anchor="middle" x="395.14" y="-797.3" font-family="Times,serif" font-size="14.00">ID&lt;num&gt;:0:0</text>
</g>
<!-- node0x7ff75c0093f8&#45;&gt;node0x7ff75c0094d0 -->
<g id="edge10" class="edge">
<title>node0x7ff75c0093f8&#45;&gt;node0x7ff75c0094d0</title>
<path fill="none" stroke="green" d="M403.16,-870.21C401.79,-858.52 399.92,-842.69 398.34,-829.22"/>
<polygon fill="green" stroke="green" points="401.79,-828.57 397.14,-819.05 394.83,-829.39 401.79,-828.57"/>
<text text-anchor="middle" x="405.64" y="-840.8" font-family="Times,serif" font-size="14.00">L</text>
</g>
<!-- node0x7ff75c009518 -->
<g id="node13" class="node">
<title>node0x7ff75c009518</title>
<polygon fill="#c1ffc1" stroke="black" points="473.91,-795.44 596.14,-783 718.36,-795.44 718.25,-815.56 474.02,-815.56 473.91,-795.44"/>
<text text-anchor="middle" x="596.14" y="-797.3" font-family="Times,serif" font-size="14.00">VarDef&lt;VDecl&lt;x&gt;&gt;:0:0</text>
</g>
<!-- node0x7ff75c009440&#45;&gt;node0x7ff75c009518 -->
<g id="edge12" class="edge">
<title>node0x7ff75c009440&#45;&gt;node0x7ff75c009518</title>
<path fill="none" stroke="green" d="M596.14,-869.8C596.14,-857.24 596.14,-840.06 596.14,-826.13"/>
<polygon fill="green" stroke="green" points="599.64,-825.81 596.14,-815.81 592.64,-825.81 599.64,-825.81"/>
<text text-anchor="middle" x="600.64" y="-840.8" font-family="Times,serif" font-size="14.00">L</text>
</g>
<!-- node0x7ff75c009560 -->
<g id="node15" class="node">
<title>node0x7ff75c009560</title>
<polygon fill="#c1ffc1" stroke="black" points="736.48,-795.44 779.14,-783 821.79,-795.44 821.75,-815.56 736.52,-815.56 736.48,-795.44"/>
<text text-anchor="middle" x="779.14" y="-797.3" font-family="Times,serif" font-size="14.00">Linker</text>
</g>
<!-- node0x7ff75c009440&#45;&gt;node0x7ff75c009560 -->
<g id="edge14" class="edge">
<title>node0x7ff75c009440&#45;&gt;node0x7ff75c009560</title>
<path fill="none" stroke="red" d="M621.58,-875.18C652.41,-860.86 704.67,-836.59 740.49,-819.95"/>
<polygon fill="red" stroke="red" points="742.07,-823.07 749.67,-815.69 739.13,-816.72 742.07,-823.07"/>
<text text-anchor="middle" x="704.14" y="-840.8" font-family="Times,serif" font-size="14.00">R</text>
</g>
<!-- node0x7ff75c0095f0 -->
<g id="node14" class="node">
<title>node0x7ff75c0095f0</title>
<ellipse fill="pink" stroke="black" cx="596.14" cy="-714" rx="68.79" ry="18"/>
<text text-anchor="middle" x="596.14" y="-710.3" font-family="Times,serif" font-size="14.00">Number&lt;0&gt;:0:0</text>
</g>
<!-- node0x7ff75c009518&#45;&gt;node0x7ff75c0095f0 -->
<g id="edge13" class="edge">
<title>node0x7ff75c009518&#45;&gt;node0x7ff75c0095f0</title>
<path fill="none" stroke="green" d="M596.14,-782.8C596.14,-771.16 596.14,-755.55 596.14,-742.24"/>
<polygon fill="green" stroke="green" points="599.64,-742.18 596.14,-732.18 592.64,-742.18 599.64,-742.18"/>
<text text-anchor="middle" x="600.64" y="-753.8" font-family="Times,serif" font-size="14.00">L</text>
</g>
<!-- node0x7ff75c009638 -->
<g id="node16" class="node">
<title>node0x7ff75c009638</title>
<polygon fill="#c1ffc1" stroke="black" points="683.43,-708.44 779.14,-696 874.84,-708.44 874.75,-728.56 683.52,-728.56 683.43,-708.44"/>
<text text-anchor="middle" x="779.14" y="-710.3" font-family="Times,serif" font-size="14.00">IfStmt&lt;None&gt;:0:0</text>
</g>
<!-- node0x7ff75c009560&#45;&gt;node0x7ff75c009638 -->
<g id="edge15" class="edge">
<title>node0x7ff75c009560&#45;&gt;node0x7ff75c009638</title>
<path fill="none" stroke="green" d="M779.14,-782.8C779.14,-770.24 779.14,-753.06 779.14,-739.13"/>
<polygon fill="green" stroke="green" points="782.64,-738.81 779.14,-728.81 775.64,-738.81 782.64,-738.81"/>
<text text-anchor="middle" x="783.64" y="-753.8" font-family="Times,serif" font-size="14.00">L</text>
</g>
<!-- node0x7ff75c0096c8 -->
<g id="node17" class="node">
<title>node0x7ff75c0096c8</title>
<polygon fill="#c1ffc1" stroke="black" points="586.62,-621.44 707.14,-609 827.65,-621.44 827.53,-641.56 586.74,-641.56 586.62,-621.44"/>
<text text-anchor="middle" x="707.14" y="-623.3" font-family="Times,serif" font-size="14.00">CmpOperator&lt;Leq&gt;:0:0</text>
</g>
<!-- node0x7ff75c009638&#45;&gt;node0x7ff75c0096c8 -->
<g id="edge16" class="edge">
<title>node0x7ff75c009638&#45;&gt;node0x7ff75c0096c8</title>
<path fill="none" stroke="green" d="M765.93,-697.41C754.56,-683.98 738.03,-664.47 725.39,-649.55"/>
<polygon fill="green" stroke="green" points="727.96,-647.17 718.83,-641.8 722.62,-651.7 727.96,-647.17"/>
<text text-anchor="middle" x="752.64" y="-666.8" font-family="Times,serif" font-size="14.00">L</text>
</g>
<!-- node0x7ff75c009710 -->
<g id="node20" class="node">
<title>node0x7ff75c009710</title>
<polygon fill="#c1ffc1" stroke="black" points="845.48,-621.44 888.14,-609 930.79,-621.44 930.75,-641.56 845.52,-641.56 845.48,-621.44"/>
<text text-anchor="middle" x="888.14" y="-623.3" font-family="Times,serif" font-size="14.00">Linker</text>
</g>
<!-- node0x7ff75c009638&#45;&gt;node0x7ff75c009710 -->
<g id="edge19" class="edge">
<title>node0x7ff75c009638&#45;&gt;node0x7ff75c009710</title>
<path fill="none" stroke="red" d="M798.12,-698.19C815.95,-684.29 842.75,-663.39 862.48,-648.01"/>
<polygon fill="red" stroke="red" points="864.71,-650.7 870.45,-641.79 860.41,-645.18 864.71,-650.7"/>
<text text-anchor="middle" x="846.14" y="-666.8" font-family="Times,serif" font-size="14.00">R</text>
</g>
<!-- node0x7ff75c009758 -->
<g id="node18" class="node">
<title>node0x7ff75c009758</title>
<ellipse fill="aquamarine" stroke="black" cx="561.14" cy="-540" rx="60.39" ry="18"/>
<text text-anchor="middle" x="561.14" y="-536.3" font-family="Times,serif" font-size="14.00">ID&lt;num&gt;:0:0</text>
</g>
<!-- node0x7ff75c0096c8&#45;&gt;node0x7ff75c009758 -->
<g id="edge17" class="edge">
<title>node0x7ff75c0096c8&#45;&gt;node0x7ff75c009758</title>
<path fill="none" stroke="green" d="M682.04,-611.39C658.41,-597.63 622.79,-576.89 596.33,-561.49"/>
<polygon fill="green" stroke="green" points="597.79,-558.29 587.38,-556.28 594.26,-564.34 597.79,-558.29"/>
<text text-anchor="middle" x="647.64" y="-579.8" font-family="Times,serif" font-size="14.00">L</text>
</g>
<!-- node0x7ff75c0097a0 -->
<g id="node19" class="node">
<title>node0x7ff75c0097a0</title>
<ellipse fill="pink" stroke="black" cx="708.14" cy="-540" rx="68.79" ry="18"/>
<text text-anchor="middle" x="708.14" y="-536.3" font-family="Times,serif" font-size="14.00">Number&lt;1&gt;:0:0</text>
</g>
<!-- node0x7ff75c0096c8&#45;&gt;node0x7ff75c0097a0 -->
<g id="edge18" class="edge">
<title>node0x7ff75c0096c8&#45;&gt;node0x7ff75c0097a0</title>
<path fill="none" stroke="red" d="M707.34,-608.8C707.47,-597.16 707.66,-581.55 707.81,-568.24"/>
<polygon fill="red" stroke="red" points="711.32,-568.22 707.93,-558.18 704.32,-568.13 711.32,-568.22"/>
<text text-anchor="middle" x="713.14" y="-579.8" font-family="Times,serif" font-size="14.00">R</text>
</g>
<!-- node0x7ff75c0097e8 -->
<g id="node21" class="node">
<title>node0x7ff75c0097e8</title>
<polygon fill="yellow" stroke="black" points="795.74,-534.44 855.14,-522 914.53,-534.44 914.48,-554.56 795.79,-554.56 795.74,-534.44"/>
<text text-anchor="middle" x="855.14" y="-536.3" font-family="Times,serif" font-size="14.00">Linker(ns)</text>
</g>
<!-- node0x7ff75c009710&#45;&gt;node0x7ff75c0097e8 -->
<g id="edge20" class="edge">
<title>node0x7ff75c009710&#45;&gt;node0x7ff75c0097e8</title>
<path fill="none" stroke="green" d="M882.08,-610.41C877.06,-597.48 869.85,-578.91 864.15,-564.23"/>
<polygon fill="green" stroke="green" points="867.38,-562.86 860.49,-554.8 860.85,-565.39 867.38,-562.86"/>
<text text-anchor="middle" x="878.64" y="-579.8" font-family="Times,serif" font-size="14.00">L</text>
</g>
<!-- node0x7ff75c009830 -->
<g id="node24" class="node">
<title>node0x7ff75c009830</title>
<polygon fill="yellow" stroke="black" points="961.74,-534.44 1021.14,-522 1080.53,-534.44 1080.48,-554.56 961.79,-554.56 961.74,-534.44"/>
<text text-anchor="middle" x="1021.14" y="-536.3" font-family="Times,serif" font-size="14.00">Linker(ns)</text>
</g>
<!-- node0x7ff75c009710&#45;&gt;node0x7ff75c009830 -->
<g id="edge23" class="edge">
<title>node0x7ff75c009710&#45;&gt;node0x7ff75c009830</title>
<path fill="none" stroke="red" d="M906.63,-614.18C928.46,-600.23 965.09,-576.82 991.03,-560.24"/>
<polygon fill="red" stroke="red" points="993.18,-563.02 999.72,-554.69 989.41,-557.12 993.18,-563.02"/>
<text text-anchor="middle" x="968.14" y="-579.8" font-family="Times,serif" font-size="14.00">R</text>
</g>
<!-- node0x7ff75c009878 -->
<g id="node22" class="node">
<title>node0x7ff75c009878</title>
<polygon fill="#c1ffc1" stroke="black" points="666.05,-447.44 783.14,-435 900.22,-447.44 900.11,-467.56 666.16,-467.56 666.05,-447.44"/>
<text text-anchor="middle" x="783.14" y="-449.3" font-family="Times,serif" font-size="14.00">ReturnStmt&lt;None&gt;:0:0</text>
</g>
<!-- node0x7ff75c0097e8&#45;&gt;node0x7ff75c009878 -->
<g id="edge21" class="edge">
<title>node0x7ff75c0097e8&#45;&gt;node0x7ff75c009878</title>
<path fill="none" stroke="green" d="M842.59,-524.19C831.24,-510.79 814.37,-490.88 801.5,-475.68"/>
<polygon fill="green" stroke="green" points="803.95,-473.16 794.82,-467.79 798.61,-477.69 803.95,-473.16"/>
<text text-anchor="middle" x="828.64" y="-492.8" font-family="Times,serif" font-size="14.00">L</text>
</g>
<!-- node0x7ff75c009908 -->
<g id="node23" class="node">
<title>node0x7ff75c009908</title>
<ellipse fill="pink" stroke="black" cx="783.14" cy="-366" rx="68.79" ry="18"/>
<text text-anchor="middle" x="783.14" y="-362.3" font-family="Times,serif" font-size="14.00">Number&lt;1&gt;:0:0</text>
</g>
<!-- node0x7ff75c009878&#45;&gt;node0x7ff75c009908 -->
<g id="edge22" class="edge">
<title>node0x7ff75c009878&#45;&gt;node0x7ff75c009908</title>
<path fill="none" stroke="green" d="M783.14,-434.8C783.14,-423.16 783.14,-407.55 783.14,-394.24"/>
<polygon fill="green" stroke="green" points="786.64,-394.18 783.14,-384.18 779.64,-394.18 786.64,-394.18"/>
<text text-anchor="middle" x="787.64" y="-405.8" font-family="Times,serif" font-size="14.00">L</text>
</g>
<!-- node0x7ff75c0098c0 -->
<g id="node25" class="node">
<title>node0x7ff75c0098c0</title>
<polygon fill="#c1ffc1" stroke="black" points="919.05,-447.44 1036.14,-435 1153.22,-447.44 1153.11,-467.56 919.16,-467.56 919.05,-447.44"/>
<text text-anchor="middle" x="1036.14" y="-449.3" font-family="Times,serif" font-size="14.00">ReturnStmt&lt;None&gt;:0:0</text>
</g>
<!-- node0x7ff75c009830&#45;&gt;node0x7ff75c0098c0 -->
<g id="edge24" class="edge">
<title>node0x7ff75c009830&#45;&gt;node0x7ff75c0098c0</title>
<path fill="none" stroke="green" d="M1024.1,-522.21C1026.34,-509.48 1029.46,-491.84 1031.96,-477.68"/>
<polygon fill="green" stroke="green" points="1035.43,-478.13 1033.72,-467.68 1028.54,-476.92 1035.43,-478.13"/>
<text text-anchor="middle" x="1034.64" y="-492.8" font-family="Times,serif" font-size="14.00">L</text>
</g>
<!-- node0x7ff75c009950 -->
<g id="node26" class="node">
<title>node0x7ff75c009950</title>
<polygon fill="#c1ffc1" stroke="black" points="920.26,-360.44 1036.14,-348 1152.01,-360.44 1151.9,-380.56 920.37,-380.56 920.26,-360.44"/>
<text text-anchor="middle" x="1036.14" y="-362.3" font-family="Times,serif" font-size="14.00">MaOperator&lt;Mul&gt;:0:0</text>
</g>
<!-- node0x7ff75c0098c0&#45;&gt;node0x7ff75c009950 -->
<g id="edge25" class="edge">
<title>node0x7ff75c0098c0&#45;&gt;node0x7ff75c009950</title>
<path fill="none" stroke="green" d="M1036.14,-434.8C1036.14,-422.24 1036.14,-405.06 1036.14,-391.13"/>
<polygon fill="green" stroke="green" points="1039.64,-390.81 1036.14,-380.81 1032.64,-390.81 1039.64,-390.81"/>
<text text-anchor="middle" x="1040.64" y="-405.8" font-family="Times,serif" font-size="14.00">L</text>
</g>
<!-- node0x7ff75c009998 -->
<g id="node27" class="node">
<title>node0x7ff75c009998</title>
<polygon fill="#c1ffc1" stroke="black" points="746.49,-273.44 883.14,-261 1019.78,-273.44 1019.65,-293.56 746.62,-293.56 746.49,-273.44"/>
<text text-anchor="middle" x="883.14" y="-275.3" font-family="Times,serif" font-size="14.00">FuncCall&lt;None&lt;fact&gt;&gt;:0:0</text>
</g>
<!-- node0x7ff75c009950&#45;&gt;node0x7ff75c009998 -->
<g id="edge26" class="edge">
<title>node0x7ff75c009950&#45;&gt;node0x7ff75c009998</title>
<path fill="none" stroke="green" d="M1010.18,-350.58C984.44,-336.28 944.89,-314.31 916.76,-298.68"/>
<polygon fill="green" stroke="green" points="918.14,-295.44 907.7,-293.64 914.74,-301.56 918.14,-295.44"/>
<text text-anchor="middle" x="973.64" y="-318.8" font-family="Times,serif" font-size="14.00">L</text>
</g>
<!-- node0x7ff75c0099e0 -->
<g id="node32" class="node">
<title>node0x7ff75c0099e0</title>
<ellipse fill="aquamarine" stroke="black" cx="1098.14" cy="-279" rx="60.39" ry="18"/>
<text text-anchor="middle" x="1098.14" y="-275.3" font-family="Times,serif" font-size="14.00">ID&lt;num&gt;:0:0</text>
</g>
<!-- node0x7ff75c009950&#45;&gt;node0x7ff75c0099e0 -->
<g id="edge31" class="edge">
<title>node0x7ff75c009950&#45;&gt;node0x7ff75c0099e0</title>
<path fill="none" stroke="red" d="M1047.8,-349.01C1056.8,-336.67 1069.43,-319.35 1079.79,-305.15"/>
<polygon fill="red" stroke="red" points="1082.82,-306.93 1085.89,-296.79 1077.17,-302.81 1082.82,-306.93"/>
<text text-anchor="middle" x="1076.14" y="-318.8" font-family="Times,serif" font-size="14.00">R</text>
</g>
<!-- node0x7ff75c009a28 -->
<g id="node28" class="node">
<title>node0x7ff75c009a28</title>
<polygon fill="#c1ffc1" stroke="black" points="840.48,-186.44 883.14,-174 925.79,-186.44 925.75,-206.56 840.52,-206.56 840.48,-186.44"/>
<text text-anchor="middle" x="883.14" y="-188.3" font-family="Times,serif" font-size="14.00">Linker</text>
</g>
<!-- node0x7ff75c009998&#45;&gt;node0x7ff75c009a28 -->
<g id="edge27" class="edge">
<title>node0x7ff75c009998&#45;&gt;node0x7ff75c009a28</title>
<path fill="none" stroke="green" d="M883.14,-260.8C883.14,-248.24 883.14,-231.06 883.14,-217.13"/>
<polygon fill="green" stroke="green" points="886.64,-216.81 883.14,-206.81 879.64,-216.81 886.64,-216.81"/>
<text text-anchor="middle" x="887.64" y="-231.8" font-family="Times,serif" font-size="14.00">L</text>
</g>
<!-- node0x7ff75c009a70 -->
<g id="node29" class="node">
<title>node0x7ff75c009a70</title>
<polygon fill="#c1ffc1" stroke="black" points="757.98,-99.44 883.14,-87 1008.29,-99.44 1008.17,-119.56 758.1,-119.56 757.98,-99.44"/>
<text text-anchor="middle" x="883.14" y="-101.3" font-family="Times,serif" font-size="14.00">MaOperator&lt;Minus&gt;:0:0</text>
</g>
<!-- node0x7ff75c009a28&#45;&gt;node0x7ff75c009a70 -->
<g id="edge28" class="edge">
<title>node0x7ff75c009a28&#45;&gt;node0x7ff75c009a70</title>
<path fill="none" stroke="green" d="M883.14,-173.8C883.14,-161.24 883.14,-144.06 883.14,-130.13"/>
<polygon fill="green" stroke="green" points="886.64,-129.81 883.14,-119.81 879.64,-129.81 886.64,-129.81"/>
<text text-anchor="middle" x="887.64" y="-144.8" font-family="Times,serif" font-size="14.00">L</text>
</g>
<!-- node0x7ff75c009ab8 -->
<g id="node30" class="node">
<title>node0x7ff75c009ab8</title>
<ellipse fill="aquamarine" stroke="black" cx="810.14" cy="-18" rx="60.39" ry="18"/>
<text text-anchor="middle" x="810.14" y="-14.3" font-family="Times,serif" font-size="14.00">ID&lt;num&gt;:0:0</text>
</g>
<!-- node0x7ff75c009a70&#45;&gt;node0x7ff75c009ab8 -->
<g id="edge29" class="edge">
<title>node0x7ff75c009a70&#45;&gt;node0x7ff75c009ab8</title>
<path fill="none" stroke="green" d="M869.4,-88.01C858.7,-75.55 843.65,-58.02 831.39,-43.75"/>
<polygon fill="green" stroke="green" points="833.72,-41.09 824.55,-35.79 828.41,-45.66 833.72,-41.09"/>
<text text-anchor="middle" x="855.64" y="-57.8" font-family="Times,serif" font-size="14.00">L</text>
</g>
<!-- node0x7ff75c009b00 -->
<g id="node31" class="node">
<title>node0x7ff75c009b00</title>
<ellipse fill="pink" stroke="black" cx="957.14" cy="-18" rx="68.79" ry="18"/>
<text text-anchor="middle" x="957.14" y="-14.3" font-family="Times,serif" font-size="14.00">Number&lt;1&gt;:0:0</text>
</g>
<!-- node0x7ff75c009a70&#45;&gt;node0x7ff75c009b00 -->
<g id="edge30" class="edge">
<title>node0x7ff75c009a70&#45;&gt;node0x7ff75c009b00</title>
<path fill="none" stroke="red" d="M897.05,-88.01C908.01,-75.43 923.45,-57.7 935.93,-43.35"/>
<polygon fill="red" stroke="red" points="938.59,-45.63 942.52,-35.79 933.31,-41.03 938.59,-45.63"/>
<text text-anchor="middle" x="930.14" y="-57.8" font-family="Times,serif" font-size="14.00">R</text>
</g>
</g>
</svg>
